<?xml version="1.0" encoding="UTF-8"?>
<svg width="200px" height="57px" viewBox="0 0 200 57" version="1.1" xmlns="http://www.w3.org/2000/svg" xmlns:xlink="http://www.w3.org/1999/xlink">
    <title>BBC</title>
    <g id="Page-1" stroke="none" stroke-width="1" fill="none" fill-rule="evenodd">
        <g id="Artboard" transform="translate(-366.000000, -767.000000)" fill="#000000" fill-rule="nonzero">
            <g id="Group-10" transform="translate(88.000000, 730.000000)">
                <g id="BBC" transform="translate(278.000000, 37.000000)">
                    <path d="M108.3634,36.8385196 C108.3634,43.0324371 100.6552,42.6648539 100.6552,42.6648539 L92.9472,42.6648539 L92.9472,31.4727644 L100.6552,31.4727644 C108.5878,31.4195668 108.3634,36.8385196 108.3634,36.8385196 M92.9472,14.403943 L98.8208,14.403943 C104.92,14.7261283 104.6898,19.2669212 104.6898,19.2669212 C104.6898,24.9098638 97.9456,25.0018596 97.9456,25.0018596 L92.9472,25.0018596 L92.9472,14.403943 Z M106.9376,27.2027592 C106.9376,27.2027592 112.2136,24.9546617 112.1666,18.9917337 C112.1666,18.9917337 112.969,9.21937947 100.0208,8.02743384 L85.6532,8.02743384 L85.6532,48.9953671 L102.122,48.9953671 C102.122,48.9953671 115.8824,49.0363633 115.8824,37.4360924 C115.8822,37.4360924 116.2076,29.5418525 106.9376,27.2027592 M69.7546,0 L130.2452,0 L130.2452,57 L69.7546,57 L69.7546,0 Z M38.6082,36.8385196 C38.6082,43.0324371 30.9,42.6648539 30.9,42.6648539 L23.1914,42.6648539 L23.1914,31.4727644 L30.9,31.4727644 C38.8332,31.4195668 38.6082,36.8385196 38.6082,36.8385196 M23.1914,14.403943 L29.0662,14.403943 C35.1656,14.7261283 34.9348,19.2669212 34.9348,19.2669212 C34.9348,24.9098638 28.191,25.0018596 28.191,25.0018596 L23.1914,25.0018596 L23.1914,14.403943 L23.1914,14.403943 Z M37.183,27.2027592 C37.183,27.2027592 42.4598,24.9546617 42.4124,18.9917337 C42.4124,18.9917337 43.2142,9.21937947 30.266,8.02743384 L15.8978,8.02743384 L15.8978,48.9953671 L32.3676,48.9953671 C32.3676,48.9953671 46.1278,49.0363633 46.1278,37.4360924 C46.1278,37.4360924 46.452,29.5418525 37.183,27.2027592 M0,0 L60.4906,0 L60.4906,57 L0,57 L0,0 Z M187.6602,10.9644999 L187.6602,18.5333546 C187.6602,18.5333546 180.2718,13.9931617 172.1074,13.9017659 C172.1074,13.9017659 156.8752,13.6027795 156.1886,28.5020999 C156.1886,28.5020999 155.6384,42.2040749 171.9238,42.9848393 C171.9238,42.9848393 178.7568,43.8078017 188.0266,37.8968714 L188.0266,45.7355138 C188.0266,45.7355138 175.592,53.1229768 161.1872,47.4330364 C161.1872,47.4330364 149.0782,43.0114381 148.617,28.5020999 C148.617,28.5020999 148.1134,13.5789806 164.263,8.62520657 C164.263,8.62520657 168.5756,6.97428187 176.3256,7.7080484 C176.3258,7.70784841 180.9578,8.16602751 187.6602,10.9644999 M139.5094,57 L200,57 L200,0 L139.5094,0 L139.5094,57 Z" id="Shape"></path>
                </g>
            </g>
        </g>
    </g>
</svg>