<?xml version="1.0" encoding="UTF-8"?>
<svg width="150px" height="70px" viewBox="0 0 150 70" version="1.1" xmlns="http://www.w3.org/2000/svg" xmlns:xlink="http://www.w3.org/1999/xlink">
    <title>CNN</title>
    <g id="Page-1" stroke="none" stroke-width="1" fill="none" fill-rule="evenodd">
        <g id="Artboard" transform="translate(-1147.000000, -760.000000)">
            <g id="Group-10" transform="translate(88.000000, 730.000000)">
                <g id="CNN" transform="translate(1059.000000, 30.000000)">
                    <path d="M46.6666667,20 L35,20 C26.7157288,20 20,26.7157288 20,35 C20,43.2842712 26.7157288,50 35,50 L48.05,50 C49.1269553,50 50,49.1269553 50,48.05 L50,13.6166667 C50.007283,7.44761733 54.1610886,2.05418181 60.1237203,0.471700911 C66.086352,-1.11077998 72.3679516,1.51310175 75.4333333,6.86666667 L90,32.35 L90,13.6166667 C90.007283,7.44761733 94.1610886,2.05418181 100.12372,0.471700911 C106.086352,-1.11077998 112.367952,1.51310175 115.433333,6.86666667 L130,32.35 L130,0 L138.333333,0 L140,1.66666667 L141.666667,0 L150,0 L150,56.3833333 C149.992717,62.5523827 145.838911,67.9458182 139.87628,69.5282991 C133.913648,71.11078 127.632048,68.4868983 124.566667,63.1333333 L110,37.65 L110,56.3833333 C109.992717,62.5523827 105.838911,67.9458182 99.8762797,69.5282991 C93.913648,71.11078 87.6320484,68.4868983 84.5666667,63.1333333 L70,37.65 L70,56.3833333 C70,63.9036107 63.9036107,70 56.3833333,70 L35,70 C15.6700338,70 0,54.3299662 0,35 C0,15.6700338 15.6700338,0 35,0 L46.6666667,0 L46.6666667,8.33333333 L45,10 L46.6666667,11.6666667 L46.6666667,20 Z" id="Path" fill="#CC0000" fill-rule="nonzero"></path>
                    <path d="M46.6666667,10 L35,10 C21.1928813,10 10,21.1928813 10,35 C10,48.8071187 21.1928813,60 35,60 L56.3833333,60 C58.3807632,60 60,58.3807632 60,56.3833333 L60,13.6166667 C60.0028185,11.9804518 61.103811,10.5499389 62.6847814,10.1283468 C64.2657517,9.70675476 65.932843,10.3991119 66.75,11.8166667 L93.25,58.1833333 C94.067157,59.6008881 95.7342483,60.2932452 97.3152186,59.8716532 C98.896189,59.4500611 99.9971815,58.0195482 100,56.3833333 L100,13.6166667 C100.002818,11.9804518 101.103811,10.5499389 102.684781,10.1283468 C104.265752,9.70675476 105.932843,10.3991119 106.75,11.8166667 L133.25,58.1833333 C134.067157,59.6008881 135.734248,60.2932452 137.315219,59.8716532 C138.896189,59.4500611 139.997182,58.0195482 140,56.3833333 L140,0" id="Path" stroke="#FFFFFF" stroke-width="5.89473684"></path>
                </g>
            </g>
        </g>
    </g>
</svg>