<?xml version="1.0" encoding="UTF-8"?>
<svg width="200px" height="51px" viewBox="0 0 200 51" version="1.1" xmlns="http://www.w3.org/2000/svg" xmlns:xlink="http://www.w3.org/1999/xlink">
    <title>forbes</title>
    <g id="Page-1" stroke="none" stroke-width="1" fill="none" fill-rule="evenodd">
        <g id="Artboard" transform="translate(-618.000000, -769.000000)" fill="#000000" fill-rule="nonzero">
            <g id="Group-10" transform="translate(88.000000, 730.000000)">
                <g id="forbes" transform="translate(530.000000, 39.000000)">
                    <path d="M112.444444,0.313984169 C112.444444,0.7176781 111.955556,0.897097625 110.888889,0.897097625 C110.422222,0.897097625 109.755556,1.00923483 109.422222,1.14379947 C109.066667,1.25593668 108.133333,1.45778364 107.333333,1.56992084 C106.533333,1.68205805 105.488889,1.88390501 105,1.99604222 C103.444444,2.37730871 101.711111,2.71372032 100.244444,2.89313984 C98.7555556,3.09498681 98.4,3.36411609 98.4888889,4.26121372 C98.5555556,4.75461741 98.6666667,4.84432718 99.7333333,4.93403694 C101.2,5.06860158 102.155556,5.92084433 102.777778,7.6701847 C103.177778,8.81398417 103.2,9.64379947 103.222222,29.1332454 L103.222222,49.4300792 L103.888889,49.6992084 C104.266667,49.8562005 104.911111,49.9907652 105.333333,50.0131926 C105.755556,50.0131926 106.466667,50.1253298 106.888889,50.2598945 C108.888889,50.9102902 117.711111,51.201847 120.666667,50.7308707 C123.777778,50.237467 126.355556,49.1385224 128.777778,47.2546174 C130.355556,46.0435356 133.088889,42.8139842 133.111111,42.1411609 C133.111111,41.939314 133.266667,41.6477573 133.444444,41.4907652 C133.622222,41.3337731 133.777778,41.0422164 133.777778,40.8403694 C133.777778,40.6385224 133.888889,40.3469657 134,40.2348285 C134.6,39.6292876 135.644444,33.9551451 135.622571,31.5105541 C135.6,29.6042216 135.066667,26.0831135 134.711111,25.4102902 C134.555556,25.1411609 134.444444,24.7823219 134.444444,24.6029024 C134.444444,23.9525066 133.444444,22.0013193 132.4,20.6108179 C132.044444,20.1622691 131.777778,19.6912929 131.777778,19.6015831 C131.755556,19.1754617 128.222222,16.3720317 127.711111,16.3720317 C127.533333,16.3720317 127.266667,16.2150396 127.111111,16.0356201 C126.955556,15.8562005 126.622222,15.6992084 126.355556,15.6992084 C126.111111,15.676781 125.644444,15.5422164 125.333333,15.3627968 C124.933333,15.1385224 123.933333,15.0488127 121.666667,15.0263852 C118.577778,15.0263852 117.711111,15.1609499 115.644444,16.0580475 C115.244444,16.2150396 114.577778,16.4168865 114.133333,16.4841689 C113.422222,16.6411609 113.333333,16.5963061 113.2,16.0131926 C113.044444,15.4300792 113.422222,5.36015831 113.711111,1.61477573 L113.844444,0 L113.133333,0 C112.688889,0 112.444444,0.112137203 112.444444,0.313984169 Z M117.933333,18.7269129 C118.355556,18.9063325 118.844444,19.0633245 119.022222,19.0633245 C119.511111,19.0633245 121.244444,20.3641161 121.888889,21.2387863 C122.711111,22.3153034 123.777778,24.4234828 123.777778,24.939314 C123.777778,25.1860158 123.888889,25.5897098 124.044444,25.8588391 C124.955556,27.4960422 124.933333,37.7005277 124.044444,39.4050132 C123.888889,39.6741425 123.777778,40.1675462 123.777778,40.5263852 C123.777778,40.8627968 123.622222,41.3562005 123.444444,41.5804749 C123.266667,41.8271768 123.111111,42.1860158 123.111111,42.3878628 C123.111111,42.5897098 122.866667,43.2176781 122.555556,43.7559367 C122.266667,44.2941953 121.911111,44.944591 121.8,45.1912929 C121.444444,45.9762533 120.155556,47.2546174 118.955556,47.9722955 C117.866667,48.6451187 117.711111,48.6899736 115.844444,48.6226913 L113.888889,48.555409 L113.755556,45.5277045 C113.155556,32.8562005 112.955556,19.8258575 113.355556,19.4221636 C113.488889,19.2651715 116.355556,18.4577836 116.844444,18.4129288 C117,18.3905013 117.488889,18.5474934 117.933333,18.7269129 Z M0,2.35488127 C0,3.27440633 0.444444444,3.5883905 1.77777778,3.5883905 C3.42222222,3.5883905 5.37777778,4.97889182 6.06666667,6.68337731 C6.24444444,7.13192612 6.55555556,8.47757256 6.77777778,9.66622691 C7.08888889,11.5501319 7.15555556,13.6583113 7.13333333,25.9261214 C7.13333333,38.7994723 7.08888889,40.2348285 6.68888889,42.3878628 C6.46666667,43.6886544 6.13333333,44.9894459 5.95555556,45.3034301 C4.93333333,47.1873351 4.04444444,47.8153034 2.04444444,48.0844327 C0.511111111,48.2862797 0,48.6226913 0,49.3852243 C0,49.8337731 0.133333333,50.0356201 0.511111111,50.1253298 C0.777777778,50.1926121 6.55555556,50.2150396 13.3333333,50.1926121 L25.6666667,50.1253298 L25.7333333,49.4973615 C25.8444444,48.5329815 25.4666667,48.2862797 23.7111111,48.1068602 C22.8444444,48.0171504 21.8666667,47.792876 21.5555556,47.591029 C20.7111111,47.0527704 19.7777778,46.1556728 19.7777778,45.8416887 C19.7777778,45.707124 19.6444444,45.4604222 19.4666667,45.3258575 C19.2888889,45.1688654 19.1111111,44.6978892 19.0444444,44.2269129 C18.9777778,43.7783641 18.8222222,42.8812665 18.7111111,42.2532982 C18.5777778,41.6253298 18.4,38.0817942 18.3111111,34.4036939 C18.1777778,28.3034301 18.2,27.6754617 18.5333333,27.383905 C18.8,27.1596306 19.3777778,27.1147757 20.9555556,27.2044855 C24.4,27.4063325 25.6222222,27.7427441 26.7333333,28.707124 C27.6888889,29.5593668 29.1111111,32.0936675 29.1111111,32.9459103 C29.1111111,34.0448549 30.9777778,34.6055409 31.2222222,33.5963061 C31.2888889,33.3047493 31.3111111,29.6490765 31.2888889,25.4551451 L31.2222222,17.8298153 L30.4444444,17.762533 C29.5777778,17.6728232 29.1111111,18.121372 29.1111111,19.0633245 C29.1111111,19.3773087 28.9555556,19.848285 28.7777778,20.0949868 C28.6,20.3192612 28.4444444,20.6556728 28.4444444,20.8350923 C28.4444444,21.1939314 27.1777778,22.853562 26.5555556,23.3245383 C25.1777778,24.3562005 24.7555556,24.4459103 21.4666667,24.4459103 C19.5333333,24.4459103 18.2222222,24.3562005 18.1777778,24.2216359 C18.0666667,23.8852243 18.4,5.58443272 18.5333333,5.24802111 C18.7111111,4.77704485 29.5111111,4.7994723 30.1333333,5.27044855 C30.3555556,5.44986807 30.7111111,5.60686016 30.9111111,5.60686016 C31.3111111,5.60686016 33.2444444,6.84036939 33.9333333,7.53562005 C34.4666667,8.07387863 35.6666667,9.64379947 35.8444444,10.0923483 C35.9333333,10.2717678 36.2444444,10.8773087 36.5555556,11.4155673 C36.8666667,11.9538259 37.1111111,12.5369393 37.1111111,12.6939314 C37.1111111,12.8509235 37.2666667,13.2546174 37.4444444,13.6134565 C37.6222222,13.9498681 37.8222222,14.5105541 37.8888889,14.8469657 C38.0444444,15.6319261 38.8222222,15.8562005 39.7555556,15.3852243 L40.4444444,15.0039578 L40.4444444,1.56992084 L0,1.56992084 L0,2.35488127 Z M51.0666667,14.4881266 C51,14.555409 50.2,14.7348285 49.3111111,14.914248 C42.7333333,16.1253298 38.3333333,20.408971 36.2666667,27.585752 C35.7555556,29.4023747 35.6222222,36.5343008 36.1111111,37.7229551 C36.2888889,38.1939314 36.4444444,38.8218997 36.4444444,39.1358839 C36.4444444,39.651715 36.8,40.6385224 37.4666667,42.0065963 C37.6444444,42.3654354 37.7777778,42.7467018 37.7777778,42.8588391 C37.7777778,43.3073879 40.4222222,46.5593668 41.5777778,47.5461741 C42.6888889,48.4881266 44.6222222,49.5646438 46.4444444,50.237467 C49.2,51.2467018 56.3777778,51.2467018 59.1111111,50.2150396 C64.3111111,48.2862797 67.1333333,45.505277 69.4222222,40.0778364 C69.6222222,39.6068602 69.7777778,39.0013193 69.7777778,38.73219 C69.8,38.4630607 69.9333333,37.9920844 70.1111111,37.6781003 C70.3555556,37.2519789 70.4222222,36.085752 70.4222222,32.5197889 C70.4222222,28.9538259 70.3555556,27.7875989 70.1111111,27.3614776 C69.9333333,27.0474934 69.8,26.5765172 69.7777778,26.3073879 C69.7777778,25.8139842 69.4,24.8047493 68.7555556,23.4815303 C68.5777778,23.1226913 68.4444444,22.7414248 68.4444444,22.6292876 C68.4444444,22.0686016 65.6222222,18.7269129 64.3777778,17.8073879 C62.5111111,16.4168865 59.5555556,15.0263852 58.4666667,15.0263852 C58.1333333,15.0263852 57.3555556,14.8693931 56.7555556,14.6899736 C55.7111111,14.3759894 51.3333333,14.1965699 51.0666667,14.4881266 L51.0666667,14.4881266 Z M53.9555556,16.8430079 C56.1777778,17.3812665 58.5333333,20.8799472 59.1333333,24.5580475 C59.2222222,25.1635884 59.4,26.1728232 59.5333333,26.8007916 C59.8222222,28.2585752 59.8222222,38.5976253 59.5333333,39.9208443 C59.4222222,40.4815303 59.2444444,41.4234828 59.1333333,42.0514512 C58.7333333,44.3390501 57.7777778,46.3799472 56.5333333,47.6134565 C55.4222222,48.7348285 54.3555556,49.0039578 52.3777778,48.7572559 C51.4666667,48.6226913 51.1333333,48.4208443 50.2666667,47.5461741 C49.6888889,46.9630607 49.0444444,46.1332454 48.8444444,45.6846966 C47.7777778,43.4643799 47.3333333,42.1411609 47.0888889,40.5936675 C46.9777778,39.9208443 46.8,38.8443272 46.6888889,38.2387863 C46.4,36.7810026 46.4222222,28.0791557 46.6888889,26.4643799 C46.8,25.7915567 46.9555556,24.6701847 47.0444444,23.9973615 C47.1111111,23.3245383 47.3111111,22.5620053 47.4666667,22.3153034 C47.6444444,22.0686016 47.7777778,21.6200528 47.7777778,21.2836412 C47.7777778,20.9472296 47.9333333,20.5659631 48.1111111,20.408971 C48.2888889,20.2519789 48.4444444,19.9379947 48.4444444,19.7137203 C48.4444444,19.0633245 50.4666667,17.1794195 51.4666667,16.8878628 C52.6444444,16.5738786 52.7777778,16.5514512 53.9555556,16.8430079 Z" id="Shape"></path>
                    <path d="M85.3333333,14.555409 C85.1555556,14.6675462 84.2888889,14.8693931 83.4444444,15.0039578 C81.5111111,15.317942 79.7555556,15.6543536 78.4444444,15.9683377 C77.8888889,16.1029024 76.8888889,16.2823219 76.2222222,16.3496042 C75.5555556,16.439314 74.7777778,16.6187335 74.5111111,16.7757256 C74.2444444,16.9327177 73.5333333,17.0448549 72.9555556,17.0448549 C71.5777778,17.0448549 71.0444444,17.4036939 71.1555556,18.2783641 C71.2222222,18.9063325 71.2888889,18.9511873 72.3111111,19.0184697 C73.6888889,19.1081794 74.8666667,19.9828496 75.3111111,21.2163588 C75.7777778,22.5620053 76.0222222,29.9630607 75.8666667,37.8799472 C75.7333333,44.0026385 75.6666667,45.0343008 75.3111111,45.8416887 C74.7333333,47.1873351 73.8444444,47.9274406 72.6222222,48.1068602 C71.4,48.2862797 71.0444444,48.6226913 71.1555556,49.4973615 L71.2222222,50.1253298 L81.6444444,50.1253298 C91.3333333,50.1253298 92.0888889,50.1029024 92.3111111,49.7216359 C92.4888889,49.4525066 92.4888889,49.2282322 92.3111111,48.9591029 C92.0222222,48.5105541 91.3333333,48.2862797 89.5111111,48.1068602 C87.2,47.8601583 86.5777778,46.7836412 86.1777778,42.2757256 C85.8666667,38.6873351 85.8222222,28.3707124 86.0888889,26.3522427 C86.3555556,24.5356201 86.4666667,24.378628 87.8888889,23.6833773 C88.9333333,23.1899736 89.4222222,23.1002639 91.0666667,23.1002639 C92.3555556,23.1002639 93.2222222,23.2124011 93.6444444,23.4366755 C93.9777778,23.616095 94.4222222,23.7730871 94.6222222,23.7730871 C94.8,23.7730871 95.1333333,23.9076517 95.3111111,24.0870712 C95.5111111,24.2440633 95.9333333,24.4459103 96.2666667,24.5356201 C96.7777778,24.6477573 96.8888889,24.5580475 97.3111111,23.7058047 C97.5777778,23.1675462 97.7777778,22.5844327 97.7777778,22.3825858 C97.7777778,22.1807388 97.9333333,21.9116095 98.1111111,21.7546174 C98.2888889,21.5976253 98.4444444,21.2612137 98.4444444,20.9920844 C98.4444444,20.7229551 98.6,20.2968338 98.7777778,20.0501319 C98.9555556,19.8258575 99.1111111,19.444591 99.1111111,19.2427441 C99.1111111,19.0408971 99.2444444,18.5923483 99.4222222,18.2335092 C100.311111,16.3720317 100.488889,15.9459103 100.4,15.5870712 C100.2,14.5778364 95.9777778,13.994723 94.0444444,14.7124011 C91.1555556,15.7664908 89.3333333,17.1794195 87.7333333,19.646438 C87.2222222,20.4313984 86.6666667,21.0817942 86.5111111,21.0817942 C86.3111111,21.0817942 86.2222222,20.2519789 86.1777778,17.7849604 C86.1333333,15.8562005 86.0222222,14.4656992 85.8888889,14.4432718 C85.7777778,14.3984169 85.5111111,14.4656992 85.3333333,14.555409 L85.3333333,14.555409 Z M153.955556,14.4656992 C153.888889,14.5329815 153.088889,14.7348285 152.2,14.914248 C150.555556,15.2058047 149.288889,15.5870712 148.666667,15.9459103 C148.488889,16.0580475 148.177778,16.2150396 148,16.2823219 C147.822222,16.3496042 147.577778,16.4617414 147.444444,16.5065963 C146.111111,17.0448549 142.288889,20.4762533 141.755556,21.6424802 C141.644444,21.8891821 141.355556,22.3825858 141.111111,22.7638522 C140.866667,23.1226913 140.622222,23.5936675 140.533333,23.7730871 C140.466667,23.9525066 140.266667,24.378628 140.088889,24.7150396 C139.911111,25.0290237 139.777778,25.4775726 139.777778,25.7242744 C139.777778,25.9485488 139.622222,26.3298153 139.444444,26.5540897 C139.266667,26.8007916 139.111111,27.3166227 139.111111,27.6754617 C139.111111,28.0567282 138.955556,28.8641161 138.777778,29.469657 C138.377778,30.7704485 138.333333,35.0765172 138.688889,36.444591 C138.822222,36.9379947 139,37.8126649 139.088889,38.4182058 C139.177778,39.0013193 139.377778,39.6068602 139.511111,39.7414248 C139.666667,39.8984169 139.777778,40.2348285 139.777778,40.5039578 C139.777778,40.7730871 139.933333,41.1094987 140.111111,41.2664908 C140.288889,41.4234828 140.444444,41.7150396 140.444444,41.939314 C140.444444,42.1635884 140.6,42.4551451 140.777778,42.6121372 C140.955556,42.7691293 141.111111,42.9934037 141.111111,43.1055409 C141.111111,43.4195251 142.355556,44.9894459 143.555556,46.2005277 C144.866667,47.5237467 146.711111,48.9366755 147.555556,49.2506596 C147.733333,49.317942 148.2,49.4973615 148.555556,49.6543536 C150.955556,50.6860158 152.622222,50.9775726 156,51 C158.555556,51 160.955556,50.7084433 162,50.2823219 C162.311111,50.1477573 163.111111,49.8337731 163.777778,49.5646438 C165.444444,48.8693931 167.155556,47.7480211 168.577778,46.3799472 C169.911111,45.1015831 170.133333,44.3390501 169.266667,43.9353562 C168.822222,43.7335092 168.555556,43.823219 167.488889,44.4960422 C166.8,44.944591 166.066667,45.3034301 165.844444,45.3034301 C165.622222,45.3258575 165.2,45.4604222 164.888889,45.6398417 C164.488889,45.8641161 163.533333,45.9538259 161.555556,45.9762533 C158.711111,45.9762533 157.755556,45.7968338 155.666667,44.8100264 C153.777778,43.9577836 151.333333,41.4010554 150.555556,39.4722955 C149.488889,36.8931398 149.111111,35.2783641 149.111111,33.2150396 L149.111111,31.1741425 L159.733333,31.1292876 L170.333333,31.0620053 L170.4,29.6490765 C170.444444,28.8192612 170.311111,27.7203166 170.111111,27.025066 C169.933333,26.3746702 169.777778,25.5448549 169.777778,25.1860158 C169.777778,24.8271768 169.622222,24.3337731 169.444444,24.0870712 C169.266667,23.8627968 169.111111,23.5039578 169.111111,23.3021108 C169.111111,23.1002639 168.866667,22.494723 168.555556,21.9564644 C168.244444,21.4182058 167.933333,20.8126649 167.844444,20.6332454 C167.577778,20.0277045 166.355556,18.525066 165.577778,17.8298153 C165.155556,17.4485488 164.666667,16.9775726 164.466667,16.7532982 C164.288889,16.5514512 163.955556,16.3720317 163.777778,16.3720317 C163.577778,16.3720317 163.311111,16.2598945 163.155556,16.1029024 C162.822222,15.7664908 161.555556,15.2955145 159.777778,14.8693931 C158.266667,14.5105541 154.2,14.2189974 153.955556,14.4656992 Z M157.488889,17.7849604 C158.311111,18.5923483 158.777778,19.6015831 159.111111,21.2612137 C159.222222,21.7770449 159.422222,22.4050132 159.555556,22.6292876 C159.8,23.1226913 159.866667,28.1912929 159.622222,28.3258575 C159.511111,28.3931398 157.155556,28.4604222 154.333333,28.505277 L149.222222,28.5949868 L149.155556,27.383905 C149.111111,26.7335092 149.2,25.8812665 149.333333,25.4775726 C149.466667,25.0963061 149.666667,24.3337731 149.777778,23.7730871 C149.866667,23.2124011 150.088889,22.4050132 150.222222,21.9788918 C150.377778,21.5527704 150.555556,21.0817942 150.6,20.969657 C150.644444,20.8350923 150.866667,20.4313984 151.111111,20.0725594 C151.355556,19.6912929 151.644444,19.1978892 151.755556,18.9511873 C152,18.3905013 153.422222,17.201847 154.066667,17 C154.333333,16.9102902 155.044444,16.8654354 155.622222,16.9102902 C156.511111,16.9775726 156.844444,17.1121372 157.488889,17.7849604 L157.488889,17.7849604 Z M184.111111,14.6899736 C183.622222,14.8693931 182.933333,15.0039578 182.555556,15.0263852 C182.2,15.0263852 181.688889,15.1833773 181.466667,15.3627968 C181.222222,15.5422164 180.8,15.6992084 180.533333,15.6992084 C180.244444,15.6992084 179.955556,15.8113456 179.888889,15.9234828 C179.8,16.0580475 179.4,16.3047493 178.977778,16.4841689 C178.133333,16.8430079 175.4,19.3548813 175.088889,20.0725594 C174.977778,20.3192612 174.8,20.6781003 174.688889,20.8575198 C173.688889,22.651715 173.666667,22.7189974 173.666667,25.6794195 C173.666667,28.0791557 173.755556,28.707124 174.066667,29.1556728 C174.266667,29.4472296 174.444444,29.828496 174.444444,30.0079156 C174.444444,30.8825858 178.288889,34.5382586 179.222222,34.5382586 C179.377778,34.5382586 179.622222,34.6952507 179.777778,34.8746702 C179.933333,35.0540897 180.266667,35.2110818 180.533333,35.2110818 C180.777778,35.2110818 181.2,35.3680739 181.422222,35.5474934 C181.666667,35.7269129 182.066667,35.883905 182.333333,35.883905 C182.6,35.883905 183,36.0408971 183.244444,36.2203166 C183.466667,36.3997361 183.822222,36.5567282 184,36.5567282 C184.955556,36.5791557 188.577778,38.7770449 189.333333,39.8087071 C190.244444,41.0422164 190.6,42.8139842 190.133333,43.7559367 C189.933333,44.1596306 189.777778,44.6081794 189.777778,44.7875989 C189.777778,45.348285 188.644444,46.6266491 187.533333,47.3218997 C186.511111,47.9498681 186.288889,47.994723 184.333333,47.994723 C182.555556,47.994723 182.044444,47.9050132 181.133333,47.4564644 C179.688889,46.7612137 178.2,45.5277045 177.422222,44.3390501 C177.066667,43.823219 176.733333,43.3522427 176.666667,43.2849604 C176.488889,43.1055409 176,42.298153 175.866667,41.939314 C175.622222,41.2889182 175.155556,40.2572559 174.755556,39.4050132 C174.422222,38.7546174 174.222222,38.5751979 173.755556,38.5751979 C173.422222,38.5751979 173.066667,38.7097625 172.955556,38.8667546 C172.711111,39.1583113 172.955556,48.6675462 173.2,49.0712401 C173.266667,49.1833773 173.6,49.3403694 173.933333,49.4076517 C174.288889,49.4525066 174.866667,49.6094987 175.222222,49.7440633 C177.666667,50.5963061 180.4,50.9551451 184.777778,50.9551451 C186.488889,50.9775726 188.6,50.8654354 189.444444,50.7532982 C191.022222,50.5065963 192.822222,49.9234828 193.2,49.5422164 C193.333333,49.4300792 193.555556,49.3403694 193.711111,49.3403694 C195.022222,49.3403694 199.111111,44.7651715 199.111111,43.2849604 C199.111111,42.6345646 199.355556,42.1635884 199.688889,42.1635884 C199.933333,42.1635884 200,41.6029024 200,39.3601583 C200,37.0277045 199.933333,36.5567282 199.666667,36.5567282 C199.488889,36.5567282 199.266667,36.2875989 199.2,35.9287599 C198.911111,34.762533 198.177778,33.6411609 196.933333,32.4973615 C196.244444,31.8693931 195.488889,31.2638522 195.244444,31.151715 C194.777778,30.9498681 194.511111,30.8153034 193.666667,30.3218997 C193.2,30.030343 193.155556,30.0079156 191.666667,29.4472296 C190.822222,29.1332454 190.177778,28.8641161 188.622222,28.1688654 C188.222222,27.9894459 187.733333,27.7875989 187.555556,27.7203166 C186.644444,27.3614776 184.955556,26.1952507 184.133333,25.3878628 C183.511111,24.7598945 183.066667,24.0646438 182.822222,23.2572559 C182.466667,22.091029 182.466667,22.0013193 182.888889,20.6332454 C183.377778,19.0633245 183.688889,18.6372032 184.977778,17.6952507 C185.777778,17.0897098 186,17.0448549 187.777778,17.0448549 C189.111111,17.0448549 189.822222,17.1345646 190.133333,17.3812665 C190.355556,17.560686 190.733333,17.7176781 190.933333,17.7176781 C191.155556,17.7176781 191.955556,18.3456464 192.733333,19.1081794 C194.088889,20.4538259 194.533333,21.2163588 196.066667,24.7150396 C196.466667,25.6345646 197.066667,25.8364116 197.577778,25.2084433 C197.822222,24.9168865 197.866667,23.9525066 197.822222,20.76781 C197.755556,17.3139842 197.688889,16.6411609 197.355556,16.3271768 C196.911111,15.8337731 195.088889,15.2955145 193,15.0039578 C192.155556,14.8918206 191.155556,14.6899736 190.8,14.5778364 C189.866667,14.2638522 185.177778,14.353562 184.111111,14.6899736 L184.111111,14.6899736 Z" id="Shape"></path>
                </g>
            </g>
        </g>
    </g>
</svg>