<?xml version="1.0" encoding="UTF-8"?>
<svg width="423px" height="363px" viewBox="0 0 423 363" version="1.1" xmlns="http://www.w3.org/2000/svg" xmlns:xlink="http://www.w3.org/1999/xlink">
    <title>guarantee</title>
    <g id="Page-1" stroke="none" stroke-width="1" fill="none" fill-rule="evenodd">
        <g id="Artboard" transform="translate(-204.000000, -4999.000000)">
            <g id="guarantee" transform="translate(414.500000, 5181.000000) scale(-1, 1) translate(-414.500000, -5181.000000) translate(204.000000, 5001.000000)">
                <g id="Group" transform="translate(247.037055, 0.000000)" stroke="#1F1F1E" stroke-width="3.61048899">
                    <path d="M5.42341552,34.8908818 C5.09142739,44.1939823 10.8458883,58.3701353 22.4654729,53.9400875 C25.5640288,52.8325756 29.2158983,50.6175516 30.7651762,48.2917765" id="Path"></path>
                    <path d="M12.1739515,52.9431052 C11.5099753,53.1646076 11.8419634,56.3763923 12.7272651,60.5849378 C13.2805786,63.3537177 14.276543,66.0117464 15.4938328,68.5590239" id="Path"></path>
                    <path d="M35.9664343,34.00454 C40.6142681,33.3400328 43.712824,35.112052 43.3808359,39.652851 C42.938185,42.8646357 40.1716173,45.1904108 36.9623987,45.0796596" id="Path"></path>
                    <path d="M25.7857969,28.0240862 C19.0353716,23.2617847 8.96506491,28.467091 3.76391752,27.2488278 C3.32126667,27.359579 1.4400006,22.4865264 1.10801246,20.603756 C0.00138536007,15.0661962 -1.54789259,5.32009101 3.65325481,1.44379915 C7.19446154,-1.21422955 10.846331,0.225535994 13.9448869,2.32980872 C15.1621767,3.21581828 15.7154902,4.87708622 17.2647682,5.4308422 C20.3633241,6.53835416 23.7938681,2.99431589 27.667063,4.32333024 C31.5402578,5.65234459 32.3148968,10.3038948 33.3108612,13.4049283 C33.6428493,14.5124403 34.4174883,16.2844594 35.1921273,16.7274642 C35.7454408,16.9489666 37.1840561,17.6134738 37.5160442,18.2779809 C39.0653222,21.3790144 39.8399611,23.9262919 38.0693578,27.4703302" id="Path"></path>
                </g>
                <path d="M75.5109072,158.600189 C64.0019854,156.273307 47.7345669,148.964835 39.1028755,142.761661 C34.6763671,139.550983 26.5979892,130.247883 21.6181672,132.684409 C16.9703334,135.009077 17.7449724,143.759529 19.6262385,148.189577 C23.8314215,158.046433 29.9178705,160.039955 37.6642603,162.696876 C37.6642603,162.696876 49.0625194,164.137749 57.0302346,168.014041" id="Path" stroke="#1F1F1E" stroke-width="3.61048899" stroke-linecap="round" stroke-linejoin="round"></path>
                <path d="M46.8493759,165.465877 C41.8695539,162.143341 25.9341236,161.478834 24.3848457,161.478834 C17.6344203,161.478834 9.77736789,162.586346 5.35085947,164.912121 C2.473629,166.462638 -0.735589604,169.342169 0.149712079,173.772217 C1.03501376,178.64527 3.80158152,179.752782 5.46152218,180.529147 C13.0972492,184.073186 25.7127982,182.300059 29.9179812,181.967805 C37.6643709,181.304406 46.2960623,179.975391 50.0585945,173.551822 C51.6078724,170.783042 49.1732928,167.016394 46.8493759,165.465877 Z" id="Path" stroke="#1F1F1E" stroke-width="3.61048899" stroke-linecap="round" stroke-linejoin="round"></path>
                <path d="M7.23234687,181.968248 C5.24041809,181.968248 3.35915201,185.512287 4.24445369,189.720832 C5.46174351,194.261631 9.11361295,197.694918 13.6507841,198.580928 C22.6144636,199.799191 29.2542263,199.134684 37.9965804,196.91966 C46.2962837,194.926138 61.8997258,189.49933 56.477253,178.645713 C55.2599632,176.098435 52.8253836,174.326416 50.0588158,173.883411" id="Path" stroke="#1F1F1E" stroke-width="3.61048899" stroke-linecap="round" stroke-linejoin="round"></path>
                <path d="M17.634531,199.024376 C16.4172412,198.802873 12.654709,202.900668 15.0892887,207.441467 C17.634531,212.314519 22.8356784,213.200529 26.4875478,213.532782 C38.5497833,214.640294 48.9520781,211.648904 54.8172017,205.780199 C58.4690712,202.125409 64.5555202,195.70184 56.4771424,188.060007" id="Path" stroke="#1F1F1E" stroke-width="3.61048899" stroke-linecap="round" stroke-linejoin="round"></path>
                <path d="M31.3565964,214.418127 C29.5859931,218.406278 36.115093,221.838458 38.6603353,222.28257 C47.4026895,223.943838 54.0424521,221.838458 58.9116113,216.965405 C62.0101672,213.864371 63.1167943,205.336529 59.9075757,202.013993" id="Path" stroke="#1F1F1E" stroke-width="3.61048899" stroke-linecap="round" stroke-linejoin="round"></path>
                <path d="M60.9037615,215.747363 C64.4449682,217.408631 83.1469663,216.41187 84.4749188,216.41187" id="Path" stroke="#1F1F1E" stroke-width="3.61048899" stroke-linecap="round" stroke-linejoin="round"></path>
                <path d="M366.664609,103.556623 C416.020178,143.98081 421,165.355791 421,167.349312 C421,174.658891 415.68819,186.730771 411.261681,192.711336 C396.211553,212.868054 380.829436,236.3462 357.590267,247.975075 L359.139545,247.200924 C356.594303,247.200924 346.413333,235.572049 342.429476,233.135522 C318.968981,219.070121 299.381681,199.467159 277.802453,182.85448 C267.953471,175.323398 259.100455,166.906307 249.804787,158.710719 C246.927556,156.163441 235.418635,147.414097 238.07454,147.414097 L236.967912,148.521609 C228.004233,161.922504 198.678615,192.268331 185.84174,200.796173 C178.980652,205.335865 172.34089,209.102513 165.479802,212.646551 C158.176063,216.522843 153.085578,216.96474 141.797981,219.291623 C133.830266,220.841032 114.574955,221.838901 106.275251,221.838901 C94.8769922,221.948544 83.3680704,220.731389 84.0320466,220.287276 C82.9254195,221.506647 81.597467,208.104645 80.822828,203.897207 C77.5029467,187.395279 75.1790298,173.108374 75.1790298,155.497827 C75.1790298,155.497827 86.2453008,156.495695 95.2089804,156.827949 C108.156517,157.270953 140.248704,154.723676 151.868288,150.847384 C183.407161,140.32602 206.867655,80.0773697 247.148882,74.8720635 C254.341958,73.986054 264.522927,72.4355372 268.72811,72.1032836 C283.335588,70.9957717 298.053729,71.4387765 312.550544,73.3215468 C330.588566,76.2010779 359.028882,97.2438051 366.664609,103.556623" id="Path" fill="#1F1F1E" fill-rule="nonzero"></path>
                <path d="M311.001487,118.729205 C309.89486,118.729205 310.448174,117.289439 311.222813,118.064698 C313.325404,120.390473 315.759984,122.605497 318.305226,124.488267 C323.395711,127.921554 328.154207,133.459114 332.470053,137.778411 C340.216443,145.641745 348.958797,154.39109 353.385305,163.361937 C356.04121,168.788745 351.94669,181.303631 350.286749,186.176683" id="Path" stroke="#FCF3E4" stroke-width="2.6580287" stroke-linecap="round" stroke-linejoin="round"></path>
                <path d="M164.483616,181.85794 C177.652478,174.43761 190.157365,165.909768 201.998275,156.495916 C219.593646,142.319763 224.905456,137.224101 238.295644,122.384548 C242.168839,118.065251 257.550955,97.5762802 257.993606,97.7942466 C262.309452,99.3482993 273.929036,112.084687 283.003379,119.283515 C300.488087,133.127414 317.530144,145.198187 335.236178,153.394883 C343.867869,157.380818 386.030362,172.33223 387.800966,174.105357 C388.354279,174.659113 388.022291,204.228574 387.57964,217.96283 C386.36235,256.725749 377.177345,301.469232 344.863834,329.267782 C302.25869,365.92532 273.043735,363.15654 249.58324,354.517947 C232.098532,348.205129 217.048403,336.688112 206.203458,321.624842 C193.477246,303.795007 187.390797,291.612375 181.083022,270.458897 C176.213863,254.066613 173.447295,243.545249 170.902053,228.15194 C167.91416,209.766134 165.590243,197.363108 164.483616,181.85794" id="Path" fill="#FFB400" fill-rule="nonzero"></path>
                <path d="M258.54692,97.6864776 C258.54692,127.035545 260.096198,145.087989 262.530777,175.544568 C265.629333,214.307487 268.617226,244.099559 273.486386,282.751726 C275.69964,300.139664 279.019521,330.153238 284.331331,359.060408" id="Path" stroke="#FCF3E4" stroke-width="2.6580287" stroke-linecap="round" stroke-linejoin="round"></path>
            </g>
        </g>
    </g>
</svg>