<?xml version="1.0" encoding="UTF-8"?>
<svg width="214px" height="221px" viewBox="0 0 214 221" version="1.1" xmlns="http://www.w3.org/2000/svg" xmlns:xlink="http://www.w3.org/1999/xlink">
    <title>lightbulb</title>
    <g id="Page-1" stroke="none" stroke-width="1" fill="none" fill-rule="evenodd">
        <g id="Artboard" transform="translate(-292.000000, -1707.000000)">
            <g id="lightbulb" transform="translate(296.123500, 1711.124453)">
                <path d="M67.1037422,162.249955 C86.2298442,170.626235 102.404172,170.881395 119.22292,168.211483 C157.657615,162.10757 177.308152,130.010003 173.466396,93.4719519 C171.789738,77.4772092 165.913788,65.8273978 153.958838,54.4178604 C125.67175,27.4142688 71.4168107,27.9888762 43.7343401,61.307128 C30.3998945,77.3593523 28.4856121,107.372305 32.6988981,122.131661 C36.7628104,136.380709 43.99615,152.130636 67.1037422,162.249955 L67.1037422,162.249955 Z" id="Path" fill="#1F1F1E" fill-rule="nonzero" transform="translate(102.322060, 102.436123) rotate(6.985275) translate(-102.322060, -102.436123) "></path>
                <path d="M70.189312,138.449969 C69.8820885,152.631204 69.4428574,169.257931 68.9933688,181.816434 C68.8117418,186.836155 68.7549643,196.719391 71.6291997,201.05502 C76.2014271,207.937771 87.3327747,209.98642 94.6938691,210.135533 C106.639059,210.377836 112.877875,205.322997 115.296983,201.558828 C118.447766,196.654841 117.576153,187.934356 117.652394,182.326204 C117.87639,164.917951 118.208025,156.367882 118.038606,139.069846" id="Path" stroke="#1F1F1E" stroke-width="6.68305181" stroke-linecap="round" stroke-linejoin="round" transform="translate(93.503253, 174.296947) rotate(6.985275) translate(-93.503253, -174.296947) "></path>
                <path d="M67.9833455,182.570675 C69.1724222,182.828583 69.9566513,183.201269 71.4173131,183.307295 C75.3841587,183.595611 79.4637108,183.713473 83.4920324,183.909151 C90.164903,184.231562 97.642358,184.398533 104.335558,184.098307 C107.574531,183.9528 110.94673,183.697993 114.124167,183.411632" id="Path" stroke="#1F1F1E" stroke-width="6.68305181" stroke-linecap="round" stroke-linejoin="round" transform="translate(91.053756, 183.413082) rotate(6.985275) translate(-91.053756, -183.413082) "></path>
                <path d="M-0.00384412128,63.7363333 C1.5592946,63.7571471 6.24877043,64.0493655 7.0277852,64.0829345 C10.5743439,64.2377114 13.1112653,64.3662697 17.4163566,64.6287353" id="Path" stroke="#1F1F1E" stroke-width="6.68305181" stroke-linecap="round" stroke-linejoin="round" transform="translate(8.706256, 64.182534) rotate(6.985275) translate(-8.706256, -64.182534) "></path>
                <path d="M36.2437909,11.5737424 C38.4593161,12.9784089 45.8514643,15.6927314 49.6218214,17.2216815" id="Path" stroke="#1F1F1E" stroke-width="6.68305181" stroke-linecap="round" stroke-linejoin="round" transform="translate(42.932806, 14.397712) rotate(20.517062) translate(-42.932806, -14.397712) "></path>
                <path d="M113.810001,0.0114445287 C113.75564,2.50133711 113.780324,10.7733129 113.781017,13.312137" id="Path" stroke="#1F1F1E" stroke-width="6.68305181" stroke-linecap="round" stroke-linejoin="round" transform="translate(113.792416, 6.661791) rotate(6.985275) translate(-113.792416, -6.661791) "></path>
                <path d="M171.595127,34.2525626 C172.918172,33.6574919 174.849076,32.8617754 175.97289,32.3870307 C178.889687,31.1600433 182.828046,29.7322608 185.060533,28.2717024" id="Path" stroke="#1F1F1E" stroke-width="6.68305181" stroke-linecap="round" stroke-linejoin="round" transform="translate(178.327830, 31.262132) rotate(-9.476927) translate(-178.327830, -31.262132) "></path>
                <path d="M190.981796,87.8056499 C194.497483,87.5101137 202.282222,86.8858975 205.746663,86.6125876" id="Path" stroke="#1F1F1E" stroke-width="6.68305181" stroke-linecap="round" stroke-linejoin="round" transform="translate(198.364230, 87.209119) rotate(6.985275) translate(-198.364230, -87.209119) "></path>
                <path d="M86.8853915,144.048424 C87.8968483,141.572368 89.3194902,136.577129 89.4462457,135.42493 C90.0931367,129.535042 91.3277991,109.607594 86.9744072,99.6972299 C85.4925864,96.3221596 82.1166756,88.0017494 75.4398214,89.7029381 C71.7552802,90.6393665 71.1955912,94.9161526 71.0952681,96.6073704 C70.6983607,103.411301 73.3417764,108.727899 78.8986002,113.11958 C83.9076278,117.077563 89.9280085,118.157182 94.2569813,118.599699 C105.105707,119.704038 111.081962,119.611885 119.633009,113.899862 C123.431038,111.358145 128.626204,106.770122 129.698511,102.458318 C130.954653,97.4317927 129.92766,90.889177 123.359503,89.4266346 C117.667681,88.1557139 115.312269,94.9395934 113.941796,98.3998349 C109.742813,109.014889 110.652813,120.486686 112.325038,131.419677 C112.825386,134.681214 113.715666,137.876457 114.277349,141.122389" id="Path" stroke="#FFFFFF" stroke-width="6.68305181" stroke-linecap="round" stroke-linejoin="round" transform="translate(100.609962, 116.659273) rotate(6.781157) translate(-100.609962, -116.659273) "></path>
            </g>
        </g>
    </g>
</svg>