<?xml version="1.0" encoding="UTF-8"?>
<svg width="252px" height="35px" viewBox="0 0 252 35" version="1.1" xmlns="http://www.w3.org/2000/svg" xmlns:xlink="http://www.w3.org/1999/xlink">
    <title>new-york-times</title>
    <g id="Page-1" stroke="none" stroke-width="1" fill="none" fill-rule="evenodd">
        <g id="Artboard" transform="translate(-844.000000, -779.000000)" fill="#000000" fill-rule="nonzero">
            <g id="Group-10" transform="translate(88.000000, 730.000000)">
                <g id="new-york-times" transform="translate(756.000000, 49.000000)">
                    <path d="M14.7780275,0.00207450533 C14.539595,0.0133665072 14.3079447,0.0730952541 14.0845838,0.213799541 C15.0041013,0.395065887 16.0815691,0.516900644 16.6619759,1.34299973 C16.9528575,1.64758662 16.8622773,2.11561039 16.5713956,2.38305254 C16.0214334,3.02937107 15.0770478,3.23218136 14.2693614,3.02565659 C11.5307033,2.3882528 8.94065106,1.14910417 6.12678573,0.826687801 C4.61962702,0.630563558 3.14637937,1.34522841 2.10643985,2.37933806 C1.14637975,3.32875769 0.797321791,4.76997373 0.987374505,6.07152552 C1.19973317,7.1011778 1.97380989,8.1709464 3.09362881,8.32249695 C2.43047898,7.61228946 2.30463122,6.37908399 2.9918956,5.6406465 C3.38074255,5.16519379 4.07177482,5.09981904 4.64600229,5.18748064 C6.82686096,5.58715807 8.95195475,6.2342195 11.1267848,6.66955589 C12.344569,6.99642962 13.5480353,7.38644943 14.7929484,7.60931789 C14.8155557,9.07579234 14.8155557,10.540781 14.7929484,12.0072555 C13.9896328,12.5985998 13.222489,13.2352607 12.434245,13.8459202 C13.2013888,14.4120061 13.9926471,14.9424331 14.7855633,15.47286 C14.8368067,17.5470224 14.7780275,19.6205906 14.8157065,21.6946045 C13.5180428,22.6826546 11.7793845,22.8431199 10.2000329,22.6603678 C8.52241452,22.5683974 7.0333417,21.5831702 5.934623,20.3871095 C7.77652167,19.4183746 9.65368785,18.5046139 11.5376362,17.6162602 C11.6038005,14.3458885 11.5495428,11.0741795 11.5676287,7.80247055 C9.21344679,8.77566282 6.88337941,9.80085773 4.53673329,10.7889079 C5.21495471,9.07876392 6.5946078,7.693265 8.24057584,6.8701375 C7.81088489,6.89539592 7.36024443,6.86419434 6.95949093,7.04843226 C3.87885851,8.24746457 1.34004965,10.8245668 0.384661734,13.9684979 C-0.254373563,15.9653993 -0.0486463977,18.1486187 0.644646613,20.101095 C1.50372708,22.2733196 3.09302595,24.19608 5.20003384,25.2939301 C6.38330415,25.8971607 7.65685326,26.4623551 9.01329611,26.4788474 C11.8211328,26.7091448 14.7750132,25.6647832 16.6696624,23.5815574 C17.4969418,22.7064273 17.9138219,21.5654893 18.3237691,20.461399 C18.7037238,19.3739495 18.8753892,18.2163707 18.8362031,17.0663695 C17.9273863,18.843374 16.7186451,20.5125102 15.0683063,21.69089 C15.0787057,19.6241565 15.0645384,17.5581659 15.0719234,15.4914324 C15.7894817,14.9520907 16.5097529,14.4134919 17.204553,13.8459202 C16.491667,13.2233744 15.7833024,12.6015714 15.0719234,11.9775397 C15.0750885,10.5244373 15.0689091,9.06836339 15.0719234,7.61674683 C16.6770475,7.53354261 18.5240705,6.69852879 18.956625,5.03890166 C19.2580568,3.95576096 19.4155549,2.67278153 18.7418549,1.69216031 C18.1224127,0.996810725 17.3190971,0.392837202 16.3756157,0.224942964 C15.8532345,0.179923535 15.302368,-0.0225896041 14.7780275,0.00207450533 L14.7780275,0.00207450533 Z M7.26845846,9.96800907 C7.26242983,13.1178833 7.28729795,16.2677575 7.25715477,19.4177803 C6.72362059,19.6243051 6.19897864,19.8501451 5.67463812,20.0788081 C4.70704222,18.6986581 4.10568589,17.0737984 3.82836869,15.4245718 C3.75301075,14.0323869 4.01525637,12.6223724 4.50659011,11.3163632 C5.43499988,10.8810269 6.34306301,10.4107744 7.26845846,9.96800907 L7.26845846,9.96800907 Z M191.360511,0.00207450533 C191.101882,-0.00565160122 190.849132,0.0444195124 190.610699,0.213799541 C191.153276,0.337120088 191.7266,0.389865623 192.234512,0.640964086 C192.68666,0.854917806 192.985831,1.29768314 193.142425,1.75530638 C193.226976,2.25007436 192.859229,2.7062118 192.419139,2.89193552 C191.629388,3.25149663 190.733231,3.08508818 189.928559,2.86964867 C187.999245,2.2872191 186.120572,1.53392371 184.152374,1.07927205 C183.14107,0.866804124 182.080784,0.666222511 181.059081,0.930693082 C179.951169,1.23825155 178.826828,1.76124954 178.172872,2.73592759 C177.328712,3.81015356 177.222608,5.28777144 177.634063,6.55069271 C177.973173,7.39313548 178.660438,8.22146325 179.631048,8.3299259 C179.314394,7.92876268 178.769707,7.52388498 178.926451,6.95185593 C179.013867,6.38428426 179.252601,5.80854074 179.713942,5.44006489 C180.175283,5.09684746 180.806632,5.10130483 181.341673,5.25434117 C183.304145,5.61390229 185.219593,6.15695843 187.159457,6.6101243 C188.473699,6.8849954 189.735944,7.36861995 191.05923,7.60931789 C191.081837,9.06984918 191.064505,10.5303805 191.070383,11.9923976 C190.359155,12.6119719 189.647776,13.2308033 188.945289,13.8607781 C189.653654,14.4001198 190.349207,14.9528336 191.066615,15.4802889 C191.077014,17.5590573 191.062998,19.6405002 191.077919,21.7206058 C189.833005,22.640161 188.194724,22.8668925 186.684551,22.6602192 C185.016277,22.5621571 183.557197,21.5727697 182.449435,20.4019674 C182.90309,20.089803 183.421552,19.8893699 183.911379,19.6367857 C185.288922,18.9681803 186.649133,18.2683734 188.037226,17.6235406 C188.080933,14.3503459 188.042501,11.0756653 188.056065,7.80247055 C185.716804,8.78457756 183.395931,9.81274404 181.047777,10.77405 C181.584326,9.51855768 182.441899,8.37004222 183.594725,7.60188894 C183.940015,7.29135888 184.289525,6.96597094 184.762773,6.85899408 C184.289525,6.89168145 183.799698,6.87608066 183.368651,7.09300596 C180.060588,8.41238723 177.239036,11.2903619 176.61658,14.8265415 C176.380107,16.6213754 176.549662,18.4852987 177.185532,20.1865279 C178.000754,22.1834293 179.436474,23.9574622 181.303844,25.089634 C182.197589,25.6260041 183.157649,26.057626 184.159759,26.3561211 C186.559155,26.7498554 189.132779,26.4096096 191.232252,25.1526315 C192.61718,24.2002402 193.90369,22.965549 194.483796,21.3638677 C195.106403,20.0043701 195.356591,18.5193232 195.388091,17.0365051 C195.098717,17.4094383 194.929161,17.8529465 194.683494,18.2511382 C193.886207,19.5705195 192.854557,20.7658373 191.597587,21.679598 C191.612658,19.6069213 191.578747,17.5342447 191.616426,15.461568 C192.327805,14.9549137 192.995326,14.3903136 193.711226,13.8866309 C193.051241,13.2120823 192.302033,12.6296528 191.601204,11.9996779 C191.58764,10.5465756 191.617783,9.09198745 191.586132,7.6388851 C192.965183,7.55122351 194.360058,6.94130683 195.10158,5.74821768 C195.873245,4.52244116 195.868724,2.85241351 195.124037,1.61772225 C194.537752,0.854026332 193.616275,0.362229934 192.663751,0.22107991 C192.236471,0.186906747 191.791407,0.0151494549 191.360511,0.00207450533 L191.360511,0.00207450533 Z M183.790806,9.9642946 C183.808741,13.1082256 183.790806,16.2514138 183.798191,19.3953449 C183.254258,19.6196991 182.716805,19.8566826 182.174228,20.0825226 C181.387491,18.9919529 180.774831,17.7654335 180.459835,16.4609102 C180.111681,14.752252 180.203768,12.9002151 181.009948,11.3237922 C181.944386,10.8839984 182.86526,10.4234036 183.790806,9.9642946 Z M71.7017544,1.04955626 C72.600021,2.60072073 72.0378508,4.70311319 70.6859294,5.82042706 C69.855485,6.35382557 68.8999463,6.64801193 67.9640008,6.94665567 C67.985101,13.2909778 67.9671658,19.6367857 67.9700294,25.9811078 C68.0363444,26.2708368 67.766563,26.498014 67.4893965,26.382271 C66.9421472,26.3570126 66.7974599,25.7879551 66.5653575,25.4046214 C63.1983649,19.3009972 59.8676949,13.176572 56.4734227,7.0863199 C56.4086149,11.5659759 56.4719156,16.0500893 56.4417724,20.5310825 C58.0453893,20.8298748 59.6068057,21.592085 60.6557882,22.8490631 C61.1426004,22.4776156 61.4575966,21.8238682 62.0815603,21.6738034 C61.9233086,21.9575892 61.6927134,22.1907096 61.4726682,22.4285846 C60.2594054,23.7524232 59.049157,25.082205 57.8374013,26.4090152 C57.2753819,25.7106941 56.526324,25.0480319 55.5887205,24.9529413 C54.9722926,24.9291687 54.2595573,24.9603703 53.8102733,25.4402803 C53.2933178,25.894932 52.946822,26.6615995 53.3159252,27.3108896 C53.7484797,28.2424798 54.8366483,28.495064 55.7530008,28.7179325 C54.6075602,28.9408009 53.3251189,28.8100514 52.4012306,28.0537845 C51.6657371,27.4342102 50.9979151,26.6480788 50.8066566,25.6884072 C50.5489325,24.3660544 50.9498367,22.8964598 51.9520973,21.9589264 C53.0479524,20.8906436 54.6544329,20.492452 56.1585773,20.577142 C56.1992705,18.6246657 56.1811846,16.6724866 56.1676202,14.7201589 C55.4366482,14.6057531 54.4404163,14.7082726 54.0997984,15.461568 C53.9023607,16.0722276 54.3667163,16.5863108 54.8262489,16.9206135 C54.256543,16.8225514 53.6235363,16.7155745 53.212082,16.2802381 C52.7267769,15.6903796 52.3499872,14.9935442 52.2098214,14.2417346 C52.0696557,13.2744855 52.3273798,12.1720295 53.1442598,11.5494837 C53.9988188,10.897222 55.1367236,10.8080746 56.1796775,10.8318472 L56.1796775,6.70432336 C55.8013806,6.14418064 55.4381554,5.50231948 54.7887207,5.21259048 C54.3637019,5.03875309 53.8090675,4.97634992 53.442828,5.30322366 C52.9364226,5.72667373 52.8141921,6.39973647 52.6138907,6.98959499 C52.4194672,5.54986475 52.5656616,3.91698185 53.5890224,2.78778166 C54.8248925,1.20987297 57.4398129,1.15192717 58.7917343,2.61097268 C59.3765118,3.20380278 59.7774161,3.93481132 60.1754567,4.65541934 C62.6773401,9.04741376 65.1294874,13.4676382 67.6569925,17.8447747 C67.6720641,14.2149904 67.6795999,10.5823831 67.6539782,6.95245025 C67.2197658,6.7860418 66.7361186,6.79049917 66.2943703,6.63894862 C65.4714617,6.4249949 64.7857045,5.90199691 64.1768123,5.33591103 C63.7970084,5.77570479 63.4140393,6.21401276 63.0600077,6.67312178 C62.977114,6.62854809 62.8128337,6.5408865 62.7300907,6.4963128 C64.0262472,4.88571674 65.4156968,3.34792438 66.7647546,1.77893043 C67.471612,2.51291056 68.3941439,3.11316961 69.4459899,3.18003014 C70.5442565,3.05537239 71.6248893,2.18915698 71.7017544,1.04955626 L71.7017544,1.04955626 Z M155.834519,4.56344895 C157.64311,3.40156139 159.448535,2.2292733 161.263305,1.07630047 C161.278376,7.93173425 161.24974,14.7886538 161.278376,21.6440876 C161.670388,22.1700572 162.205279,22.602422 162.680185,23.0646512 C162.978451,22.7496637 163.288926,22.4480484 163.596537,22.1434615 C163.66873,22.2146309 163.813417,22.3574153 163.887419,22.4272474 C162.439039,23.6647616 161.035875,24.9499697 159.578452,26.174409 C158.660592,25.2457905 157.710932,24.3498593 156.800759,23.4166347 C156.392168,23.7747101 156.018543,24.1671071 155.634218,24.5489551 C155.555695,24.4895235 155.39895,24.369026 155.320729,24.3097429 C156.015378,23.6545097 156.760065,23.0542506 157.462401,22.4049605 C157.456373,17.2091539 157.466923,12.0133472 157.456373,6.81902633 C157.439492,5.84717127 156.937609,4.68379792 155.834519,4.56344895 Z M20.7884257,4.76551636 C22.3453207,3.62145827 23.8720725,2.43579807 25.4304746,1.29619735 C25.4380104,5.07307483 25.4289674,8.85143809 25.4349961,12.6298014 C26.7537599,11.5570612 28.0829232,10.4976931 29.3881227,9.41009503 C30.435598,10.4813494 31.413744,11.6194643 32.4928696,12.6565456 C32.9481823,12.3341292 33.4152508,12.0280565 33.8930201,11.7398133 C33.8072627,12.3385866 33.0806615,12.5436256 32.7038719,12.9611325 C32.7083933,15.0263802 32.7038719,17.0901421 32.705379,19.1553898 C32.7355222,20.6992739 32.5094484,22.2324603 32.4628772,23.7747101 C32.39189,25.4477093 31.7334124,27.1580018 30.410127,28.2558519 C29.333865,29.2039343 27.8630288,29.5455173 26.459864,29.6599232 C26.4357495,29.6926105 26.3845061,29.7594711 26.3588844,29.7934957 L26.3965633,29.6718095 C25.9127654,29.6718095 25.4304746,29.65398 24.9481838,29.618321 C25.5542123,29.3092768 26.2398188,29.1116668 26.7175881,28.6005551 C27.2661939,27.9971759 27.9052292,27.4223238 28.1750106,26.6333695 C28.6166081,25.4298798 28.6301726,24.1327854 28.6738802,22.8698641 C28.6618229,20.0394347 28.6874446,17.2075195 28.6603157,14.3785759 C28.0212804,13.5569341 27.2556438,12.8318688 26.5774224,12.038457 C26.2066613,12.4292197 25.7622002,12.7575793 25.444039,13.1914299 C25.4184173,16.1124925 25.4410247,19.0350409 25.4334889,21.9559549 C25.8179651,22.333494 26.2006327,22.7138562 26.5879725,23.0882752 C26.8985979,22.7807167 27.2089219,22.4716725 27.5193966,22.1626282 C27.5888766,22.2294888 27.7258773,22.3632098 27.7952066,22.4300704 C26.2880479,23.5919579 24.7961115,24.7718235 23.2889528,25.9320767 C22.3349213,25.0970629 21.4034972,24.2382765 20.4645373,23.3869189 C20.1495412,23.6187021 19.834545,23.8534569 19.5180417,24.0836058 C19.4503702,24.0137736 19.3175895,23.8741094 19.2499181,23.8042773 C19.9733543,23.3451683 20.6832261,22.8654068 21.3991265,22.3972344 C21.3976193,17.2029135 21.3976193,12.0100785 21.3991265,6.81575759 C21.3839042,6.41905174 21.4036479,5.9911443 21.1911386,5.63752634 C21.0508221,5.36711261 20.7344695,5.28093681 20.4976948,5.11749994 C20.4447936,4.94529691 20.6949819,4.87249322 20.7884257,4.76551636 L20.7884257,4.76551636 Z M124.59338,2.00789063 C123.17665,3.13857661 121.791572,4.30417865 120.388407,5.45120831 C120.373335,4.36955339 120.407246,3.29012716 120.369567,2.20847224 C120.152687,2.19807172 120.056983,2.29464805 120.086975,2.49820124 C120.079439,10.1440752 120.089386,17.7892062 120.083358,25.4350801 C119.317721,25.2908099 118.550577,25.1401508 117.792477,24.9707708 C117.780419,18.5224434 117.791723,12.0754532 117.788709,5.62578861 C117.772281,4.81009005 117.503856,3.98993412 116.959771,3.36738823 C116.28155,2.5754623 115.221264,2.20772935 114.198054,2.13789723 C112.98464,2.10372407 111.872357,2.73221312 111.025334,3.54196852 C110.246133,4.27149127 109.828047,5.39920567 110.049449,6.44668743 C110.1444,5.79739732 110.35917,5.06564588 110.965048,4.70459898 C111.629705,4.42527051 112.51516,4.65036765 112.91305,5.2654846 C113.253668,5.76173836 113.287579,6.38205557 113.301144,6.96299936 C113.304158,8.7058307 113.299486,10.448662 113.301144,12.1929792 C112.134603,12.2108087 110.75706,12.3965324 110.083209,13.4633294 C109.404988,14.2983432 109.195493,15.4825176 109.661205,16.4646246 C109.967158,17.4363311 110.992026,17.9371908 111.944399,18.0915644 C111.411016,17.7514671 110.868288,17.1526939 111.183284,16.4869115 C111.606946,15.8183061 112.56987,15.720244 113.285771,15.9148824 C113.314407,19.0081481 113.300842,22.100225 113.293306,25.1936393 C112.223224,25.5619665 111.181777,26.2017476 110.610564,27.1957409 C110.194588,27.9044626 110.184038,28.7521056 110.218703,29.5470031 C110.346811,30.9406739 111.279742,32.2131042 112.532191,32.8491708 C113.478687,33.285993 114.544248,33.2993651 115.569116,33.2651919 C118.477932,33.0944747 121.241308,31.9562112 124.156153,31.8612692 C125.024276,31.7972317 125.532942,32.7430854 125.305361,33.4844945 C125.132038,34.1545856 124.562332,34.6077515 124.024276,35 C125.047637,34.7860463 126.066477,34.4071699 126.865271,33.7220723 C127.766552,32.9689254 128.18102,31.7541438 128.123899,30.6130573 C128.056077,29.4838571 127.132188,28.643643 126.172128,28.1577897 C124.907622,27.4267812 123.38087,27.5896238 121.989763,27.7382027 C119.37635,28.0353607 116.829251,28.8532879 114.190217,28.92312 C113.295115,28.9825516 112.459395,28.357777 112.279893,27.4930474 C112.077934,26.659668 112.764444,25.930591 113.459245,25.5726642 C114.963238,24.8728573 116.694361,25.131979 118.263313,25.4575155 C120.082454,25.6448736 121.789311,26.3764765 123.609959,26.5607144 C124.643869,26.676606 125.741985,26.4806303 126.590365,25.8625418 C127.464517,25.3306291 127.858639,24.2941422 127.882603,23.3181269 C127.893304,17.2323322 127.87145,11.1471318 127.894057,5.06148567 C128.457735,4.57860401 129.079287,4.1454963 129.570771,3.58683937 C128.883356,3.75473361 128.452459,4.38990871 127.890289,4.77918562 C126.779363,3.86809936 125.692098,2.93353763 124.59338,2.00789063 L124.59338,2.00789063 Z M121.511089,5.08347536 C122.144096,5.61835966 122.767306,6.16364448 123.398806,6.70298615 C123.400313,8.6196549 123.394284,10.5363236 123.398806,12.4529924 C123.098881,12.7442072 122.771074,13.0517656 122.332491,13.1067399 C121.618098,13.2553188 120.922544,12.9069011 120.384488,12.4715648 C120.387502,10.2339654 120.385995,7.997109 120.384488,5.75950968 C120.761429,5.53664122 121.137465,5.31377276 121.511089,5.08347536 L121.511089,5.08347536 Z M120.384488,13.0027346 C121.310034,13.466301 122.50069,13.6067081 123.398806,13.0064491 C123.395791,13.875636 123.395791,14.7485375 123.398806,15.6177245 C123.034073,15.2670781 122.565498,14.9884925 122.042363,14.9899783 C121.427593,14.9766062 120.862408,15.2626207 120.384488,15.6177245 C120.387502,14.7470517 120.382981,13.8748931 120.384488,13.0027346 Z M122.034827,15.2648494 C122.631662,15.2797073 123.089838,15.7187582 123.398806,16.1823246 C123.394435,18.6086192 123.400463,21.0363996 123.398806,23.4626942 C123.447035,24.2070749 122.927216,24.8437358 122.359017,25.2716432 C121.810411,25.7010364 121.065875,25.7158943 120.39971,25.6802354 C120.362031,22.5110459 120.398053,19.3368047 120.384488,16.1674667 C120.815536,15.7053861 121.361127,15.2559347 122.034827,15.2648494 Z M196.233758,5.96306287 C197.210246,5.11913431 198.129613,4.21280258 199.127503,3.39264665 C199.971511,4.27074838 200.860735,5.1057622 201.718158,5.97049182 C200.688768,6.91991145 199.65335,7.86190214 198.610396,8.79646387 C197.822454,7.84704424 197.011452,6.91991145 196.233758,5.96306287 L196.233758,5.96306287 Z M83.5133573,6.86642302 C84.1237566,6.45337348 84.8954218,6.47863191 85.6009228,6.38948452 C85.0688958,6.80401986 84.4780896,7.28541573 84.4055952,8.00008058 C84.2865297,8.63897016 84.6966276,9.21397079 85.1743969,9.59730453 C86.0440275,10.2837394 87.1608321,10.6670731 87.8691967,11.5466606 C88.2098146,11.9715965 88.4162953,12.5094524 88.4012237,13.0547372 C88.3967022,15.9371693 88.404238,18.8181156 88.3967022,21.6990618 C89.1742454,22.3186361 89.9551043,22.9307815 90.7311404,23.5503558 C90.9572142,23.4062342 91.183288,23.2622612 91.4110197,23.117991 C91.4004696,19.9725742 91.4274477,16.8256715 91.3973045,13.6817405 C90.9980582,13.2166883 90.4449309,12.8838714 89.9881111,12.4693361 C91.1094372,11.4515701 92.2081559,10.4070599 93.3520894,9.4145524 C94.3468141,10.3773441 95.3927823,11.2881332 96.4131287,12.2241808 C96.0257831,12.6281475 95.6272401,13.0215353 95.2179519,13.4038978 C95.2104161,16.1689525 95.2179519,18.9340072 95.2134304,21.6990618 C96.2322697,22.4776156 97.2512597,23.2576552 98.2804984,24.0243227 C98.4253363,23.9409699 98.5715307,23.8594001 98.7207395,23.7776816 C98.7055171,20.4006302 98.7222466,17.0247674 98.7115458,13.6475673 C98.2398051,13.2508615 97.7514857,12.8719851 97.2857736,12.4678503 C98.3859995,11.4426554 99.4997898,10.4352899 100.606044,9.41752398 C101.707777,10.2673957 102.811017,11.1172674 103.906571,11.9745681 C104.286526,11.5615185 104.675373,11.1514406 105.109284,10.7903937 C105.165049,10.8691405 105.279593,11.02812 105.335358,11.1068669 C104.397905,11.9299944 103.466481,12.7635224 102.557664,13.6178515 C102.479141,16.3101025 102.556157,19.0112682 102.519985,21.705005 C100.134153,23.2502263 97.6428195,24.6603893 95.2223226,26.1638599 C93.9456085,25.2619856 92.7053676,24.3110802 91.4452322,23.3884047 C90.3148631,24.2843359 89.1829869,25.1817529 88.0450821,26.0687694 C87.882309,26.2470642 87.7150143,25.987051 87.5808772,25.9127615 C86.5166724,25.0703187 85.4587977,24.2202984 84.3811793,23.3973195 C83.9290316,23.7864478 83.4544274,24.1504663 83.0007726,24.5397432 C82.928429,24.4713969 82.7867561,24.33619 82.7144124,24.2693295 C83.2675397,23.8920875 83.8086097,23.495233 84.3617369,23.1178424 C84.3649019,20.5073099 84.3649019,17.8982631 84.3617369,15.2877306 C84.3602298,14.5894094 84.1115486,13.8821735 83.6277506,13.3651187 C83.0957236,12.7960612 82.3798232,12.3963838 81.9563116,11.7292642 C81.4875852,10.953682 81.4453848,9.99237602 81.6247367,9.12601203 C81.887133,8.14717376 82.6755277,7.40130732 83.5133573,6.86642302 Z M251.25123,8.73108913 C251.359746,9.00447443 251.39426,9.30980422 251.258615,9.58170374 C250.925684,10.3320276 250.018375,10.6202708 249.246559,10.6068987 C248.438872,10.5355807 247.808729,9.96280881 247.264645,9.42198135 C246.351307,10.025212 245.433598,10.6239852 244.521767,11.2272159 C243.46977,11.925537 242.308353,12.4411061 241.141813,12.9210161 C241.137442,14.3978911 241.143169,15.8717945 241.138195,17.3486695 C241.98974,18.0484765 242.865399,18.7170819 243.700365,19.4362041 C243.059823,20.1048095 242.428323,20.7829239 241.823953,21.4827308 C241.203154,22.2196825 240.616718,23.0710401 240.580547,24.0607246 C240.544375,25.1853188 241.032694,26.4030721 242.042491,26.9987252 C242.48861,27.2572526 243.031187,27.48755 243.549649,27.2884542 C242.904585,27.0611284 242.111066,26.6005335 242.166831,25.8249513 C242.346032,25.0909712 243.230132,24.5999177 243.964118,24.8108998 C244.725233,25.0248535 245.353718,25.5612236 245.840531,26.1629685 C247.796823,24.7737551 249.857109,23.5323778 251.997274,22.4373507 C251.980846,20.5639185 252.0238,18.6857317 251.978434,16.8136366 C251.033446,16.1598892 250.132165,15.447453 249.197877,14.7818192 C250.186573,13.5471279 251.181147,12.2411188 251.594109,10.6958975 C251.747688,10.0437843 251.799685,9.22139973 251.25123,8.73108913 L251.25123,8.73108913 Z M244.951156,11.5392317 C245.585821,12.4381345 246.425911,13.3125217 247.577531,13.4967597 C248.724328,13.762716 249.835858,13.1498278 250.588081,12.3341292 C249.558691,14.2106816 247.961856,15.7172724 246.311518,17.0663695 C245.865399,16.5998315 245.385369,16.165238 244.943922,15.6957285 C244.961706,14.3109724 244.946635,12.9239877 244.951156,11.5392317 L244.951156,11.5392317 Z M246.567584,17.140659 C247.061932,17.5507369 247.550402,17.9680953 248.044599,18.3812934 C248.270673,18.5150144 248.160048,18.7943429 248.191547,19.0053251 C248.177983,20.6144353 248.212045,22.2287459 248.172708,23.8378561 C247.803605,23.01458 247.250478,22.248804 246.469769,21.7613164 C245.337742,21.0319422 243.781601,20.9895972 242.630132,21.6981704 C242.102626,21.986265 241.680622,22.4165497 241.281225,22.8533719 C241.852438,21.7538875 242.775573,20.8861863 243.643847,20.0153649 C244.635557,19.0736714 245.627117,18.1331665 246.567584,17.140659 Z M43.0484064,9.41826687 C41.7462213,10.1611617 40.4878945,10.97166 39.2128382,11.7546712 C38.1320547,12.3103566 37.0342403,12.8348403 35.945921,13.374182 C35.9504424,16.3829062 35.9415502,19.3916304 35.9536075,22.4003546 C35.4894026,22.7556069 34.9474283,23.0110141 34.5254239,23.4182669 C34.6068104,23.4656658 34.7680764,23.5623907 34.849463,23.6114218 C35.2141954,23.3008917 35.5750092,22.9844185 35.9760641,22.7199479 C37.3249712,23.8252269 38.5979175,25.0221791 39.9436595,26.1335498 C40.0098237,26.0995252 40.143358,26.030436 40.2111801,25.9961143 C42.4898534,24.2547687 44.7921891,22.5394245 47.0723695,20.7995647 L46.7897772,20.5544094 C45.5207496,21.5290875 44.2863866,22.5551739 43.0294162,23.5445612 C41.9909839,22.6233716 40.9864626,21.6657801 39.9510445,20.7401331 C39.5983694,20.4860631 39.7958072,20.0039243 39.7701855,19.6443632 C41.8967865,18.1095424 44.0242917,16.5739788 46.1190916,14.9975559 C45.0732742,13.1490849 44.0612171,11.2844188 43.0484064,9.41826687 L43.0484064,9.41826687 Z M39.7628004,11.635808 C40.8389117,13.3786394 41.9202981,15.1155276 42.9843522,16.8657879 C41.9022122,17.6161117 40.8291152,18.3753502 39.7591832,19.1390461 C39.7484824,16.638462 39.7432074,14.1363921 39.7628004,11.635808 L39.7628004,11.635808 Z M78.2933131,9.4145524 C77.3754534,10.0103541 76.4515651,10.5987268 75.5126052,11.1603553 C74.1397343,12.0072555 72.6514151,12.6446593 71.213435,13.374182 C71.2179564,16.3814204 71.2051456,19.3894017 71.2172029,22.3966401 C70.7742489,22.722028 70.2844223,22.9798126 69.8532242,23.3215442 C69.898439,23.4002911 69.9926364,23.5585277 70.0378512,23.6372745 C70.5156205,23.3208013 70.9873612,22.9961563 71.4771877,22.6975125 C72.7115507,23.8608859 73.9639996,25.0065783 75.2074056,26.1595512 C77.5331022,24.4566875 79.8147898,22.6932037 82.117879,20.9592871 C82.4132821,20.8998555 82.1706296,20.4273744 81.9822347,20.609978 C80.7343073,21.563855 79.523456,22.566763 78.2934638,23.5444127 C77.3288822,22.6009362 76.3710828,21.6531509 75.4110227,20.7065543 C75.1003973,20.4376263 75.2844214,19.9889179 75.2678426,19.6367857 C77.3145642,18.1391096 79.2979851,16.5560007 81.3492281,15.0642678 C80.4040888,13.1475991 79.2985879,11.3029911 78.2933131,9.4145524 Z M75.2413166,11.6952396 C76.2963277,13.3890399 77.2631701,15.1393002 78.2367946,16.8806458 C77.2315197,17.6071969 76.2601559,18.3783218 75.2637733,19.1167593 C75.2172021,16.6444052 75.263924,14.1690795 75.2413166,11.6952396 Z M137.743339,9.42198135 C136.736557,9.99995355 135.743189,10.5957552 134.766701,11.2197869 C133.619753,11.9091933 132.3664,12.3987611 131.145752,12.9395885 C131.174388,16.0954059 131.154041,19.2519662 131.157056,22.4079321 C130.748616,22.8089467 130.336408,23.2087728 129.940025,23.6187021 C130.02307,23.6142448 130.188706,23.6023585 130.2716,23.5965639 C130.560975,23.2918284 130.862406,22.9946705 131.160824,22.6975125 C132.530831,23.8029401 133.880492,24.9322888 135.241456,26.0481169 C135.465872,26.2619221 135.719979,25.9433687 135.938517,25.8659591 C138.126911,24.6862421 140.194582,23.2962858 142.449292,22.2369177 C142.483956,19.2965398 142.459842,16.3569049 142.464514,13.4150412 C142.871447,13.013878 143.283655,12.6142006 143.681545,12.2041226 C143.601665,12.2056084 143.442509,12.2122944 143.361274,12.215266 C142.981319,12.5228245 142.597144,12.8222111 142.215682,13.1253122 C140.723746,11.8921068 139.23829,10.6492437 137.743339,9.42198135 L137.743339,9.42198135 Z M135.192323,11.6023778 C136.268585,12.5993427 137.364138,13.5814497 138.4404,14.5813862 C138.42985,17.7119451 138.432865,20.8410183 138.432865,23.9715772 C137.329624,23.0177002 136.281998,22.006026 135.192473,21.0371425 L135.192323,11.6023778 L135.192323,11.6023778 Z" id="Shape"></path>
                    <path d="M161.451549,16.4349088 C163.003922,14.0858753 164.589453,11.7576428 166.181013,9.43238187 C166.870433,10.009609 167.72126,10.3670807 168.621103,10.4575768 C169.501284,10.4590626 170.251698,9.94349354 170.914998,9.42792451 C170.747704,10.6953031 170.319671,12.0117128 169.332482,12.8927861 C168.471894,13.67134 167.166695,13.8585495 166.083048,13.4781873 C165.444012,13.2642336 164.853206,12.9284451 164.324043,12.5168813 C164.230599,12.7338066 164.153734,12.9581609 164.097969,13.1869725 C166.301435,16.4586815 168.465715,19.7601062 170.630145,23.0585594 C171.127357,22.7406004 171.562926,22.3392886 172.00166,21.9486745 C172.087568,22.0020143 172.257726,22.1091398 172.343785,22.1624796 C170.78689,23.530892 169.180259,24.8443301 167.584178,26.1696545 C165.532935,22.9292957 163.526906,19.6605583 161.451549,16.4349088 L161.451549,16.4349088 Z M235.995016,9.41826687 C235.036313,9.99326749 234.073992,10.5675252 233.127647,11.1603553 C231.817926,12.0577723 230.316042,12.6164293 228.926442,13.374182 C228.941513,16.3814204 228.926442,19.3908875 228.933827,22.3966401 C228.45455,22.7086559 227.981453,23.0264664 227.502026,23.3326876 C227.56382,23.4069771 227.688914,23.5592706 227.750707,23.63356 C228.163669,23.3319447 228.536691,22.9738694 228.98296,22.7123704 C230.226366,23.8519711 231.526893,24.9299116 232.788536,26.0516828 C232.908958,26.2418639 233.084693,26.0472254 233.206622,25.9699644 C235.479417,24.2434767 237.758241,22.5273896 240.034051,20.8068451 C239.767284,20.3462503 239.464496,20.7927301 239.197578,20.9814254 C238.129002,21.8388746 237.062687,22.6952838 235.991248,23.5481271 C234.895393,22.5630485 233.837368,21.5415681 232.720563,20.5801136 C232.703533,20.2708305 232.702326,19.9608979 232.716946,19.651495 C234.849576,18.1285605 236.957488,16.5699671 239.073388,15.0234086 C238.054398,13.1498278 237.031791,11.2799614 235.995016,9.41826687 L235.995016,9.41826687 Z M232.705492,11.6878107 C233.858468,13.3682388 234.871429,15.1437576 235.953569,16.8732168 C234.856358,17.6147745 233.789289,18.3991229 232.698107,19.1464751 C232.716042,16.6607489 232.699614,14.1735369 232.705492,11.6878107 L232.705492,11.6878107 Z M148.040851,9.66565086 C148.903096,10.4397473 149.627889,11.3520222 150.428341,12.1885218 C151.299478,11.3653943 152.151023,10.5184942 152.992018,9.66416507 C153.603924,10.0504704 154.241452,10.5927836 155.026682,10.4367757 C155.579809,10.399631 155.867677,9.86474668 156.337916,9.64633559 C156.339417,10.7829647 156.074157,11.9775397 155.311384,12.8600988 C154.437232,13.8912368 152.783879,14.1928521 151.614475,13.4856162 C151.165341,13.2701767 150.866773,12.8571272 150.447934,12.6030571 C150.458333,15.7113292 150.453812,18.8181156 150.450948,21.9263877 C151.071898,22.397383 151.694354,22.8668925 152.333389,23.315601 C152.797594,23.0154715 153.15464,22.4627577 153.741076,22.4107551 C152.363382,23.7033922 150.919674,24.9336261 149.483352,26.1653457 C148.404227,25.1624377 147.300986,24.184788 146.233767,23.1701422 C145.817792,23.5384695 145.433466,23.9397813 145.037234,24.3275724 C144.973933,24.2547687 144.847332,24.1104985 144.784031,24.0378434 C145.307015,23.4643286 145.890286,22.9472738 146.425327,22.3841595 C146.405734,19.7245959 146.435877,17.0650323 146.411763,14.4069544 C146.125403,13.7353775 145.62804,13.1529479 145.267829,12.5110868 C144.774838,12.7978442 144.416285,13.3951316 143.802871,13.4159327 C145.196993,12.1454339 146.654415,10.94343 148.040851,9.66565086 L148.040851,9.66565086 Z M203.966989,12.9908483 C205.249581,11.8839349 206.505044,10.7487916 207.795172,9.65079296 C208.720568,10.6566726 209.677614,11.6343222 210.58643,12.6550598 C211.948902,11.6848391 213.257266,10.6418147 214.606023,9.65079296 C215.551162,10.6492437 216.477914,11.664038 217.431945,12.6550598 C218.768795,11.6566091 220.089217,10.6373573 221.435109,9.65227875 C222.354476,10.6626158 223.302479,11.6476944 224.232547,12.6491166 C224.802102,12.2910413 225.325237,11.8616481 225.905493,11.5184306 C225.949201,11.8512475 225.64174,12.0027981 225.427724,12.187036 C225.117098,12.4336771 224.815666,12.6922045 224.505342,12.9373598 C224.47957,15.7039003 224.511371,18.4704408 224.488764,21.2368326 C225.023726,21.7840948 225.56942,22.3210614 226.125538,22.8474287 C226.419434,22.545962 226.720866,22.2501412 227.007226,21.941097 C227.093134,21.9945854 227.266457,22.1000765 227.352365,22.1535649 C225.946186,23.5190057 224.49645,24.8429929 223.052592,26.1696545 C222.03526,24.9854801 220.968192,23.8399362 219.974823,22.6349608 C220.216119,22.4165497 220.451086,22.1892239 220.683188,21.9605608 C220.686202,19.5742339 220.683188,17.1880556 220.683188,14.8033631 C219.914537,13.9580974 219.1489,13.1095629 218.356286,12.2865839 C218.127047,12.5168813 217.897959,12.745693 217.671885,12.9773276 C217.668871,15.9607933 217.683942,18.9442591 217.664349,21.9277249 C218.04566,22.3496891 218.4752,22.7270797 218.86254,23.1475582 C217.821094,24.0583473 216.817326,25.0122243 215.782059,25.9319282 C214.814821,24.9291015 213.862695,23.9122146 212.925993,22.8816019 C213.19276,22.5576997 213.72765,22.3229449 213.6434,21.8296627 C213.631343,19.502916 213.655458,17.1746835 213.631343,14.8495712 C212.986279,13.9640405 212.262843,13.1067399 211.515292,12.2984702 C211.296905,12.5272819 211.075202,12.7516361 210.852142,12.9759904 C210.858322,15.8658514 210.835714,18.7571982 210.862692,21.6470592 C211.179196,22.1788233 211.650936,22.6143083 212.044305,23.0940698 C211.033001,24.1417001 209.98854,25.1593175 208.935036,26.1651972 C207.928254,24.9826571 206.885301,23.8311701 205.870983,22.6559104 C206.187637,22.4135781 206.507004,22.1745145 206.825014,21.9323308 C206.815971,19.4910297 206.806928,17.04854 206.829536,14.6073875 C206.235866,13.8823221 205.584623,13.204802 204.960659,12.504995 C204.517705,12.8288972 204.127351,13.2360036 203.620795,13.4648152 C203.596228,13.2374894 203.823809,13.1290267 203.966989,12.9908483 L203.966989,12.9908483 Z" id="Shape"></path>
                    <path d="M195.046267,13.1825151 C196.372567,11.9849686 197.745589,10.8334816 199.085453,9.64930717 C200.039484,10.7190758 200.966236,11.812617 201.915897,12.886843 C202.408738,12.5064808 202.850185,12.0548007 203.395776,11.7412991 C203.355083,11.9121649 203.308512,12.0889739 203.147246,12.1855502 C202.738655,12.5198529 202.33338,12.8556414 201.921775,13.1810293 C201.927954,15.9520272 201.909718,18.7215392 201.930968,21.4925371 C202.467668,22.0898245 203.022151,22.6752257 203.522679,23.3050519 C203.940162,23.0541021 204.288315,22.710736 204.686205,22.4315562 C204.770606,22.4759813 204.940764,22.5637914 205.025316,22.6068793 C203.700524,23.8311701 202.325995,25.004944 200.945437,26.1651972 C200.027578,25.0777477 199.085604,24.0078305 198.146794,22.9367247 C197.738204,23.3022289 197.397586,23.7449943 196.95011,24.0629533 C196.88681,24.0050075 196.760208,23.8861443 196.696757,23.8267127 C197.094798,23.4552653 197.47008,23.0600452 197.873999,22.6915694 C197.905649,20.1746416 197.875506,17.6547422 197.88907,15.1376658 C197.864956,14.7870195 197.97965,14.3724841 197.702333,14.0931557 C197.210849,13.4914108 196.758701,12.8584644 196.235868,12.2834638 C195.846569,12.5941424 195.477164,12.9314167 195.046267,13.1825151 L195.046267,13.1825151 Z" id="Path"></path>
                </g>
            </g>
        </g>
    </g>
</svg>