<?xml version="1.0" encoding="UTF-8"?>
<svg width="675px" height="359px" viewBox="0 0 675 359" version="1.1" xmlns="http://www.w3.org/2000/svg" xmlns:xlink="http://www.w3.org/1999/xlink">
    <title>quit-screwing-around</title>
    <defs>
        <path d="M242.822637,70.9969077 C237.679556,80.7715111 229.652855,89.6483828 221.800918,97.5459107 C220.739846,98.6194221 216.04616,104.520596 214.323477,103.654253 C212.58207,102.781633 209.611067,99.6113215 208.1006,98.0858053 C202.589263,92.542469 197.876853,87.5892499 192.365518,82.0396357 C189.769011,79.4343303 187.603175,77.4944765 184.888077,74.9896167 C184.226468,74.3806657 181.561303,71.7314155 181.604994,71.8883616 C182.485061,75.2218969 185.942908,81.0351806 187.403443,83.9732117 C189.787735,88.7632068 193.276792,94.1747085 195.423903,98.9709813 C199.749334,108.626306 204.349396,115.305932 208.481337,123.630353 C209.130464,124.923589 202.008795,130.391591 201.010138,131.144932 C194.019542,136.418322 187.278612,141.641488 179.751237,146.186647 C178.796272,146.76421 172.872991,150.832252 172.042858,150.411636 C170.713397,149.746185 169.87078,147.109491 169.003197,145.948089 C165.364342,141.063927 163.186023,135.570813 160.127638,130.441814 C150.609193,114.489812 142.526318,98.1988065 133.032838,82.2781937 C129.30036,76.0191831 126.173317,63.9092217 119.713258,60.6572983 C117.934401,59.7658445 114.595143,60.1801822 112.572864,60.2115714 C107.997769,60.2743499 103.354016,60.0483474 101.81234,60.7263546 C95.9140249,63.3253822 88.567658,68.0777101 82.3385382,70.7646274 C67.5646635,77.1303614 50.0756915,82.6862535 33.7476578,80.6333985 C27.106592,79.7984453 22.6063962,76.4397987 16.9265373,73.5833795 C12.4388247,71.3233556 7.14594527,66.6589173 4.54943837,62.3020936 C2.55212537,58.9622805 1.51601926,54.8063475 0.342597871,51.2593656 C-2.13531856,43.7824532 9.46782163,44.7869083 14.5921779,44.2093466 C30.8265875,42.3950497 47.5291175,36.9270473 62.9458772,31.7603816 C78.818274,26.4367698 96.0014074,21.3642716 110.837698,13.8999149 C119.039164,9.77537126 133.794315,3.22130194 142.88833,1.35678222 C148.318525,0.239325957 160.864148,-1.63774945 172.042858,2.85718698 C180.075802,6.09027673 186.173848,13.7806358 192.134579,19.775977 C201.010138,28.7093493 209.685967,38.1386713 218.530319,47.0343764 C227.093797,55.6475788 234.920768,63.8087761 242.822637,70.9969077 Z" id="path-1"></path>
        <path d="M242.822637,70.9969077 C237.679556,80.7715111 229.652855,89.6483828 221.800918,97.5459107 C220.739846,98.6194221 216.04616,104.520596 214.323477,103.654253 C212.58207,102.781633 209.611067,99.6113215 208.1006,98.0858053 C202.589263,92.542469 197.876853,87.5892499 192.365518,82.0396357 C189.769011,79.4343303 187.603175,77.4944765 184.888077,74.9896167 C184.226468,74.3806657 181.561303,71.7314155 181.604994,71.8883616 C182.485061,75.2218969 185.942908,81.0351806 187.403443,83.9732117 C189.787735,88.7632068 193.276792,94.1747085 195.423903,98.9709813 C199.749334,108.626306 204.349396,115.305932 208.481337,123.630353 C209.130464,124.923589 202.008795,130.391591 201.010138,131.144932 C194.019542,136.418322 187.278612,141.641488 179.751237,146.186647 C178.796272,146.76421 172.872991,150.832252 172.042858,150.411636 C170.713397,149.746185 169.87078,147.109491 169.003197,145.948089 C165.364342,141.063927 163.186023,135.570813 160.127638,130.441814 C150.609193,114.489812 142.526318,98.1988065 133.032838,82.2781937 C129.30036,76.0191831 126.173317,63.9092217 119.713258,60.6572983 C117.934401,59.7658445 114.595143,60.1801822 112.572864,60.2115714 C107.997769,60.2743499 103.354016,60.0483474 101.81234,60.7263546 C95.9140249,63.3253822 88.567658,68.0777101 82.3385382,70.7646274 C67.5646635,77.1303614 50.0756915,82.6862535 33.7476578,80.6333985 C27.106592,79.7984453 22.6063962,76.4397987 16.9265373,73.5833795 C12.4388247,71.3233556 7.14594527,66.6589173 4.54943837,62.3020936 C2.55212537,58.9622805 1.51601926,54.8063475 0.342597871,51.2593656 C-2.13531856,43.7824532 9.46782163,44.7869083 14.5921779,44.2093466 C30.8265875,42.3950497 47.5291175,36.9270473 62.9458772,31.7603816 C78.818274,26.4367698 96.0014074,21.3642716 110.837698,13.8999149 C119.039164,9.77537126 133.794315,3.22130194 142.88833,1.35678222 C148.318525,0.239325957 160.864148,-1.63774945 172.042858,2.85718698 C180.075802,6.09027673 186.173848,13.7806358 192.134579,19.775977 C201.010138,28.7093493 209.685967,38.1386713 218.530319,47.0343764 C227.093797,55.6475788 234.920768,63.8087761 242.822637,70.9969077 Z" id="path-3"></path>
        <path d="M242.822637,70.9969077 C237.679556,80.7715111 229.652855,89.6483828 221.800918,97.5459107 C220.739846,98.6194221 216.04616,104.520596 214.323477,103.654253 C212.58207,102.781633 209.611067,99.6113215 208.1006,98.0858053 C202.589263,92.542469 197.876853,87.5892499 192.365518,82.0396357 C189.769011,79.4343303 187.603175,77.4944765 184.888077,74.9896167 C184.226468,74.3806657 181.561303,71.7314155 181.604994,71.8883616 C182.485061,75.2218969 185.942908,81.0351806 187.403443,83.9732117 C189.787735,88.7632068 193.276792,94.1747085 195.423903,98.9709813 C199.749334,108.626306 204.349396,115.305932 208.481337,123.630353 C209.130464,124.923589 202.008795,130.391591 201.010138,131.144932 C194.019542,136.418322 187.278612,141.641488 179.751237,146.186647 C178.796272,146.76421 172.872991,150.832252 172.042858,150.411636 C170.713397,149.746185 169.87078,147.109491 169.003197,145.948089 C165.364342,141.063927 163.186023,135.570813 160.127638,130.441814 C150.609193,114.489812 142.526318,98.1988065 133.032838,82.2781937 C129.30036,76.0191831 126.173317,63.9092217 119.713258,60.6572983 C117.934401,59.7658445 114.595143,60.1801822 112.572864,60.2115714 C107.997769,60.2743499 103.354016,60.0483474 101.81234,60.7263546 C95.9140249,63.3253822 88.567658,68.0777101 82.3385382,70.7646274 C67.5646635,77.1303614 50.0756915,82.6862535 33.7476578,80.6333985 C27.106592,79.7984453 22.6063962,76.4397987 16.9265373,73.5833795 C12.4388247,71.3233556 7.14594527,66.6589173 4.54943837,62.3020936 C2.55212537,58.9622805 1.51601926,54.8063475 0.342597871,51.2593656 C-2.13531856,43.7824532 9.46782163,44.7869083 14.5921779,44.2093466 C30.8265875,42.3950497 47.5291175,36.9270473 62.9458772,31.7603816 C78.818274,26.4367698 96.0014074,21.3642716 110.837698,13.8999149 C119.039164,9.77537126 133.794315,3.22130194 142.88833,1.35678222 C148.318525,0.239325957 160.864148,-1.63774945 172.042858,2.85718698 C180.075802,6.09027673 186.173848,13.7806358 192.134579,19.775977 C201.010138,28.7093493 209.685967,38.1386713 218.530319,47.0343764 C227.093797,55.6475788 234.920768,63.8087761 242.822637,70.9969077 Z" id="path-5"></path>
        <path d="M242.822637,70.9969077 C237.679556,80.7715111 229.652855,89.6483828 221.800918,97.5459107 C220.739846,98.6194221 216.04616,104.520596 214.323477,103.654253 C212.58207,102.781633 209.611067,99.6113215 208.1006,98.0858053 C202.589263,92.542469 197.876853,87.5892499 192.365518,82.0396357 C189.769011,79.4343303 187.603175,77.4944765 184.888077,74.9896167 C184.226468,74.3806657 181.561303,71.7314155 181.604994,71.8883616 C182.485061,75.2218969 185.942908,81.0351806 187.403443,83.9732117 C189.787735,88.7632068 193.276792,94.1747085 195.423903,98.9709813 C199.749334,108.626306 204.349396,115.305932 208.481337,123.630353 C209.130464,124.923589 202.008795,130.391591 201.010138,131.144932 C194.019542,136.418322 187.278612,141.641488 179.751237,146.186647 C178.796272,146.76421 172.872991,150.832252 172.042858,150.411636 C170.713397,149.746185 169.87078,147.109491 169.003197,145.948089 C165.364342,141.063927 163.186023,135.570813 160.127638,130.441814 C150.609193,114.489812 142.526318,98.1988065 133.032838,82.2781937 C129.30036,76.0191831 126.173317,63.9092217 119.713258,60.6572983 C117.934401,59.7658445 114.595143,60.1801822 112.572864,60.2115714 C107.997769,60.2743499 103.354016,60.0483474 101.81234,60.7263546 C95.9140249,63.3253822 88.567658,68.0777101 82.3385382,70.7646274 C67.5646635,77.1303614 50.0756915,82.6862535 33.7476578,80.6333985 C27.106592,79.7984453 22.6063962,76.4397987 16.9265373,73.5833795 C12.4388247,71.3233556 7.14594527,66.6589173 4.54943837,62.3020936 C2.55212537,58.9622805 1.51601926,54.8063475 0.342597871,51.2593656 C-2.13531856,43.7824532 9.46782163,44.7869083 14.5921779,44.2093466 C30.8265875,42.3950497 47.5291175,36.9270473 62.9458772,31.7603816 C78.818274,26.4367698 96.0014074,21.3642716 110.837698,13.8999149 C119.039164,9.77537126 133.794315,3.22130194 142.88833,1.35678222 C148.318525,0.239325957 160.864148,-1.63774945 172.042858,2.85718698 C180.075802,6.09027673 186.173848,13.7806358 192.134579,19.775977 C201.010138,28.7093493 209.685967,38.1386713 218.530319,47.0343764 C227.093797,55.6475788 234.920768,63.8087761 242.822637,70.9969077 Z" id="path-7"></path>
        <path d="M242.822637,70.9969077 C237.679556,80.7715111 229.652855,89.6483828 221.800918,97.5459107 C220.739846,98.6194221 216.04616,104.520596 214.323477,103.654253 C212.58207,102.781633 209.611067,99.6113215 208.1006,98.0858053 C202.589263,92.542469 197.876853,87.5892499 192.365518,82.0396357 C189.769011,79.4343303 187.603175,77.4944765 184.888077,74.9896167 C184.226468,74.3806657 181.561303,71.7314155 181.604994,71.8883616 C182.485061,75.2218969 185.942908,81.0351806 187.403443,83.9732117 C189.787735,88.7632068 193.276792,94.1747085 195.423903,98.9709813 C199.749334,108.626306 204.349396,115.305932 208.481337,123.630353 C209.130464,124.923589 202.008795,130.391591 201.010138,131.144932 C194.019542,136.418322 187.278612,141.641488 179.751237,146.186647 C178.796272,146.76421 172.872991,150.832252 172.042858,150.411636 C170.713397,149.746185 169.87078,147.109491 169.003197,145.948089 C165.364342,141.063927 163.186023,135.570813 160.127638,130.441814 C150.609193,114.489812 142.526318,98.1988065 133.032838,82.2781937 C129.30036,76.0191831 126.173317,63.9092217 119.713258,60.6572983 C117.934401,59.7658445 114.595143,60.1801822 112.572864,60.2115714 C107.997769,60.2743499 103.354016,60.0483474 101.81234,60.7263546 C95.9140249,63.3253822 88.567658,68.0777101 82.3385382,70.7646274 C67.5646635,77.1303614 50.0756915,82.6862535 33.7476578,80.6333985 C27.106592,79.7984453 22.6063962,76.4397987 16.9265373,73.5833795 C12.4388247,71.3233556 7.14594527,66.6589173 4.54943837,62.3020936 C2.55212537,58.9622805 1.51601926,54.8063475 0.342597871,51.2593656 C-2.13531856,43.7824532 9.46782163,44.7869083 14.5921779,44.2093466 C30.8265875,42.3950497 47.5291175,36.9270473 62.9458772,31.7603816 C78.818274,26.4367698 96.0014074,21.3642716 110.837698,13.8999149 C119.039164,9.77537126 133.794315,3.22130194 142.88833,1.35678222 C148.318525,0.239325957 160.864148,-1.63774945 172.042858,2.85718698 C180.075802,6.09027673 186.173848,13.7806358 192.134579,19.775977 C201.010138,28.7093493 209.685967,38.1386713 218.530319,47.0343764 C227.093797,55.6475788 234.920768,63.8087761 242.822637,70.9969077 Z" id="path-9"></path>
        <path d="M242.822637,70.9969077 C237.679556,80.7715111 229.652855,89.6483828 221.800918,97.5459107 C220.739846,98.6194221 216.04616,104.520596 214.323477,103.654253 C212.58207,102.781633 209.611067,99.6113215 208.1006,98.0858053 C202.589263,92.542469 197.876853,87.5892499 192.365518,82.0396357 C189.769011,79.4343303 187.603175,77.4944765 184.888077,74.9896167 C184.226468,74.3806657 181.561303,71.7314155 181.604994,71.8883616 C182.485061,75.2218969 185.942908,81.0351806 187.403443,83.9732117 C189.787735,88.7632068 193.276792,94.1747085 195.423903,98.9709813 C199.749334,108.626306 204.349396,115.305932 208.481337,123.630353 C209.130464,124.923589 202.008795,130.391591 201.010138,131.144932 C194.019542,136.418322 187.278612,141.641488 179.751237,146.186647 C178.796272,146.76421 172.872991,150.832252 172.042858,150.411636 C170.713397,149.746185 169.87078,147.109491 169.003197,145.948089 C165.364342,141.063927 163.186023,135.570813 160.127638,130.441814 C150.609193,114.489812 142.526318,98.1988065 133.032838,82.2781937 C129.30036,76.0191831 126.173317,63.9092217 119.713258,60.6572983 C117.934401,59.7658445 114.595143,60.1801822 112.572864,60.2115714 C107.997769,60.2743499 103.354016,60.0483474 101.81234,60.7263546 C95.9140249,63.3253822 88.567658,68.0777101 82.3385382,70.7646274 C67.5646635,77.1303614 50.0756915,82.6862535 33.7476578,80.6333985 C27.106592,79.7984453 22.6063962,76.4397987 16.9265373,73.5833795 C12.4388247,71.3233556 7.14594527,66.6589173 4.54943837,62.3020936 C2.55212537,58.9622805 1.51601926,54.8063475 0.342597871,51.2593656 C-2.13531856,43.7824532 9.46782163,44.7869083 14.5921779,44.2093466 C30.8265875,42.3950497 47.5291175,36.9270473 62.9458772,31.7603816 C78.818274,26.4367698 96.0014074,21.3642716 110.837698,13.8999149 C119.039164,9.77537126 133.794315,3.22130194 142.88833,1.35678222 C148.318525,0.239325957 160.864148,-1.63774945 172.042858,2.85718698 C180.075802,6.09027673 186.173848,13.7806358 192.134579,19.775977 C201.010138,28.7093493 209.685967,38.1386713 218.530319,47.0343764 C227.093797,55.6475788 234.920768,63.8087761 242.822637,70.9969077 Z" id="path-11"></path>
        <path d="M242.822637,70.9969077 C237.679556,80.7715111 229.652855,89.6483828 221.800918,97.5459107 C220.739846,98.6194221 216.04616,104.520596 214.323477,103.654253 C212.58207,102.781633 209.611067,99.6113215 208.1006,98.0858053 C202.589263,92.542469 197.876853,87.5892499 192.365518,82.0396357 C189.769011,79.4343303 187.603175,77.4944765 184.888077,74.9896167 C184.226468,74.3806657 181.561303,71.7314155 181.604994,71.8883616 C182.485061,75.2218969 185.942908,81.0351806 187.403443,83.9732117 C189.787735,88.7632068 193.276792,94.1747085 195.423903,98.9709813 C199.749334,108.626306 204.349396,115.305932 208.481337,123.630353 C209.130464,124.923589 202.008795,130.391591 201.010138,131.144932 C194.019542,136.418322 187.278612,141.641488 179.751237,146.186647 C178.796272,146.76421 172.872991,150.832252 172.042858,150.411636 C170.713397,149.746185 169.87078,147.109491 169.003197,145.948089 C165.364342,141.063927 163.186023,135.570813 160.127638,130.441814 C150.609193,114.489812 142.526318,98.1988065 133.032838,82.2781937 C129.30036,76.0191831 126.173317,63.9092217 119.713258,60.6572983 C117.934401,59.7658445 114.595143,60.1801822 112.572864,60.2115714 C107.997769,60.2743499 103.354016,60.0483474 101.81234,60.7263546 C95.9140249,63.3253822 88.567658,68.0777101 82.3385382,70.7646274 C67.5646635,77.1303614 50.0756915,82.6862535 33.7476578,80.6333985 C27.106592,79.7984453 22.6063962,76.4397987 16.9265373,73.5833795 C12.4388247,71.3233556 7.14594527,66.6589173 4.54943837,62.3020936 C2.55212537,58.9622805 1.51601926,54.8063475 0.342597871,51.2593656 C-2.13531856,43.7824532 9.46782163,44.7869083 14.5921779,44.2093466 C30.8265875,42.3950497 47.5291175,36.9270473 62.9458772,31.7603816 C78.818274,26.4367698 96.0014074,21.3642716 110.837698,13.8999149 C119.039164,9.77537126 133.794315,3.22130194 142.88833,1.35678222 C148.318525,0.239325957 160.864148,-1.63774945 172.042858,2.85718698 C180.075802,6.09027673 186.173848,13.7806358 192.134579,19.775977 C201.010138,28.7093493 209.685967,38.1386713 218.530319,47.0343764 C227.093797,55.6475788 234.920768,63.8087761 242.822637,70.9969077 Z" id="path-13"></path>
        <path d="M242.822637,70.9969077 C237.679556,80.7715111 229.652855,89.6483828 221.800918,97.5459107 C220.739846,98.6194221 216.04616,104.520596 214.323477,103.654253 C212.58207,102.781633 209.611067,99.6113215 208.1006,98.0858053 C202.589263,92.542469 197.876853,87.5892499 192.365518,82.0396357 C189.769011,79.4343303 187.603175,77.4944765 184.888077,74.9896167 C184.226468,74.3806657 181.561303,71.7314155 181.604994,71.8883616 C182.485061,75.2218969 185.942908,81.0351806 187.403443,83.9732117 C189.787735,88.7632068 193.276792,94.1747085 195.423903,98.9709813 C199.749334,108.626306 204.349396,115.305932 208.481337,123.630353 C209.130464,124.923589 202.008795,130.391591 201.010138,131.144932 C194.019542,136.418322 187.278612,141.641488 179.751237,146.186647 C178.796272,146.76421 172.872991,150.832252 172.042858,150.411636 C170.713397,149.746185 169.87078,147.109491 169.003197,145.948089 C165.364342,141.063927 163.186023,135.570813 160.127638,130.441814 C150.609193,114.489812 142.526318,98.1988065 133.032838,82.2781937 C129.30036,76.0191831 126.173317,63.9092217 119.713258,60.6572983 C117.934401,59.7658445 114.595143,60.1801822 112.572864,60.2115714 C107.997769,60.2743499 103.354016,60.0483474 101.81234,60.7263546 C95.9140249,63.3253822 88.567658,68.0777101 82.3385382,70.7646274 C67.5646635,77.1303614 50.0756915,82.6862535 33.7476578,80.6333985 C27.106592,79.7984453 22.6063962,76.4397987 16.9265373,73.5833795 C12.4388247,71.3233556 7.14594527,66.6589173 4.54943837,62.3020936 C2.55212537,58.9622805 1.51601926,54.8063475 0.342597871,51.2593656 C-2.13531856,43.7824532 9.46782163,44.7869083 14.5921779,44.2093466 C30.8265875,42.3950497 47.5291175,36.9270473 62.9458772,31.7603816 C78.818274,26.4367698 96.0014074,21.3642716 110.837698,13.8999149 C119.039164,9.77537126 133.794315,3.22130194 142.88833,1.35678222 C148.318525,0.239325957 160.864148,-1.63774945 172.042858,2.85718698 C180.075802,6.09027673 186.173848,13.7806358 192.134579,19.775977 C201.010138,28.7093493 209.685967,38.1386713 218.530319,47.0343764 C227.093797,55.6475788 234.920768,63.8087761 242.822637,70.9969077 Z" id="path-15"></path>
        <path d="M242.822637,70.9969077 C237.679556,80.7715111 229.652855,89.6483828 221.800918,97.5459107 C220.739846,98.6194221 216.04616,104.520596 214.323477,103.654253 C212.58207,102.781633 209.611067,99.6113215 208.1006,98.0858053 C202.589263,92.542469 197.876853,87.5892499 192.365518,82.0396357 C189.769011,79.4343303 187.603175,77.4944765 184.888077,74.9896167 C184.226468,74.3806657 181.561303,71.7314155 181.604994,71.8883616 C182.485061,75.2218969 185.942908,81.0351806 187.403443,83.9732117 C189.787735,88.7632068 193.276792,94.1747085 195.423903,98.9709813 C199.749334,108.626306 204.349396,115.305932 208.481337,123.630353 C209.130464,124.923589 202.008795,130.391591 201.010138,131.144932 C194.019542,136.418322 187.278612,141.641488 179.751237,146.186647 C178.796272,146.76421 172.872991,150.832252 172.042858,150.411636 C170.713397,149.746185 169.87078,147.109491 169.003197,145.948089 C165.364342,141.063927 163.186023,135.570813 160.127638,130.441814 C150.609193,114.489812 142.526318,98.1988065 133.032838,82.2781937 C129.30036,76.0191831 126.173317,63.9092217 119.713258,60.6572983 C117.934401,59.7658445 114.595143,60.1801822 112.572864,60.2115714 C107.997769,60.2743499 103.354016,60.0483474 101.81234,60.7263546 C95.9140249,63.3253822 88.567658,68.0777101 82.3385382,70.7646274 C67.5646635,77.1303614 50.0756915,82.6862535 33.7476578,80.6333985 C27.106592,79.7984453 22.6063962,76.4397987 16.9265373,73.5833795 C12.4388247,71.3233556 7.14594527,66.6589173 4.54943837,62.3020936 C2.55212537,58.9622805 1.51601926,54.8063475 0.342597871,51.2593656 C-2.13531856,43.7824532 9.46782163,44.7869083 14.5921779,44.2093466 C30.8265875,42.3950497 47.5291175,36.9270473 62.9458772,31.7603816 C78.818274,26.4367698 96.0014074,21.3642716 110.837698,13.8999149 C119.039164,9.77537126 133.794315,3.22130194 142.88833,1.35678222 C148.318525,0.239325957 160.864148,-1.63774945 172.042858,2.85718698 C180.075802,6.09027673 186.173848,13.7806358 192.134579,19.775977 C201.010138,28.7093493 209.685967,38.1386713 218.530319,47.0343764 C227.093797,55.6475788 234.920768,63.8087761 242.822637,70.9969077 Z" id="path-17"></path>
        <path d="M242.822637,70.9969077 C237.679556,80.7715111 229.652855,89.6483828 221.800918,97.5459107 C220.739846,98.6194221 216.04616,104.520596 214.323477,103.654253 C212.58207,102.781633 209.611067,99.6113215 208.1006,98.0858053 C202.589263,92.542469 197.876853,87.5892499 192.365518,82.0396357 C189.769011,79.4343303 187.603175,77.4944765 184.888077,74.9896167 C184.226468,74.3806657 181.561303,71.7314155 181.604994,71.8883616 C182.485061,75.2218969 185.942908,81.0351806 187.403443,83.9732117 C189.787735,88.7632068 193.276792,94.1747085 195.423903,98.9709813 C199.749334,108.626306 204.349396,115.305932 208.481337,123.630353 C209.130464,124.923589 202.008795,130.391591 201.010138,131.144932 C194.019542,136.418322 187.278612,141.641488 179.751237,146.186647 C178.796272,146.76421 172.872991,150.832252 172.042858,150.411636 C170.713397,149.746185 169.87078,147.109491 169.003197,145.948089 C165.364342,141.063927 163.186023,135.570813 160.127638,130.441814 C150.609193,114.489812 142.526318,98.1988065 133.032838,82.2781937 C129.30036,76.0191831 126.173317,63.9092217 119.713258,60.6572983 C117.934401,59.7658445 114.595143,60.1801822 112.572864,60.2115714 C107.997769,60.2743499 103.354016,60.0483474 101.81234,60.7263546 C95.9140249,63.3253822 88.567658,68.0777101 82.3385382,70.7646274 C67.5646635,77.1303614 50.0756915,82.6862535 33.7476578,80.6333985 C27.106592,79.7984453 22.6063962,76.4397987 16.9265373,73.5833795 C12.4388247,71.3233556 7.14594527,66.6589173 4.54943837,62.3020936 C2.55212537,58.9622805 1.51601926,54.8063475 0.342597871,51.2593656 C-2.13531856,43.7824532 9.46782163,44.7869083 14.5921779,44.2093466 C30.8265875,42.3950497 47.5291175,36.9270473 62.9458772,31.7603816 C78.818274,26.4367698 96.0014074,21.3642716 110.837698,13.8999149 C119.039164,9.77537126 133.794315,3.22130194 142.88833,1.35678222 C148.318525,0.239325957 160.864148,-1.63774945 172.042858,2.85718698 C180.075802,6.09027673 186.173848,13.7806358 192.134579,19.775977 C201.010138,28.7093493 209.685967,38.1386713 218.530319,47.0343764 C227.093797,55.6475788 234.920768,63.8087761 242.822637,70.9969077 Z" id="path-19"></path>
        <path d="M242.822637,70.9969077 C237.679556,80.7715111 229.652855,89.6483828 221.800918,97.5459107 C220.739846,98.6194221 216.04616,104.520596 214.323477,103.654253 C212.58207,102.781633 209.611067,99.6113215 208.1006,98.0858053 C202.589263,92.542469 197.876853,87.5892499 192.365518,82.0396357 C189.769011,79.4343303 187.603175,77.4944765 184.888077,74.9896167 C184.226468,74.3806657 181.561303,71.7314155 181.604994,71.8883616 C182.485061,75.2218969 185.942908,81.0351806 187.403443,83.9732117 C189.787735,88.7632068 193.276792,94.1747085 195.423903,98.9709813 C199.749334,108.626306 204.349396,115.305932 208.481337,123.630353 C209.130464,124.923589 202.008795,130.391591 201.010138,131.144932 C194.019542,136.418322 187.278612,141.641488 179.751237,146.186647 C178.796272,146.76421 172.872991,150.832252 172.042858,150.411636 C170.713397,149.746185 169.87078,147.109491 169.003197,145.948089 C165.364342,141.063927 163.186023,135.570813 160.127638,130.441814 C150.609193,114.489812 142.526318,98.1988065 133.032838,82.2781937 C129.30036,76.0191831 126.173317,63.9092217 119.713258,60.6572983 C117.934401,59.7658445 114.595143,60.1801822 112.572864,60.2115714 C107.997769,60.2743499 103.354016,60.0483474 101.81234,60.7263546 C95.9140249,63.3253822 88.567658,68.0777101 82.3385382,70.7646274 C67.5646635,77.1303614 50.0756915,82.6862535 33.7476578,80.6333985 C27.106592,79.7984453 22.6063962,76.4397987 16.9265373,73.5833795 C12.4388247,71.3233556 7.14594527,66.6589173 4.54943837,62.3020936 C2.55212537,58.9622805 1.51601926,54.8063475 0.342597871,51.2593656 C-2.13531856,43.7824532 9.46782163,44.7869083 14.5921779,44.2093466 C30.8265875,42.3950497 47.5291175,36.9270473 62.9458772,31.7603816 C78.818274,26.4367698 96.0014074,21.3642716 110.837698,13.8999149 C119.039164,9.77537126 133.794315,3.22130194 142.88833,1.35678222 C148.318525,0.239325957 160.864148,-1.63774945 172.042858,2.85718698 C180.075802,6.09027673 186.173848,13.7806358 192.134579,19.775977 C201.010138,28.7093493 209.685967,38.1386713 218.530319,47.0343764 C227.093797,55.6475788 234.920768,63.8087761 242.822637,70.9969077 Z" id="path-21"></path>
        <path d="M242.822637,70.9969077 C237.679556,80.7715111 229.652855,89.6483828 221.800918,97.5459107 C220.739846,98.6194221 216.04616,104.520596 214.323477,103.654253 C212.58207,102.781633 209.611067,99.6113215 208.1006,98.0858053 C202.589263,92.542469 197.876853,87.5892499 192.365518,82.0396357 C189.769011,79.4343303 187.603175,77.4944765 184.888077,74.9896167 C184.226468,74.3806657 181.561303,71.7314155 181.604994,71.8883616 C182.485061,75.2218969 185.942908,81.0351806 187.403443,83.9732117 C189.787735,88.7632068 193.276792,94.1747085 195.423903,98.9709813 C199.749334,108.626306 204.349396,115.305932 208.481337,123.630353 C209.130464,124.923589 202.008795,130.391591 201.010138,131.144932 C194.019542,136.418322 187.278612,141.641488 179.751237,146.186647 C178.796272,146.76421 172.872991,150.832252 172.042858,150.411636 C170.713397,149.746185 169.87078,147.109491 169.003197,145.948089 C165.364342,141.063927 163.186023,135.570813 160.127638,130.441814 C150.609193,114.489812 142.526318,98.1988065 133.032838,82.2781937 C129.30036,76.0191831 126.173317,63.9092217 119.713258,60.6572983 C117.934401,59.7658445 114.595143,60.1801822 112.572864,60.2115714 C107.997769,60.2743499 103.354016,60.0483474 101.81234,60.7263546 C95.9140249,63.3253822 88.567658,68.0777101 82.3385382,70.7646274 C67.5646635,77.1303614 50.0756915,82.6862535 33.7476578,80.6333985 C27.106592,79.7984453 22.6063962,76.4397987 16.9265373,73.5833795 C12.4388247,71.3233556 7.14594527,66.6589173 4.54943837,62.3020936 C2.55212537,58.9622805 1.51601926,54.8063475 0.342597871,51.2593656 C-2.13531856,43.7824532 9.46782163,44.7869083 14.5921779,44.2093466 C30.8265875,42.3950497 47.5291175,36.9270473 62.9458772,31.7603816 C78.818274,26.4367698 96.0014074,21.3642716 110.837698,13.8999149 C119.039164,9.77537126 133.794315,3.22130194 142.88833,1.35678222 C148.318525,0.239325957 160.864148,-1.63774945 172.042858,2.85718698 C180.075802,6.09027673 186.173848,13.7806358 192.134579,19.775977 C201.010138,28.7093493 209.685967,38.1386713 218.530319,47.0343764 C227.093797,55.6475788 234.920768,63.8087761 242.822637,70.9969077 Z" id="path-23"></path>
        <path d="M242.822637,70.9969077 C237.679556,80.7715111 229.652855,89.6483828 221.800918,97.5459107 C220.739846,98.6194221 216.04616,104.520596 214.323477,103.654253 C212.58207,102.781633 209.611067,99.6113215 208.1006,98.0858053 C202.589263,92.542469 197.876853,87.5892499 192.365518,82.0396357 C189.769011,79.4343303 187.603175,77.4944765 184.888077,74.9896167 C184.226468,74.3806657 181.561303,71.7314155 181.604994,71.8883616 C182.485061,75.2218969 185.942908,81.0351806 187.403443,83.9732117 C189.787735,88.7632068 193.276792,94.1747085 195.423903,98.9709813 C199.749334,108.626306 204.349396,115.305932 208.481337,123.630353 C209.130464,124.923589 202.008795,130.391591 201.010138,131.144932 C194.019542,136.418322 187.278612,141.641488 179.751237,146.186647 C178.796272,146.76421 172.872991,150.832252 172.042858,150.411636 C170.713397,149.746185 169.87078,147.109491 169.003197,145.948089 C165.364342,141.063927 163.186023,135.570813 160.127638,130.441814 C150.609193,114.489812 142.526318,98.1988065 133.032838,82.2781937 C129.30036,76.0191831 126.173317,63.9092217 119.713258,60.6572983 C117.934401,59.7658445 114.595143,60.1801822 112.572864,60.2115714 C107.997769,60.2743499 103.354016,60.0483474 101.81234,60.7263546 C95.9140249,63.3253822 88.567658,68.0777101 82.3385382,70.7646274 C67.5646635,77.1303614 50.0756915,82.6862535 33.7476578,80.6333985 C27.106592,79.7984453 22.6063962,76.4397987 16.9265373,73.5833795 C12.4388247,71.3233556 7.14594527,66.6589173 4.54943837,62.3020936 C2.55212537,58.9622805 1.51601926,54.8063475 0.342597871,51.2593656 C-2.13531856,43.7824532 9.46782163,44.7869083 14.5921779,44.2093466 C30.8265875,42.3950497 47.5291175,36.9270473 62.9458772,31.7603816 C78.818274,26.4367698 96.0014074,21.3642716 110.837698,13.8999149 C119.039164,9.77537126 133.794315,3.22130194 142.88833,1.35678222 C148.318525,0.239325957 160.864148,-1.63774945 172.042858,2.85718698 C180.075802,6.09027673 186.173848,13.7806358 192.134579,19.775977 C201.010138,28.7093493 209.685967,38.1386713 218.530319,47.0343764 C227.093797,55.6475788 234.920768,63.8087761 242.822637,70.9969077 Z" id="path-25"></path>
    </defs>
    <g id="Page-1" stroke="none" stroke-width="1" fill="none" fill-rule="evenodd">
        <g id="Artboard" transform="translate(-88.000000, -409.000000)">
            <g id="quit-screwing-around" transform="translate(88.000000, 409.000000)">
                <g id="Group-2">
                    <g id="Group-9" transform="translate(224.000000, 84.000000)" stroke="#FFFFFF" stroke-linecap="round" stroke-linejoin="round" stroke-width="3.26138343">
                        <path d="M34.1355098,109.545852 C33.4984267,108.851042 32.4145919,107.577667 31.7378563,106.90135 C29.527891,104.690116 27.7065196,102.291308 25.7344692,99.8290962 C19.9161256,92.5613428 13.9946867,83.2223735 9.86553958,74.9692077 C8.31116276,71.8623826 6.34439883,67.0489158 6.0060303,66.1823857 C5.78133284,65.609103 6.66954986,63.7809376 6.86252443,63.3952251 C7.92256744,61.2790969 8.69182699,59.971377 10.0796642,57.8235456 C11.7582864,55.2265997 15.250349,51.8397364 16.6196823,49.0182311 C19.0781369,43.9432216 18.914239,40.7069451 20.2254159,36.469404 C20.7699765,34.7072851 22.644218,29.7881439 21.6581921,27.8199595 C19.8262463,24.1530595 14.8855455,25.8332826 12.223542,27.6059693 C8.128761,30.335008 5.50112219,35.4443624 3.00301515,39.6079323 C2.04342423,41.2062566 0.304002444,44.4161145 0,46.0355743" id="Path" transform="translate(17.067755, 67.591694) scale(-1, 1) translate(-17.067755, -67.591694) "></path>
                        <path d="M35.667366,36.4350592 C35.9792996,33.7139452 37.3380586,29.0827684 37.5468954,28.2479399 C38.9611676,22.5917215 47.8803353,7.33234653 38.6201559,4.24665688 C34.0865542,2.73551301 30.9540073,9.18429042 28.968738,11.9608832 C23.6182947,19.4452685 22.2621803,33.6294063 22.2621803,42.7808039" id="Path" transform="translate(32.517002, 23.400572) scale(-1, 1) translate(-32.517002, -23.400572) "></path>
                        <path d="M51.468451,3.57562456 C47.9314481,-3.36717976 39.8053303,0.780537837 37.0032208,7.67578812 C34.6372887,13.5037288 32.7894823,19.4399839 32.0730942,25.8914029 C31.48095,31.1988966 32.4907677,37.1694965 33.1437115,42.3924513 C33.3366875,43.9273707 33.9023953,46.5058242 34.402017,47.9746971" id="Path" transform="translate(41.681136, 23.987349) scale(-1, 1) translate(-41.681136, -23.987349) "></path>
                        <path d="M61.8661332,13.6992266 C61.3215726,11.8710598 58.8604733,10.8037487 58.0357021,10.6742973 C56.5844206,10.4523824 54.5462827,11.0705761 53.5311786,11.746893 C50.721138,13.6199709 50.1686464,18.6236509 49.6716693,21.6063078 C47.8793761,32.3560311 49.4813365,46.297117 54.390316,56.1089807" id="Path" transform="translate(55.413195, 33.368661) scale(-1, 1) translate(-55.413195, -33.368661) "></path>
                        <path d="M20.6563096,28.6627126 C18.9776874,28.8027302 17.5369802,27.2889463 15.7764098,28.4619317 C10.3572358,32.0733514 12.088728,46.2548476 14.0607783,51.1792719 C22.2635579,71.6721679 35.4096816,88.4770301 47.8684953,106.845872 C52.6955252,113.96568 66.9413458,133.290875 70.3593898,137.27744" id="Path" transform="translate(41.253136, 82.645334) scale(-1, 1) translate(-41.253136, -82.645334) "></path>
                    </g>
                    <g id="Group">
                        <g id="Group-8" transform="translate(146.000000, 187.000000) scale(-1, 1) translate(-146.000000, -187.000000) translate(26.000000, 92.000000)">
                            <path d="M174.438013,116.897459 C180.046478,109.268876 185.311715,101.349679 190.482019,93.4886063 C192.176243,90.9021538 195.068107,86.7754526 197.872338,82.2418952 C204.473969,71.5764093 218.517038,68.2634246 229.20087,74.8603319 C239.892004,81.4572406 243.207424,95.4720372 236.598492,106.144789 C233.538665,111.085205 230.39851,115.604233 228.550931,118.423175 C219.860732,131.638788 210.871123,144.94885 200.764203,157.161849 C196.974108,161.738998 190.124187,167.682028 183.413017,170.014195 C173.576297,173.421628 163.359837,172.542525 154.114633,163.344633 C145.088512,154.364701 137.88076,144.643707 131.111168,133.876505 C126.291393,126.197065 122.231099,117.536807 117.39672,109.690265 C113.752679,103.776295 109.999097,97.8187356 101.980746,96.8233874 C98.7821697,96.4237939 95.2330636,97.34649 92.1367232,98.0730221 C87.8646514,99.0756358 83.8992915,100.238086 80.0288674,102.359558 C64.7662503,110.707408 53.3886618,127.127025 47.2251943,143.444929 C55.5648634,140.887537 63.4882801,134.457732 68.9799012,128.500171 C71.5066312,125.753882 74.5153374,121.946855 76.4943658,118.815503 C83.1909303,108.20814 97.26321,105.018664 107.888621,111.710022 C118.521335,118.40138 121.712608,132.445239 115.008741,143.052602 C111.700624,148.290895 106.712888,154.684375 102.484633,159.26879 C86.5063513,176.611103 59.0044292,191.839208 34.6280579,189.819451 C3.16077596,187.211202 -5.15698559,156.27548 2.85406255,132.350789 C12.1211734,104.691726 32.1743548,76.7057227 58.1427127,62.5020276 C65.7229026,58.3535313 73.3761179,55.7816084 81.7449989,53.8199726 C89.8509828,51.9237247 99.2568444,50.67409 107.611119,51.7130311 C128.000223,54.2486266 141.269206,64.7615415 151.456456,78.7836036 C158.350193,88.2793738 163.440167,99.7803714 169.683964,109.726591 C171.232134,112.182269 172.802212,114.579823 174.438013,116.897459 Z" id="Path" fill="#2DB135" fill-rule="nonzero" transform="translate(120.000000, 120.668637) scale(-1, 1) translate(-120.000000, -120.668637) "></path>
                            <path d="M132.290957,103.876095 C133.45604,100.841697 134.680365,95.487939 134.937078,94.0638751 C135.233287,92.4355164 135.536076,90.8732514 135.858614,89.2809444 C136.694577,85.1950232 135.786207,83.0439064 138.570559,80.604371 C139.998938,79.3485503 142.256699,78.7657066 144.07344,79.7992039 C145.896762,80.8387107 146.870956,82.5211482 147.160581,83.8550816 C147.943886,87.4242542 147.726667,93.3548479 147.042098,98.3420748" id="Path" stroke="#1F1F1E" stroke-width="3.08" stroke-linecap="round" stroke-linejoin="round" transform="translate(139.974925, 91.571752) scale(-1, 1) translate(-139.974925, -91.571752) "></path>
                            <path d="M123.829128,84.4198995 C126.593734,81.9983914 129.819106,85.5615544 130.852541,86.8113656 C134.295134,91.005443 131.997878,98.6365014 130.042907,102.800537" id="Path" stroke="#1F1F1E" stroke-width="3.08" stroke-linecap="round" stroke-linejoin="round" transform="translate(128.226918, 93.198127) scale(-1, 1) translate(-128.226918, -93.198127) "></path>
                            <path d="M118.952291,89.4071278 C119.524959,89.9118588 120.828273,91.0475042 121.157391,91.3479403 C122.217156,92.3153411 123.10578,93.5711618 123.579711,94.8690422 C125.17265,99.2373724 123.500724,104.134469 121.710313,108.2264" id="Path" stroke="#1F1F1E" stroke-width="3.08" stroke-linecap="round" stroke-linejoin="round" transform="translate(121.585642, 98.816764) scale(-1, 1) translate(-121.585642, -98.816764) "></path>
                            <path d="M114.801626,97.1643683 C115.479613,97.8253262 116.341906,98.6365014 116.671026,99.087155 C117.658384,100.439114 118.342952,101.887212 118.757644,103.401406 C119.837156,107.331102 117.56623,112.108025 116.012785,115.65917" id="Path" stroke="#1F1F1E" stroke-width="3.08" stroke-linecap="round" stroke-linejoin="round" transform="translate(116.920138, 106.411769) scale(-1, 1) translate(-116.920138, -106.411769) "></path>
                            <path d="M112.386106,104.699288 C113.386631,105.408315 113.926387,105.955107 114.288418,106.285587 C115.677303,107.553424 116.565925,109.950898 116.895046,111.765527 C117.948228,117.515862 113.663091,127.225932 110.187588,131.984829" id="Path" stroke="#1F1F1E" stroke-width="3.08" stroke-linecap="round" stroke-linejoin="round" transform="translate(113.622469, 118.342059) scale(-1, 1) translate(-113.622469, -118.342059) "></path>
                            <path d="M198.704248,97.6465623 L187.770726,78.4000036 C183.805366,80.1945374 164.438638,91.3104725 161.495654,97.1663181 C161.225456,97.7039517 166.636747,102.826001 168.133798,104.729514 C171.1279,108.53654 174.593314,114.703002 178.53004,123.228899 C179.60178,120.919919 181.53666,118.273611 184.33468,115.289975 C188.531711,110.81452 189.769414,110.514807 192.65503,106.889426 C193.977031,105.228512 195.993437,102.147558 198.704248,97.6465623 Z" id="Path" fill="#FFFFFF" transform="translate(180.095066, 100.814451) scale(-1, 1) translate(-180.095066, -100.814451) "></path>
                            <g id="NBC_logo" transform="translate(180.323697, 100.380877) rotate(35.000000) translate(-180.323697, -100.380877) translate(170.085653, 92.861818)" fill-rule="nonzero">
                                <path d="M9.99938501,1.55184998 C9.68753012,0.760018053 8.92795681,-0.0951546906 7.50542737,0.0223091661 C5.69329089,0.222697126 5.128574,1.98913833 5.40238147,3.04297742 C4.68067927,2.54586321 3.45339414,2.3272549 2.3821775,3.26058146 C0.999105965,4.67082921 1.73889744,6.57797598 2.49921124,7.03545735 C1.66125107,6.95651446 0.336925602,7.53246396 0.0439357387,9.03901414 C-0.267742851,10.9095409 1.13415846,12 2.49921124,12 L17.6364096,12 C19.214937,12 20.0908036,10.6109854 19.9925291,9.30102131 C19.8376242,7.59135729 18.2995421,6.9353889 17.4605593,7.07591513 C18.1615276,6.67815202 19.0977622,4.80952623 17.6742102,3.34052862 C16.5442475,2.24730775 15.1036993,2.64503499 14.5971996,3.12188444 C14.8702666,2.20860744 14.4225481,0.320757029 12.5897483,0.0221298319 C12.4631586,0.00771136769 12.3411882,-1.62685645e-13 12.2249302,-1.62685645e-13 C10.8258146,0.000143467306 10.1967803,1.04038904 9.99938501,1.55184998" id="path3113" fill="#FFFFFF"></path>
                                <path d="M2.63433426,3.55824025 C1.83512675,4.29411993 1.54425259,5.96149696 2.98494182,6.93621384 L8.73235989,10.9470217 L5.94558869,4.45300997 C5.36165415,2.92056395 3.76415592,2.58639272 2.63433426,3.55824025" id="path3115" fill="#1F1F1E"></path>
                                <path d="M7.5817338,0.400847653 C6.64750905,0.420179872 5.24469093,1.55181411 5.86900018,3.27980608 L8.7511544,10.1938901 L9.76397759,2.92160408 C9.99836242,1.1145975 8.65393776,0.280442716 7.5817338,0.400847653" id="path3117" fill="#1F1F1E"></path>
                                <path d="M10.213847,2.64428178 L10.7588173,2.64428178 C10.7588173,2.64428178 11.0498677,2.64428178 11.0894667,2.78391134 C10.8750047,2.96206186 10.291176,2.98437103 10.3686813,3.93598967 L11.2849226,10.1929575 L14.1474712,3.26068906 C14.7329926,1.71285617 13.5039444,0.420179872 12.4137216,0.380654629 C12.3628389,0.376924479 12.3117094,0.373911666 12.2588873,0.373911666 C11.2803033,0.373911666 10.1589444,1.09723796 10.213847,2.64428178" id="path3119" fill="#1F1F1E"></path>
                                <path d="M15.1985498,4.96097416 L9.30052723,8.66371332 L16.3198504,8.65657064 C17.9528788,8.63350122 18.6541256,7.259528 18.4799341,6.21574567 C18.4291957,5.74634959 18.1192066,5.19411636 17.6239779,4.84735346 C17.0390082,4.43762194 16.1918649,4.31483141 15.1985498,4.96097416" id="path3121" fill="#1F1F1E" transform="translate(13.903201, 6.585958) rotate(-35.000000) translate(-13.903201, -6.585958) "></path>
                                <path d="M18.0458227,8.75222166 L11.4267601,8.79758463 L16.8691637,12.6083967 C17.9857319,13.3902261 19.5232804,12.7215905 19.9567406,11.4236549 C20.2160473,10.5986429 19.9552322,9.62582465 19.2221237,9.11135817 C18.9132142,8.89527631 18.5194761,8.76056661 18.0458227,8.75222166" id="path3123" fill="#1F1F1E" transform="translate(15.740606, 10.847471) rotate(-35.000000) translate(-15.740606, -10.847471) "></path>
                                <path d="M2.47949993,11.6426229 L9.02542028,11.6426229 L3.6281161,7.80892546 C2.3812607,6.99403116 0.979147816,7.47084475 0.473000687,8.82309585 C0.0439710005,10.3711081 1.11518764,11.6426229 2.47949993,11.6426229" id="path3125" fill="#1F1F1E"></path>
                            </g>
                            <path d="M180.535169,97.9472462 L181.952223,90.6643403 C178.721244,81.8816983 176.134498,76.5240902 174.191983,74.5915158 C174.02402,74.4244138 168.276805,77.4322548 166.969625,78.078868 C161.076356,81.0067915 156.322306,84.0001016 150.940225,87.8289233 C149.691466,88.7080279 145.908673,91.1128474 145.908673,91.3162769 C145.908673,91.7594605 147.077103,93.0381572 147.354606,93.3578303 C148.464613,94.6437911 149.428569,96.1549778 150.377918,97.5644491 C152.593066,100.867747 155.076792,104.869843 157.829096,109.570736 C162.669979,105.766042 166.229854,103.297854 168.50872,102.166172 C171.572286,100.644811 175.581102,99.2385019 180.535169,97.9472462 Z" id="Path" fill="#FFFFFF" transform="translate(163.930448, 92.077775) scale(-1, 1) translate(-163.930448, -92.077775) "></path>
                            <path d="M181.952223,89.7542331 C181.302284,88.4610069 180.586621,86.9207596 179.834444,85.6783903 C177.51219,81.8205066 175.890993,77.4903774 172.977221,74.5915158 C172.809258,74.4244138 167.062043,77.4322548 165.754863,78.078868 C159.861594,81.0067915 155.107544,84.0001016 149.725463,87.8289233 C148.476704,88.7080279 144.693911,91.1128474 144.693911,91.3162769 C144.693911,91.7594605 145.862341,93.0381572 146.139844,93.3578303 C147.249851,94.6437911 148.213807,96.1549778 149.163156,97.5644491 C152.485878,102.519396 157.276441,109.312468 159.613303,116.149132" id="Path" stroke="#1F1E1E" stroke-width="3.08" stroke-linecap="round" stroke-linejoin="round" transform="translate(163.323067, 95.366974) scale(-1, 1) translate(-163.323067, -95.366974) "></path>
                            <path d="M198.704248,78.4000036 C194.738888,80.1945374 175.37216,91.3104725 172.429177,97.1663181 C172.158978,97.7039517 177.570269,102.826001 179.06732,104.729514 C183.558473,110.440053 185.070129,112.44528 188.641143,119.601619 C189.809573,121.955582 191.328533,125.595506 192.423936,128.625142" id="Path" stroke="#1F1F1E" stroke-width="3.08" stroke-linecap="round" stroke-linejoin="round" transform="translate(185.561827, 103.512573) scale(-1, 1) translate(-185.561827, -103.512573) "></path>
                            <path d="M153.115199,20.2033498 C152.311903,19.2879192 150.968208,18.8955926 150.150308,18.9755102 C145.81251,19.3751023 144.249736,24.7587037 144.855858,27.4831977 C145.410863,30.0042622 147.375285,31.99496 149.091417,32.5616542 C149.383524,32.6633682 150.909787,33.0048392 152.333811,32.7360217 C152.896118,32.6270422 152.552891,35.5477002 152.399535,37.7272951 C152.11473,41.7304844 152.158546,42.1954645 151.369855,47.0632273" id="Path" stroke="#FFFFFF" stroke-width="3.08" stroke-linecap="round" stroke-linejoin="round" transform="translate(148.922812, 33.014312) scale(-1, 1) translate(-148.922812, -33.014312) "></path>
                            <path d="M123.914324,34.6831266 C124.878279,35.0463926 125.652364,35.2207602 127.361193,35.3588016 C128.996996,35.4823122 131.122078,35.6494142 132.582615,34.770311 C136.336196,32.5325922 136.109812,25.9138885 135.569414,21.6709436 C134.941383,16.7159963 133.531965,15.2338715 133.13762,13.5265222" id="Path" stroke="#FFFFFF" stroke-width="3.08" stroke-linecap="round" stroke-linejoin="round" transform="translate(129.893294, 24.492606) scale(-1, 1) translate(-129.893294, -24.492606) "></path>
                            <path d="M138.270072,13.6572982 C141.381017,13.8897882 145.733418,14.5654633 148.858968,12.4948479 C154.934804,8.46259671 149.81562,1.61140151 144.608803,0.31817526 C140.095743,-0.807948946 130.719092,1.13189044 128.177756,4.92438613 C126.17682,7.91043214 126.023464,9.34896537 125.804383,12.8363175" id="Path" stroke="#FFFFFF" stroke-width="3.08" stroke-linecap="round" stroke-linejoin="round" transform="translate(138.710620, 6.974957) scale(-1, 1) translate(-138.710620, -6.974957) "></path>
                        </g>
                        <g id="promo" transform="translate(203.000000, 0.000000)">
                            <polygon id="Path" fill="#1F1F1E" fill-rule="nonzero" points="255.055181 38.7066598 256.122537 31.7492331 258.167149 27.9297356 262.582125 23.9139486 267.015121 23.9139486 269.245482 27.9297356 273.62719 23.3591536 281.450777 15.4339019 286.324578 12.9093817 292.799414 9.20029859 296.24268 11.0964155 297.608065 15.35893 305.398384 15.1122039 310.511994 16.94289 311.209241 21.7315736 309.081458 25.2961647 315.119648 29.6472829 316.530777 35.2320359 308.928979 42.3830276 312.650865 45.3955497 315.743428 50.5100219 310.412189 57.366578 292.910308 64.5380168 280.542831 70.2549935 252.227377 59.1645488 251.738057 45.655909"></polygon>
                            <path d="M128.120414,206.239156 C127.227866,208.781682 127.215382,218.273782 128.657193,218.744621 C133.575575,220.351749 156.376152,219.924855 156.881722,219.937411 C166.306543,220.125747 210.097631,220.540084 210.528301,220.546362 C216.532724,220.690752 221.644596,220.703308 227.168415,220.703308 C231.219215,220.703308 232.779616,221.814486 232.91069,217.840611 C233.016797,214.438019 233.734582,211.129596 232.948139,207.306388 C232.67975,206.013152 229.883512,206.207766 228.572775,206.170098 C224.908954,206.069654 221.58218,205.975486 217.918359,205.87504 C202.588982,205.460703 187.771416,205.630205 172.442039,205.353979 C155.858099,205.052642 155.502327,205.077754 138.76859,205.040086 C138.082013,205.040086 128.070482,204.493915 128.120414,206.239156 Z" id="Path" stroke="#FFFFFF" stroke-width="2.87140807" stroke-linecap="round" stroke-linejoin="round"></path>
                            <path d="M156.070314,220.941866 C154.790785,226.001808 152.912063,232.919993 152.119379,235.989858 C148.361934,250.4854 144.741804,265.01861 141.521136,279.639709 C137.339263,298.630188 132.782892,316.459265 128.769542,335.487411 C127.533705,341.338362 123.757534,356.116408 132.495778,356.976471 C142.057915,357.924426 147.706565,329.925241 148.249585,327.790774 C154.61602,302.666842 160.320845,278.371585 166.250368,253.140928 C167.998017,245.714239 169.577142,237.289372 171.268617,229.84385 C171.842845,227.3076 172.142441,225.041299 173.166064,221.098813" id="Path" stroke="#FFFFFF" stroke-width="2.87140807" stroke-linecap="round" stroke-linejoin="round"></path>
                            <path d="M216.562396,220.941866 C215.282866,226.001808 213.404144,232.919993 212.611461,235.989858 C208.854016,250.4854 205.233886,265.01861 202.013219,279.639709 C197.831345,298.630188 193.274973,316.459265 189.261623,335.487411 C188.025786,341.338362 184.249616,356.116408 192.98786,356.976471 C202.549996,357.924426 208.198647,329.925241 208.741667,327.790774 C215.108102,302.666842 220.812927,278.371585 226.74245,253.140928 C228.490098,245.714239 230.069224,237.289372 231.760699,229.84385 C232.334927,227.3076 232.634523,225.041299 233.658146,221.098813" id="Path" stroke="#FFFFFF" stroke-width="2.87140807" stroke-linecap="round" stroke-linejoin="round" transform="translate(210.521292, 288.970933) scale(-1, 1) translate(-210.521292, -288.970933) "></path>
                            <path d="M164.455011,272.082626 C174.890931,270.789795 185.938604,271.461952 196.480682,271.462361" id="Path" stroke="#FFFFFF" stroke-width="2.87140807" stroke-linecap="round" stroke-linejoin="round" transform="translate(180.467846, 271.684981) rotate(1.333846) translate(-180.467846, -271.684981) "></path>
                            <path d="M161.068122,287.377373 C160.824698,287.327142 161.998114,287.14513 162.254017,287.101194 C163.21522,286.944286 164.18891,286.931767 165.168839,286.856472 C168.064937,286.63686 171.004736,286.643252 173.913319,286.492696 C182.63907,286.028474 191.620744,286.003711 200.265371,286.004043" id="Path" stroke="#FFFFFF" stroke-width="2.87140807" stroke-linecap="round" stroke-linejoin="round" transform="translate(180.650232, 286.690708) rotate(1.333846) translate(-180.650232, -286.690708) "></path>
                            <path d="M385.286947,191.919392 C380.143865,201.693995 372.117164,210.570867 364.265228,218.468395 C363.204155,219.541907 358.510469,225.443081 356.787786,224.576738 C355.046379,223.704117 352.075376,220.533806 350.564909,219.00829 C345.053574,213.464953 340.341162,208.511735 334.829827,202.962121 C332.23332,200.356815 330.067483,198.416962 327.352387,195.912102 C326.690777,195.303151 324.025611,192.653901 324.069304,192.810847 C324.94937,196.144382 328.407217,201.957665 329.867752,204.895696 C332.252045,209.685691 335.741101,215.097193 337.888212,219.893467 C342.213644,229.54879 346.813705,236.228416 350.945647,244.552838 C351.594773,245.846074 344.473104,251.314077 343.474448,252.067418 C336.483852,257.340807 329.74292,262.563973 322.215548,267.109132 C321.260581,267.686694 315.337301,271.754737 314.507168,271.334122 C313.177706,270.668669 312.33509,268.031975 311.467507,266.870575 C307.828652,261.986411 305.650332,256.493297 302.591947,251.364299 C293.073502,235.412297 284.990626,219.121292 275.497148,203.200679 C271.764669,196.941668 268.637626,184.831707 262.177566,181.579784 C260.398709,180.688329 257.059452,181.102667 255.037173,181.134056 C250.462078,181.196835 245.818326,180.970833 244.27665,181.64884 C238.378334,184.247867 231.031967,189.000195 224.802847,191.687112 C210.028973,198.052846 192.54,203.608738 176.211967,201.555883 C169.570901,200.72093 165.070705,197.362284 159.390847,194.505864 C154.903134,192.24584 149.610254,187.581402 147.013747,183.224578 C145.016435,179.884765 143.980329,175.728833 142.806907,172.18185 C140.32899,164.704938 151.932131,165.709393 157.056487,165.131831 C173.290896,163.317534 189.993427,157.849532 205.410186,152.682866 C221.282583,147.359254 238.465716,142.286756 253.302007,134.8224 C261.503473,130.697856 276.258624,124.143786 285.352639,122.279267 C290.782833,121.161811 303.328456,119.284735 314.507168,123.779672 C322.540111,127.012762 328.638157,134.70312 334.598888,140.698462 C343.474448,149.631835 352.150276,159.061156 360.994627,167.956861 C369.558107,176.570064 377.385078,184.731261 385.286947,191.919392 Z" id="Path" fill="#D92324" fill-rule="nonzero"></path>
                            <g id="Clipped" transform="translate(142.464309, 120.922485)">
                                <g id="Path-Clipped">
                                    <mask id="mask-2" fill="white">
                                        <use xlink:href="#path-1"></use>
                                    </mask>
                                    <g id="path-5"></g>
                                    <path d="M205.373019,23.561517 C205.098389,22.6888968 201.4845,29.0357972 201.253561,29.5380247 C199.281215,33.8320702 197.982961,38.4651192 199.69316,43.0605011 C202.439466,50.4244124 209.230329,50.273744 215.084954,53.6449464 C218.786224,55.7731356 220.565081,60.0106805 223.854405,62.6536528 C228.27346,66.2131904 238.815528,62.5155402 241.580559,58.3470517" id="Path" stroke="#FCF3E4" stroke-width="2.87140807" stroke-linecap="round" stroke-linejoin="round" mask="url(#mask-2)"></path>
                                </g>
                                <g id="Path-Clipped">
                                    <mask id="mask-4" fill="white">
                                        <use xlink:href="#path-3"></use>
                                    </mask>
                                    <g id="path-5"></g>
                                    <path d="M156.86952,46.6012053 C156.78838,46.5949274 157.968043,46.1178112 158.585962,45.8039191 C159.927907,45.1259119 161.594415,44.8747981 163.067433,44.6299621 C168.547561,43.7071191 173.440978,43.1923359 178.459227,45.9985322 C182.878282,48.4720028 182.99063,53.2368865 185.468546,56.9722038 C188.689214,61.8312553 197.527323,60.3873511 198.912959,67.362036 C199.474705,70.1933437 199.175107,75.9187375 197.159069,77.9402034 C196.247795,78.8630465 196.547392,81.4683518 195.0182,81.4683518" id="Path" stroke="#FCF3E4" stroke-width="2.87140807" stroke-linecap="round" stroke-linejoin="round" mask="url(#mask-4)"></path>
                                </g>
                                <g id="Path-Clipped">
                                    <mask id="mask-6" fill="white">
                                        <use xlink:href="#path-5"></use>
                                    </mask>
                                    <g id="path-5"></g>
                                    <path d="M115.150646,9.56820241 C114.176956,9.5242575 115.044538,11.5394455 115.138163,12.0981736 C115.575075,14.7537017 117.322724,17.7859005 119.426144,19.5436968 C124.58795,23.8754093 133.482235,24.0449111 139.686388,22.4817279 C149.285974,20.0710358 155.870864,11.4515557 164.821324,7.59068149 C174.932721,3.23385763 185.75566,6.41672463 195.991889,6.41672463" id="Path" stroke="#FCF3E4" stroke-width="2.87140807" stroke-linecap="round" stroke-linejoin="round" mask="url(#mask-6)"></path>
                                </g>
                                <g id="Path-Clipped">
                                    <mask id="mask-8" fill="white">
                                        <use xlink:href="#path-7"></use>
                                    </mask>
                                    <g id="path-5"></g>
                                    <path d="M9.86104263,70.2372886 C10.0108411,70.7897389 9.34923117,70.6767377 9.34923117,71.0847975 C9.34923117,71.2354658 11.0968801,69.7162276 11.0968801,69.7099496 C12.3264759,68.686661 13.9617759,67.8768192 15.3848614,67.1611449 C19.7165339,64.982733 24.1543138,63.972 29.0227642,64.417727 C35.7824204,65.0392336 40.8193941,69.8355066 47.9223385,69.1261101 C56.7978981,68.2283785 64.7247341,63.6769414 74.0309644,64.618618 C76.7959945,64.8948432 79.4049846,65.6984072 82.0139748,66.5773054 C83.5306843,67.0858108 84.7353137,68.7306059 86.1084664,68.7306059" id="Path" stroke="#FCF3E4" stroke-width="2.87140807" stroke-linecap="round" stroke-linejoin="round" mask="url(#mask-8)"></path>
                                </g>
                                <g id="Path-Clipped">
                                    <mask id="mask-10" fill="white">
                                        <use xlink:href="#path-9"></use>
                                    </mask>
                                    <g id="path-5"></g>
                                    <path d="M38.5536922,38.1261156 C38.0106727,38.2391167 39.0530204,40.7000317 39.1528861,41.1018137 C39.8082544,43.7322305 41.5184537,46.9653201 43.6343571,48.7419502 C48.8273709,53.0924961 58.121118,52.8225488 63.9008424,49.915907 C73.4442536,45.119634 74.617675,37.102827 80.2663258,29.1487984 C85.2658499,22.1050572 92.6871161,17.2648393 101.30677,15.8209353" id="Path" stroke="#FCF3E4" stroke-width="2.87140807" stroke-linecap="round" stroke-linejoin="round" mask="url(#mask-10)"></path>
                                </g>
                                <g id="Path-Clipped">
                                    <mask id="mask-12" fill="white">
                                        <use xlink:href="#path-11"></use>
                                    </mask>
                                    <g id="path-5"></g>
                                    <path d="M120.955337,73.5959352 C120.793055,73.6084908 126.753786,71.8695281 128.969555,71.8695281 C135.204916,71.8695281 142.401484,72.8300382 145.528527,79.1141602 C146.520944,81.1042369 146.527185,83.6593194 147.67564,85.5866176 C150.746509,90.7344498 153.692545,93.9235947 152.3506,100.672277 C151.614091,104.388761 148.480806,107.559072 146.308728,110.471992 C142.975713,114.941817 139.879878,119.675312 138.125987,124.973812" id="Path" stroke="#FCF3E4" stroke-width="2.87140807" stroke-linecap="round" stroke-linejoin="round" mask="url(#mask-12)"></path>
                                </g>
                                <g id="Path-Clipped">
                                    <mask id="mask-14" fill="white">
                                        <use xlink:href="#path-13"></use>
                                    </mask>
                                    <g id="path-5"></g>
                                    <path d="M150.883824,44.6990184 C148.786645,51.8557608 150.727783,58.5918876 156.638582,63.049157 C160.17757,65.7172407 165.333135,65.8867425 169.103063,68.7306059 C173.247488,71.8569723 174.452117,79.8800572 176.705335,84.4063829 C179.888553,90.809784 190.805117,92.6366366 196.965579,92.6366366" id="Path" stroke="#FCF3E4" stroke-width="2.87140807" stroke-linecap="round" stroke-linejoin="round" mask="url(#mask-14)"></path>
                                </g>
                                <g id="Path-Clipped">
                                    <mask id="mask-16" fill="white">
                                        <use xlink:href="#path-15"></use>
                                    </mask>
                                    <g id="path-5"></g>
                                    <path d="M200.523293,137.359998 C200.311079,135.608479 201.559399,133.436346 200.666851,131.634605 C198.226383,126.719053 191.154647,121.973002 185.468546,123.404351 C180.450297,124.666198 177.429362,130.102811 172.223865,130.849874 C168.62246,131.364658 164.634075,131.044488 161.120053,132.224722 C152.849929,134.993252 145.990407,140.436142 143.194168,148.879843" id="Path" stroke="#FCF3E4" stroke-width="2.87140807" stroke-linecap="round" stroke-linejoin="round" mask="url(#mask-16)"></path>
                                </g>
                                <g id="Path-Clipped">
                                    <mask id="mask-18" fill="white">
                                        <use xlink:href="#path-17"></use>
                                    </mask>
                                    <g id="path-5"></g>
                                    <path d="M103.329049,57.7067116 C103.023211,58.6734996 103.522539,54.3982877 103.834619,53.4440554 C104.951866,50.0854087 106.936696,47.0343764 109.683001,44.8245754 C115.225545,40.3610281 124.151037,44.9061873 129.749755,46.7832628" id="Path" stroke="#FCF3E4" stroke-width="2.87140807" stroke-linecap="round" stroke-linejoin="round" mask="url(#mask-18)"></path>
                                </g>
                                <g id="Path-Clipped">
                                    <mask id="mask-20" fill="white">
                                        <use xlink:href="#path-19"></use>
                                    </mask>
                                    <g id="path-5"></g>
                                    <path d="M153.692545,-1.50591473 C153.779927,1.45722772 153.199459,4.8221522 154.29798,7.59068149 C155.128113,9.66864792 156.757173,10.591491 158.392472,11.9035604 C165.227028,17.4029519 171.293865,13.1842407 178.846206,12.0981736 C186.579552,10.9869952 194.119408,11.3511102 201.053829,14.8415916" id="Path" stroke="#FCF3E4" stroke-width="2.87140807" stroke-linecap="round" stroke-linejoin="round" mask="url(#mask-20)"></path>
                                </g>
                                <g id="Path-Clipped">
                                    <mask id="mask-22" fill="white">
                                        <use xlink:href="#path-21"></use>
                                    </mask>
                                    <g id="path-5"></g>
                                    <path d="M135.048876,95.7504473 C134.056461,95.8508929 136.372097,95.3549431 136.765318,95.1854413 C138.388134,94.4886006 140.647595,94.0365959 142.413969,93.8168712 C147.09517,93.2267539 158.161533,92.8940282 159.753141,99.3037072 C161.756696,107.364459 155.296637,114.916706 152.54409,121.83489 C150.09114,128.006011 150.577985,140.35453 153.130801,146.136425" id="Path" stroke="#FCF3E4" stroke-width="2.87140807" stroke-linecap="round" stroke-linejoin="round" mask="url(#mask-22)"></path>
                                </g>
                                <g id="Path-Clipped">
                                    <mask id="mask-24" fill="white">
                                        <use xlink:href="#path-23"></use>
                                    </mask>
                                    <g id="path-5"></g>
                                    <path d="M48.920995,27.9622859 C48.7524717,29.2366883 50.9058248,31.1200414 51.6236092,32.0868295 C54.2388409,35.5961444 55.2687053,39.3000725 56.2985699,43.4497275 C57.5156825,48.340168 52.0355549,53.98395 50.2629396,58.1461607 C48.5402572,62.1765366 49.0707935,66.953976 47.535359,71.0847975 C45.4693885,76.6155782 40.5634884,80.049559 36.6250369,84.0171565 C31.494439,89.1712666 24.8034405,94.9217719 17.5319728,96.7549023" id="Path" stroke="#FCF3E4" stroke-width="2.87140807" stroke-linecap="round" stroke-linejoin="round" mask="url(#mask-24)"></path>
                                </g>
                                <g id="Path-Clipped">
                                    <mask id="mask-26" fill="white">
                                        <use xlink:href="#path-25"></use>
                                    </mask>
                                    <g id="path-5"></g>
                                    <path d="M230.9948,42.0748796 C224.809372,42.1502137 220.346625,52.4082111 220.346625,58.3470517 C220.346625,64.2482252 224.49105,68.9942755 225.215075,74.8075592 C226.057691,81.6001866 222.256555,90.5210031 226.382255,96.7549023 C228.329636,99.6866556 231.731309,102.128737 234.178018,104.589652" id="Path" stroke="#FCF3E4" stroke-width="2.87140807" stroke-linecap="round" stroke-linejoin="round" mask="url(#mask-26)"></path>
                                </g>
                            </g>
                            <path d="M185.437057,51.6409649 C181.798202,53.0472012 180.044311,54.1207132 179.008205,54.8740542 C172.1362,59.9277186 171.362242,61.3339562 167.030569,66.4127323 C156.862998,78.346914 147.438176,91.072103 139.667381,104.349744 C134.961211,112.379106 131.316115,120.866753 127.446321,129.297896 C124.40666,135.9273 122.440556,147.509922 125.068271,154.327662 C127.683502,161.139123 131.428464,162.432359 135.504231,163.675371 C141.02805,165.357834 149.273208,165.51478 157.992727,164.485214 C180.737129,161.792018 203.119518,155.200282 224.453317,147.152085 C228.984722,145.444512 236.455921,143.115431 239.745245,139.80073 C240.400613,139.147835 239.152293,134.659176 239.033702,134.075337 C238.041288,129.071894 236.056458,122.900774 233.978004,117.665052 C226.631637,99.1893562 223.716808,83.7521377 210.141322,62.6209142 C206.227837,56.5251275 201.440527,53.4175944 196.590801,51.7979108 C195.099058,51.2956835 187.44061,50.8625122 185.437057,51.6409649 Z" id="Path" fill="#FFFFFF" fill-rule="nonzero"></path>
                            <path d="M226.768953,107.852781 C226.669087,107.877893 227.561636,105.228643 227.680227,104.745248 C228.410494,101.813495 229.808612,99.0386883 230.919619,96.2450469 C233.166595,90.5949875 235.357398,83.6391361 238.952562,78.8177516 C240.007392,77.3989595 240.625311,74.4295384 242.329268,73.5757517 C243.677455,72.8977447 247.047921,73.9963671 248.25255,74.4860399 C252.116103,76.0366662 255.280595,77.8321308 258.963141,80.2930452 C260.79193,81.5172252 262.545822,83.5638022 263.881525,84.9072603 C264.249779,85.2839315 263.088841,87.0731169 262.895352,87.456066 C261.659513,89.9420922 260.610925,92.4846186 259.375087,94.9706448 C258.133008,97.4692269 256.965829,99.2270226 256.104487,100.018031 C255.349253,100.714872 249.763018,102.077164 246.03054,103.075342 C244.969467,103.357844 241.530344,104.707582 237.679275,105.887816 C235.120217,106.672547 228.210762,109.189961 227.536669,108.894903 C227.26828,108.781902 226.375732,108.719124 226.768953,107.852781 Z" id="Path" fill="#FFFFFF" fill-rule="nonzero"></path>
                            <path d="M369.199863,213.560346 C371.714073,217.438883 374.858219,222.792381 377.19144,226.576819 C382.456785,235.118481 387.928163,243.534523 393.586848,251.818674 C395.346217,254.398059 396.71249,256.531887 398.665416,258.966826 C399.513971,260.021127 400.655434,262.431239 401.99753,262.292668 C404.269733,262.047059 406.230425,260.100392 408.115984,258.806597 C410.507267,257.179925 412.942188,255.722727 414.840542,253.537542 C415.377576,252.915895 408.988453,244.958421 409.569077,244.64435 C414.913316,241.723511 421.15895,249.45505 426.971558,245.925144 C432.871569,242.351265 438.415983,238.199993 443.84808,233.935767 C449.273934,229.671543 454.581252,225.225317 459.507942,220.377473 C461.599757,218.317767 465.665492,212.170808 462.364519,209.04583 C459.256984,206.109105 450.654789,207.844658 447.527436,208.046623 C437.06547,208.721949 426.603489,209.441216 416.141542,210.066322 C413.669626,210.211563 411.197737,210.281475 408.725845,210.357665 C407.870673,210.376796 406.753136,210.967257 406.154107,210.358562 C403.452247,207.597463 401.59332,204.107894 399.453406,200.888351 C397.725254,198.290124 395.678845,195.434635 393.464003,192.284168" id="Path" stroke="#FFFFFF" stroke-width="2.87140807" stroke-linecap="round" stroke-linejoin="round" transform="translate(416.405463, 227.291284) rotate(-12.373753) translate(-416.405463, -227.291284) "></path>
                            <path d="M382.836511,239.389387 C382.567929,239.885392 384.971352,239.25054 385.589406,238.99923 C388.017914,238.025391 390.140679,236.712682 392.438168,235.556846 C398.98726,232.258945 406.705141,224.597867 406.70782,216.901815" id="Path" stroke="#FFFFFF" stroke-width="2.87140807" stroke-linecap="round" stroke-linejoin="round" transform="translate(394.761739, 228.237737) rotate(-12.373753) translate(-394.761739, -228.237737) "></path>
                            <path d="M421.812876,209.09739 C421.912404,210.089179 421.76165,212.801055 421.761478,213.296967 C421.76044,216.278716 421.047725,219.486699 421.046783,222.192245" id="Path" stroke="#FFFFFF" stroke-width="2.87140807" stroke-linecap="round" stroke-linejoin="round" transform="translate(421.446821, 215.644817) rotate(-12.373753) translate(-421.446821, -215.644817) "></path>
                            <path d="M431.578337,205.408142 C431.740004,207.20969 431.621186,207.837469 431.620869,208.747687 C431.619735,212.005641 431.331446,215.320192 431.330336,218.509095" id="Path" stroke="#FFFFFF" stroke-width="2.87140807" stroke-linecap="round" stroke-linejoin="round" transform="translate(431.496792, 211.958618) rotate(-12.373753) translate(-431.496792, -211.958618) "></path>
                            <path d="M325.704603,272.583412 C328.21997,276.46312 331.365737,281.818122 333.700097,285.603661 C338.968011,294.147807 344.441896,302.566396 350.10303,310.853151 C351.863162,313.433344 353.230073,315.567812 355.183695,318.003615 C356.032552,319.058293 357.174766,321.468985 358.516711,321.330873 C360.788655,321.086036 362.748517,319.139905 364.633482,317.846669 C367.024015,316.220707 369.458241,314.764247 371.355688,312.579557 C371.892467,311.958052 365.501065,303.997744 366.081534,303.683852 C371.424346,300.764655 377.672191,308.498959 383.483124,304.970811 C389.381438,301.398718 394.923981,297.249062 400.354177,292.986407 C405.77813,288.72375 411.083492,284.279036 416.008117,279.43254 C418.099055,277.373407 422.162338,271.227398 418.86053,268.101031 C415.752211,265.163 407.151283,266.895685 404.02424,267.096577 C393.563312,267.768306 383.102385,268.48398 372.641459,269.105487 C370.169784,269.249877 367.698108,269.318933 365.226434,269.394267 C364.371334,269.413101 363.254088,270.003218 362.654894,269.394267 C359.95228,266.632016 358.092281,263.141535 355.951412,259.921001 C354.222489,257.321973 352.175242,254.465554 349.959473,251.314077" id="Path" stroke="#1F1F1E" stroke-width="2.87140807" stroke-linecap="round" stroke-linejoin="round"></path>
                            <path d="M339.648345,293.739748 C339.379956,294.235697 341.782973,293.601634 342.400891,293.350521 C344.828875,292.377456 346.951021,291.065386 349.247931,289.910262 C355.795372,286.614394 363.509994,278.955424 363.509994,271.258788" id="Path" stroke="#1F1F1E" stroke-width="2.87140807" stroke-linecap="round" stroke-linejoin="round"></path>
                            <path d="M380.680644,269.494713 C380.78051,270.486612 380.630711,273.198641 380.630711,273.694591 C380.630711,276.676566 379.919168,279.884545 379.919168,282.590297" id="Path" stroke="#1F1F1E" stroke-width="2.87140807" stroke-linecap="round" stroke-linejoin="round"></path>
                            <path d="M390.998013,268.057087 C391.160295,269.858828 391.041705,270.486612 391.041705,271.3969 C391.041705,274.655101 390.754591,277.969802 390.754591,281.158947" id="Path" stroke="#1F1F1E" stroke-width="2.87140807" stroke-linecap="round" stroke-linejoin="round"></path>
                            <path d="M245.968123,68.2835295 C245.693492,67.2100175 245.10054,64.1024844 245.10054,63.2549756 C245.10054,59.6766049 245.13799,55.4892832 246.735841,52.2750264 C248.714429,48.2948727 252.534289,44.8985596 254.569053,40.7991277 C257.265425,35.3813481 255.76744,26.5798099 264.025081,24.3700091 C268.281855,23.233719 270.547556,29.0218919 270.385275,32.6253744 C270.154335,37.7732065 269.093262,40.9058514 269.093262,46.072516 C269.093262,48.3576521 270.166819,51.0069022 269.723664,55.8722309 C269.617558,57.0022431 268.937223,59.1178761 268.362995,61.1832869" id="Path" stroke="#FFFFFF" stroke-width="2.87140807" stroke-linecap="round" stroke-linejoin="round"></path>
                            <path d="M270.566282,30.4971855 C271.558696,24.8408481 277.787815,18.1926106 281.638885,15.279691 C283.442709,13.9236769 285.727135,12.0026561 287.768139,10.9982014 C290.938874,9.44757385 295.126989,8.50589727 296.624974,11.5129846 C298.740878,15.7756404 295.645042,17.5962154 294.003501,20.8920841 C293.017328,22.8758817 291.382027,24.6650684 289.309815,27.1950389 C286.538544,30.5725195 283.592507,33.4540494 281.638885,37.3777029" id="Path" stroke="#FFFFFF" stroke-width="2.87140807" stroke-linecap="round" stroke-linejoin="round"></path>
                            <path d="M294.353031,20.4275231 C295.420345,19.5046804 297.199202,17.8724409 298.160409,17.3388238 C300.85054,15.8384185 308.440329,12.9443327 310.58744,17.853607 C313.034149,23.4534443 307.441673,27.4398746 303.097517,30.3527942 C298.603562,33.3661595 293.810011,38.4951591 290.327197,41.9981959" id="Path" stroke="#FFFFFF" stroke-width="2.87140807" stroke-linecap="round" stroke-linejoin="round"></path>
                            <path d="M307.39174,27.0883152 C310.156771,25.9018029 312.753277,27.4649864 313.483545,27.9546578 C315.99891,29.6433988 315.512065,33.4038271 314.669449,35.9463535 C314.064013,37.7794845 312.135359,39.5184476 310.755964,40.629626 C306.374359,44.1577745 300.451077,46.3675753 296.456451,50.3916732" id="Path" stroke="#FFFFFF" stroke-width="2.87140807" stroke-linecap="round" stroke-linejoin="round"></path>
                            <path d="M305.656575,44.1577745 C306.992277,43.6743797 308.215631,43.3918776 309.588784,43.5551014 C311.773345,43.8062151 313.864282,44.8169477 314.675691,46.9639704 C316.897701,52.8463097 312.572271,54.7296642 308.808583,57.1654669 C304.308388,60.0846644 300.407386,62.2567989 295.513969,63.6755911 C292.642831,64.5105453 287.980354,66.4001764 285.558612,67.8566362 C281.944724,70.0413252 278.255936,71.9560681 274.829297,74.5362621 C272.54487,76.2626694 268.937223,78.3155243 266.228367,80.2930452" id="Path" stroke="#FFFFFF" stroke-width="2.87140807" stroke-linecap="round" stroke-linejoin="round"></path>
                            <path d="M232.854515,107.356832 C232.817066,107.174774 234.47109,106.685103 234.864311,106.553267 C237.298537,105.737148 239.720278,104.77036 242.129537,103.803571 C248.91416,101.072709 255.667575,99.5534715 262.845418,98.6494613 C265.017496,98.3795138 267.607762,98.1158442 269.748631,98.6494613 C271.708495,99.1454107 273.899297,99.2019121 275.584531,100.325646 C276.090101,100.670928 277.132448,101.066431 277.132448,101.643993" id="Path" stroke="#FFFFFF" stroke-width="2.87140807" stroke-linecap="round" stroke-linejoin="round"></path>
                            <path d="M259.381329,106.339821 C266.122259,105.165863 272.54487,102.196444 279.391908,103.922851 C281.045933,104.337188 284.510023,105.134475 284.510023,107.27522" id="Path" stroke="#FFFFFF" stroke-width="2.87140807" stroke-linecap="round" stroke-linejoin="round"></path>
                            <path d="M265.935012,111.650877 C265.803938,111.713655 267.114674,111.010536 267.489171,110.866146 C268.681317,110.414141 269.948362,110.301141 271.177958,110.031193 C274.791847,109.221351 279.835062,109.240185 283.442709,110.150472 C283.991969,110.288585 286.657134,111.054482 286.657134,111.707377" id="Path" stroke="#FFFFFF" stroke-width="2.87140807" stroke-linecap="round" stroke-linejoin="round"></path>
                            <path d="M297.492557,90.0739263 C296.880881,91.4927198 293.042294,101.650271 291.656658,105.360477 C290.414579,108.687734 289.378473,112.159382 288.086461,115.417583 C287.699482,116.384372 287.399885,118.506283 286.775725,119.12779 C286.388745,119.523293 284.004453,119.491905 283.442709,119.491905 L274.510975,119.491905" id="Path" stroke="#FFFFFF" stroke-width="2.87140807" stroke-linecap="round" stroke-linejoin="round"></path>
                            <path d="M297.517524,89.9232584 C300.176447,89.4838091 306.823754,88.0775715 312.509854,86.8094473 C314.59455,86.3386097 331.37822,83.042741 331.421912,83.0866853 C331.914998,83.582636 327.346144,94.4433057 325.710845,98.2916239 C323.956955,102.403612 320.51159,115.141358 319.756355,115.894699 C319.438033,116.21487 305.918721,117.545772 301.28121,118.211223 C297.960678,118.68834 289.184984,119.96902 285.93935,119.96902" id="Path" stroke="#FFFFFF" stroke-width="2.87140807" stroke-linecap="round" stroke-linejoin="round"></path>
                            <path d="M183.25613,22.7464832 C181.646662,22.6346425 180.407256,22.5367814 179.631892,22.4598904 C177.869702,22.2851383 176.242614,22.4389204 174.521541,22.8443443 C174.080994,22.9491945 172.96494,23.1728771 172.677116,23.6901417 C172.101468,24.7106913 173.05305,26.0737546 173.599328,26.7238299 C175.197048,28.6251279 177.928442,29.3660752 179.902095,30.5404068 C180.107684,30.6662271 179.526161,31.8545383 179.467421,32.0292904 C179.132605,33.0358591 178.997504,35.0559882 179.579027,35.9786767 C180.419004,37.3067891 181.71715,37.6632824 183.003549,38.0477363 C185.517606,38.795674 188.466337,38.236468 191.045009,38.236468" id="Path" stroke="#FFFFFF" stroke-width="2.87140807" stroke-linecap="round" stroke-linejoin="round"></path>
                            <path d="M198.293998,21.5455193 C198.250305,21.1060701 199.442453,20.8298447 199.816948,20.7105664 C201.514664,20.1392817 203.63681,20.3464511 205.15976,21.2190717 C208.779891,23.2970371 207.606469,28.105867 205.034928,30.6923376 C204.036272,31.6967936 202.138825,31.7093495 200.83433,31.9730177" id="Path" stroke="#FFFFFF" stroke-width="2.87140807" stroke-linecap="round" stroke-linejoin="round"></path>
                            <path d="M197.569971,21.4262398 C197.382724,21.1060701 196.196819,21.1311818 195.872255,20.9616801 C194.592727,20.3213394 193.1634,19.9572241 191.540583,19.681 C188.607029,19.1913272 186.228978,17.9106471 183.651196,16.3537416 C182.122003,15.4308988 180.018583,14.6775578 179.200933,13.0264845 C176.816641,8.24276766 181.079656,3.93616637 186.197771,4.9657328 C188.014076,5.32984808 190.735415,6.89930817 192.689038,6.2464129 C195.822322,5.19173471 197.956951,3.45904949 201.595805,4.06800049 C204.073722,4.48233928 205.908753,6.20874526 206.944859,8.29298988 C207.281906,8.97099691 207.400496,10.8041279 207.831167,11.2372992 C208.005931,11.4130789 208.848549,11.1682431 209.104454,11.2372992 C210.352775,11.5511909 211.994316,11.7206927 213.049147,12.5179793 C217.817732,16.1151838 216.943908,22.3176942 214.197602,26.4673496" id="Path" stroke="#FFFFFF" stroke-width="2.87140807" stroke-linecap="round" stroke-linejoin="round"></path>
                            <path d="M200.803884,32.0917573 C200.56046,33.7867749 200.454354,36.7373622 200.429387,37.2709792 C200.111065,43.6178795 200.304555,45.4572884 200.304555,50.3853953" id="Path" stroke="#FFFFFF" stroke-width="2.87140807" stroke-linecap="round" stroke-linejoin="round"></path>
                            <path d="M213.024942,196.408051 C225.489423,191.05305 235.894175,185.672938 243.003361,182.333125 C251.623015,178.277637 275.366074,165.194609 278.967479,163.957875 C286.257672,161.453015 290.445788,161.898742 297.355242,166.97124 C309.33912,175.779055 323.819639,188.284521 333.207011,198.435794 C340.353646,206.16382 348.754843,213.565399 356.17611,221.029756" id="Path" stroke="#1F1F1E" stroke-width="2.87140807" stroke-linecap="round" stroke-linejoin="round"></path>
                            <path d="M310.543749,99.7731955 C309.838448,99.3274683 309.052007,99.892475 308.696235,100.620704 C308.17194,101.675382 308.146974,102.918395 309.407778,103.395512 C311.423816,104.155131 313.07784,100.1687 310.62489,100.1687" id="Path" stroke="#FFFFFF" stroke-width="2.87140807" stroke-linecap="round" stroke-linejoin="round"></path>
                            <path d="M150.377972,128.136496 C149.916093,128.136496 151.164413,128.412721 151.245555,128.425277 C151.957098,128.544555 152.662398,128.645001 153.367699,128.714057 C155.215214,128.902393 157.112661,128.827059 158.966418,128.714057 C164.97084,128.362498 170.931571,127.251319 176.923509,126.680036 C188.651482,125.556302 200.604151,121.387813 211.3834,116.874043 C214.504202,115.568251 217.899634,113.99879 220.845671,112.31005 C222.200099,111.531598 223.797949,110.257195 225.283451,109.880524" id="Path" stroke="#1F1F1E" stroke-width="2.87140807" stroke-linecap="round" stroke-linejoin="round"></path>
                            <path d="M208.907764,85.0331431 C208.601159,89.7226681 208.457132,92.5978972 208.294374,95.5107965 C208.056478,99.8864222 207.662537,104.274628 207.231153,108.618897 C206.981073,111.155145 206.65599,114.325459 206.512035,116.754968" id="Path" stroke="#1F1F1E" stroke-width="2.87140807" stroke-linecap="round" stroke-linejoin="round" transform="translate(207.709899, 100.894055) rotate(-5.637647) translate(-207.709899, -100.894055) "></path>
                            <path d="M220.171578,115.900977 C221.769428,117.87222 222.999024,120.23269 224.128754,122.505269 C226.600429,127.477323 228.454185,135.732687 228.678883,141.627583" id="Path" stroke="#1F1F1E" stroke-width="2.87140807" stroke-linecap="round" stroke-linejoin="round"></path>
                            <path d="M240.537929,82.0131746 C242.897255,82.2203427 243.808529,82.1826763 246.124163,82.8418496 C251.023822,84.2480871 255.186972,86.4892776 258.644819,89.5528652" id="Path" stroke="#1F1F1E" stroke-width="2.87140807" stroke-linecap="round" stroke-linejoin="round"></path>
                        </g>
                    </g>
                </g>
                <g id="BBC" transform="translate(104.000000, 183.500000) rotate(-30.000000) translate(-104.000000, -183.500000) translate(91.000000, 179.000000)" fill="#1F1F1E" fill-rule="nonzero">
                    <path d="M13.1682081,5.94747386 L12.1778071,5.94747386 L12.1778071,4.52563742 L13.1682081,4.52563742 C14.1874679,4.51887923 14.1586347,5.2072998 14.1586347,5.2072998 C14.1586347,5.99417142 13.1682081,5.94747386 13.1682081,5.94747386 Z M12.1778071,2.35722441 L12.932506,2.35722441 C13.7161922,2.39815464 13.6866138,2.97501429 13.6866138,2.97501429 C13.6866138,3.69189039 12.8200516,3.70357748 12.8200516,3.70357748 L12.1778071,3.70357748 L12.1778071,2.35722441 Z M14.6473079,2.94005464 C14.6473079,2.94005464 14.7504083,1.69858052 13.086694,1.54715645 L11.240601,1.54715645 L11.240601,6.75169879 L13.3566772,6.75169879 C13.3566772,6.75169879 15.124751,6.75690666 15.124751,5.28321509 C15.1247253,5.28321509 15.166536,4.28033551 13.9754337,3.98317847 C13.9754337,3.98317847 14.6533469,3.6975815 14.6473079,2.94005464 Z M9.19778989,0.527355991 C11.2082924,0.17578533 12.6487379,-6.34211875e-14 13.5191266,-6.34211875e-14 C14.3895152,-6.34211875e-14 15.5398821,0.17578533 16.9702273,0.527355991 L16.9702273,7.76860237 C14.1631448,8.24589706 12.291153,8.4845444 11.3542518,8.4845444 C10.4173506,8.4845444 9.56843883,8.28442673 8.80751653,7.88419139 L9.19778989,0.527355991 Z M4.20536222,5.94747386 L3.21488418,5.94747386 L3.21488418,4.52563742 L4.20536222,4.52563742 C5.22469911,4.51887923 5.19578886,5.2072998 5.19578886,5.2072998 C5.19578886,5.99417142 4.20536222,5.94747386 4.20536222,5.94747386 Z M3.96973725,2.35722441 C4.75344917,2.39815464 4.72379368,2.97501429 4.72379368,2.97501429 C4.72379368,3.69189039 3.8572828,3.70357748 3.8572828,3.70357748 L3.21488418,3.70357748 L3.21488418,2.35722441 L3.96973725,2.35722441 Z M5.68459053,2.94005464 C5.68459053,2.94005464 5.78761381,1.69858052 4.12389955,1.54715645 L2.27772949,1.54715645 L2.27772949,6.75169879 L4.39393414,6.75169879 C4.39393414,6.75169879 6.16198228,6.75690666 6.16198228,5.28321509 C6.16198228,5.28321509 6.20363874,4.28033551 5.0126649,3.98317847 C5.0126649,3.98317847 5.69068095,3.6975815 5.68459053,2.94005464 Z M0.235021124,0.527355991 C2.27371695,0.191013277 3.81667809,0.0228419199 4.86390454,0.0228419199 C5.911131,0.0228419199 6.95898232,0.191013277 8.0074585,0.527355991 L8.0074585,7.76860237 C7.23950576,8.21017984 6.3331317,8.43096857 5.28833631,8.43096857 C4.24354093,8.43096857 2.48076216,8.62064571 -5.23817853e-13,9 C0.032009193,6.44405068 0.062013395,4.66138234 0.0900126062,3.65199499 C0.118011817,2.64260765 0.16634799,1.60106131 0.235021124,0.527355991 Z M24.3474808,2.88182243 C24.3474808,2.88182243 23.3981452,2.305039 22.3491015,2.29342813 C22.3491015,2.29342813 20.391916,2.25544508 20.3036948,4.14824595 C20.3036948,4.14824595 20.2329996,5.88893677 22.3255107,5.98812462 C22.3255107,5.98812462 23.2034829,6.09267329 24.3945595,5.34175218 L24.3945595,6.33756869 C24.3945595,6.33756869 22.7968377,7.27606764 20.9459649,6.55322096 C20.9459649,6.55322096 19.3900795,5.99150372 19.3308199,4.14824595 C19.3308199,4.14824595 19.2661123,2.25242168 21.3411745,1.62309715 C21.3411745,1.62309715 21.8953005,1.41336465 22.891098,1.50658191 C22.8911237,1.50655651 23.4862894,1.56476331 24.3474808,1.92027959 L24.3474808,2.88182243 Z M18.1605843,7.76860237 C21.0623361,7.99889721 23.1485734,8.11404463 24.4192965,8.11404463 C25.6900195,8.11404463 26.1945946,7.99889721 25.9330217,7.76860237 C25.7917644,7.30237846 25.6954079,6.48770657 25.6439523,5.32458671 C25.5924968,4.16146685 25.5777053,2.4637119 25.5995779,0.231321865 L18.1605843,0.527355991 C17.9644777,1.39555003 17.8664244,2.30949075 17.8664244,3.26917816 C17.8664244,4.22886557 17.9644777,5.72867364 18.1605843,7.76860237 Z" id="Shape"></path>
                </g>
                <g id="BBC" transform="translate(104.000000, 183.500000) rotate(-30.000000) translate(-104.000000, -183.500000) translate(91.000000, 179.000000)" fill="#1F1F1E" fill-rule="nonzero">
                    <path d="M13.1682081,5.94747386 L12.1778071,5.94747386 L12.1778071,4.52563742 L13.1682081,4.52563742 C14.1874679,4.51887923 14.1586347,5.2072998 14.1586347,5.2072998 C14.1586347,5.99417142 13.1682081,5.94747386 13.1682081,5.94747386 Z M12.1778071,2.35722441 L12.932506,2.35722441 C13.7161922,2.39815464 13.6866138,2.97501429 13.6866138,2.97501429 C13.6866138,3.69189039 12.8200516,3.70357748 12.8200516,3.70357748 L12.1778071,3.70357748 L12.1778071,2.35722441 Z M14.6473079,2.94005464 C14.6473079,2.94005464 14.7504083,1.69858052 13.086694,1.54715645 L11.240601,1.54715645 L11.240601,6.75169879 L13.3566772,6.75169879 C13.3566772,6.75169879 15.124751,6.75690666 15.124751,5.28321509 C15.1247253,5.28321509 15.166536,4.28033551 13.9754337,3.98317847 C13.9754337,3.98317847 14.6533469,3.6975815 14.6473079,2.94005464 Z M9.19778989,0.527355991 C11.2082924,0.17578533 12.6487379,-6.34211875e-14 13.5191266,-6.34211875e-14 C14.3895152,-6.34211875e-14 15.5398821,0.17578533 16.9702273,0.527355991 L16.9702273,7.76860237 C14.1631448,8.24589706 12.291153,8.4845444 11.3542518,8.4845444 C10.4173506,8.4845444 9.56843883,8.28442673 8.80751653,7.88419139 L9.19778989,0.527355991 Z M4.20536222,5.94747386 L3.21488418,5.94747386 L3.21488418,4.52563742 L4.20536222,4.52563742 C5.22469911,4.51887923 5.19578886,5.2072998 5.19578886,5.2072998 C5.19578886,5.99417142 4.20536222,5.94747386 4.20536222,5.94747386 Z M3.96973725,2.35722441 C4.75344917,2.39815464 4.72379368,2.97501429 4.72379368,2.97501429 C4.72379368,3.69189039 3.8572828,3.70357748 3.8572828,3.70357748 L3.21488418,3.70357748 L3.21488418,2.35722441 L3.96973725,2.35722441 Z M5.68459053,2.94005464 C5.68459053,2.94005464 5.78761381,1.69858052 4.12389955,1.54715645 L2.27772949,1.54715645 L2.27772949,6.75169879 L4.39393414,6.75169879 C4.39393414,6.75169879 6.16198228,6.75690666 6.16198228,5.28321509 C6.16198228,5.28321509 6.20363874,4.28033551 5.0126649,3.98317847 C5.0126649,3.98317847 5.69068095,3.6975815 5.68459053,2.94005464 Z M0.235021124,0.527355991 C2.27371695,0.191013277 3.81667809,0.0228419199 4.86390454,0.0228419199 C5.911131,0.0228419199 6.95898232,0.191013277 8.0074585,0.527355991 L8.0074585,7.76860237 C7.23950576,8.21017984 6.3331317,8.43096857 5.28833631,8.43096857 C4.24354093,8.43096857 2.48076216,8.62064571 -5.23817853e-13,9 C0.032009193,6.44405068 0.062013395,4.66138234 0.0900126062,3.65199499 C0.118011817,2.64260765 0.16634799,1.60106131 0.235021124,0.527355991 Z M24.3474808,2.88182243 C24.3474808,2.88182243 23.3981452,2.305039 22.3491015,2.29342813 C22.3491015,2.29342813 20.391916,2.25544508 20.3036948,4.14824595 C20.3036948,4.14824595 20.2329996,5.88893677 22.3255107,5.98812462 C22.3255107,5.98812462 23.2034829,6.09267329 24.3945595,5.34175218 L24.3945595,6.33756869 C24.3945595,6.33756869 22.7968377,7.27606764 20.9459649,6.55322096 C20.9459649,6.55322096 19.3900795,5.99150372 19.3308199,4.14824595 C19.3308199,4.14824595 19.2661123,2.25242168 21.3411745,1.62309715 C21.3411745,1.62309715 21.8953005,1.41336465 22.891098,1.50658191 C22.8911237,1.50655651 23.4862894,1.56476331 24.3474808,1.92027959 L24.3474808,2.88182243 Z M18.1605843,7.76860237 C21.0623361,7.99889721 23.1485734,8.11404463 24.4192965,8.11404463 C25.6900195,8.11404463 26.1945946,7.99889721 25.9330217,7.76860237 C25.7917644,7.30237846 25.6954079,6.48770657 25.6439523,5.32458671 C25.5924968,4.16146685 25.5777053,2.4637119 25.5995779,0.231321865 L18.1605843,0.527355991 C17.9644777,1.39555003 17.8664244,2.30949075 17.8664244,3.26917816 C17.8664244,4.22886557 17.9644777,5.72867364 18.1605843,7.76860237 Z" id="Shape"></path>
                </g>
            </g>
        </g>
    </g>
</svg>