<?xml version="1.0" encoding="UTF-8"?>
<svg width="206px" height="166px" viewBox="0 0 206 166" version="1.1" xmlns="http://www.w3.org/2000/svg" xmlns:xlink="http://www.w3.org/1999/xlink">
    <title>sad</title>
    <defs>
        <polygon id="path-1" points="0 0 206 0 206 166 9.95685593e-14 166"></polygon>
    </defs>
    <g id="Page-1" stroke="none" stroke-width="1" fill="none" fill-rule="evenodd">
        <g id="Artboard" transform="translate(-938.000000, -1158.000000)">
            <g id="sad" transform="translate(938.000000, 1158.000000)">
                <mask id="mask-2" fill="white">
                    <use xlink:href="#path-1"></use>
                </mask>
                <g id="Path"></g>
                <g id="Group-13" mask="url(#mask-2)">
                    <g transform="translate(0.000001, -0.002358)" id="Path">
                        <path d="M0.00485123323,40.4054915 C0.162497809,66.2244256 1.28354013,107.646672 1.81253197,134.392709 C2.34152381,161.138746 8.23750574,162.125323 21.206564,164.850655 C34.1756223,167.582984 163.316194,164.567276 176.176651,164.784183 C198.261185,165.162021 206.034913,159.305531 206.000116,128.518726 C205.964848,97.7319215 205.379804,51.9645373 205.281712,37.0714205 C205.113556,11.822742 203.151732,2.42926801 185.838635,0.687014732 C172.603329,-0.642415477 39.8614088,0.284687169 24.706318,0.753486242 C6.16708072,1.32724033 -0.201840944,6.91084721 0.00485123323,40.4054915 Z" stroke="none" fill="#FFFFFF" fill-rule="nonzero"></path>
                        <path d="M110.646473,33.7824801 C94.4894506,31.4000012 63.348997,37.7987587 56.7628734,71.0590035 C50.1732465,104.319248 67.1465278,121.000099 85.9485094,129.501455 C104.746988,138.002812 139.881155,128.25249 148.299482,101.516949 C156.721312,74.7814081 145.048459,38.8518074 110.646473,33.7824801" stroke="none" fill="#FFFFFF" fill-rule="nonzero"></path>
                        <path d="M90.5388274,58.3885052 C90.7595326,63.8741541 91.4041319,75.2442809 91.4041319,75.2442809" stroke="#1F1F1E" stroke-width="7.70716592" fill="none" stroke-linecap="round" stroke-linejoin="round"></path>
                        <path d="M115.410552,56.877153 C115.456095,60.8899331 115.582212,75.4926744 115.582212,75.4926744" stroke="#1F1F1E" stroke-width="7.70716592" fill="none" stroke-linecap="round" stroke-linejoin="round"></path>
                        <path d="M72.8971246,88.910446 C73.6853575,98.401878 82.8463752,110.673404 103.603174,110.404019 C123.746903,110.14513 132.371923,101.043246 133.87482,87.7629378" stroke="#1F1F1E" stroke-width="7.70716592" fill="none" stroke-linecap="round" stroke-linejoin="round" transform="translate(103.385972, 99.085658) scale(1, -1) translate(-103.385972, -99.085658) "></path>
                    </g>
                </g>
            </g>
        </g>
    </g>
</svg>