<?xml version="1.0" encoding="UTF-8"?>
<svg width="562px" height="528px" viewBox="0 0 562 528" version="1.1" xmlns="http://www.w3.org/2000/svg" xmlns:xlink="http://www.w3.org/1999/xlink">
    <title>save-money</title>
    <g id="Page-1" stroke="none" stroke-width="1" fill="none" fill-rule="evenodd">
        <g id="Artboard" transform="translate(-761.000000, -2422.000000)">
            <g id="save-money" transform="translate(761.000000, 2423.684338)">
                <path d="M196.164488,154.455148 C198.895626,150.351548 201.914026,145.701755 203.606159,142.70627 C206.000014,138.465406 208.118039,134.204525 210.296089,129.876443 C211.799573,122.231164 215.668327,114.984807 221.843757,109.372741 C237.074387,95.5020008 260.607048,96.7187826 274.352774,112.08655 C287.118092,126.364791 276.955287,162.97548 276.955287,162.97548 C276.955287,162.97548 277.61842,161.818751 277.885674,161.302584 C274.678624,167.606686 271.660224,173.743498 268.197353,179.88174 C261.724656,191.328926 253.471218,205.647201 243.2098,215.909061 C225.248032,233.873392 202.625751,242.861277 173.976673,232.297724 C163.407985,228.407168 153.017942,219.273441 145.060342,210.199767 C143.685483,212.231549 142.091962,214.157524 140.281208,215.947666 C122.538102,233.377243 101.459321,249.951783 79.8160193,265.145112 C74.0178897,269.220116 67.9910933,273.053479 62.1815303,276.855385 C60.5980135,277.88629 48.6930541,283.975918 45.6460705,284.666524 C28.3374314,288.595685 17.3328471,280.814573 11.3460674,274.92941 C6.02242114,269.687669 1.4405124,262.305478 0.114245621,252.218057 C-0.261625246,249.397011 0.361491476,243.260199 0.946020694,238.766256 C1.58914575,226.276728 7.8531838,212.115733 11.7919675,200.511267 C20.6885308,174.278253 36.610878,153.521472 51.9001044,130.96597 C64.7940472,111.959296 80.7078194,92.2348489 99.3713086,78.4813545 C108.951014,71.4194449 119.043789,69.6578996 128.454853,70.8846901 C139.776712,72.3531212 151.195755,78.8602584 158.381605,90.6291545 C161.99311,96.542914 165.475989,102.719761 169.404769,108.516275 C179.350341,123.184858 186.090291,139.856627 196.164488,154.455148 L196.164488,154.455148 Z" id="Path" fill="#FA8523"></path>
                <polygon id="Path" fill="#FFFFFF" points="81.7868403 189.860495 84.5922948 171.3514 98.4209126 149.417872 111.113343 146.022036 117.297348 144.047446 131.536136 139.544925 138.721987 140.750268 149.963813 137.930651 159.097618 141.120593 168.917423 141.723979 179.777661 132.697489 190.026217 126.646466 199.627359 132.503033 200.734963 141.480909 197.603659 150.428759 190.856562 157.158949 182.287278 161.118136 179.996324 174.249657 179.100236 186.504693 179.061649 221.920049 183.509216 255.379402 190.350637 273.159286 199.302938 272.069759 206.288706 334.145645 148.829055 335.644103 130.63862 327.152367 113.957385 297.544965 105.798272 250.573758 105.769688 209.391915"></polygon>
                <g id="Group" transform="translate(41.504345, 0.000000)">
                    <g id="Group-12" transform="translate(47.556664, 7.560100)" stroke="#1F1F1E" stroke-linecap="round" stroke-linejoin="round" stroke-width="3.26">
                        <path d="M40.3366338,21.8179699 C41.3565753,21.5407236 41.8362895,23.9500469 42.1507062,24.9237583 C43.1053896,27.8406029 43.819973,31.2936322 43.0768063,34.3291523 C41.4346936,41.0107283 33.2941596,40.9136555 28.54218,40.9136555" id="Path"></path>
                        <path d="M36.9299599,40.816272 C37.3501349,41.0893687 36.1582098,45.4760743 36.1582098,46.3225311 C36.1582098,49.9113939 36.8442099,53.5002566 36.8442099,56.9046718" id="Path"></path>
                        <path d="M18.4837041,27.5975325 C19.6098875,26.936953 15.6868247,24.310363 13.5487912,25.3998903 C7.41337812,28.5226298 9.73148666,38.3269453 16.5457539,38.3269453" id="Path"></path>
                        <path d="M24.4962088,19.9336662 C25.2965422,20.4298158 28.3420966,17.5401379 29.4396967,17.2098481 C32.912572,16.1503472 36.7012932,15.9458821 39.449581,13.1448534 C44.0586439,8.44644579 38.9922476,1.88068574 34.0101721,0.353631788 C31.8821428,-0.298368775 29.1624384,-0.0939036864 27.3974174,1.34593089 C26.0697214,2.42544937 18.0821082,3.2418799 15.2380663,3.82667865 C12.7770411,4.33140715 6.16285718,10.3037895 4.73083205,12.745932 C3.89191115,14.1757578 2.52705686,19.4275079 1.71529012,20.575658 C-0.469905906,23.6969677 -0.737160096,28.6870598 1.90679847,31.3822814" id="Path"></path>
                    </g>
                    <path d="M190.579392,92.7638844 C191.225375,91.3726639 191.081029,89.3208639 191.242525,87.7880907 C191.767029,82.8537618 191.50835,77.8522312 191.985692,72.9179024 C193.46345,57.5186786 192.332979,41.3158926 190.499358,26.1025462 C189.699025,19.4838826 187.589575,11.4840072 190.619409,5.19992285 C191.282542,3.83443922 192.251517,1.79121816 193.593505,0.969068323 C198.06108,-1.78620599 201.212393,1.8326831 204.105026,5.58597582 C208.928464,11.8357444 209.300048,21.8044898 209.300048,29.4368999 C209.300048,32.2179111 209.194289,35.2591506 209.194289,38.0158547 C209.194289,38.3761708 209.162848,43.8295264 209.36436,45.0277204" id="Path" stroke="#1F1F1E" stroke-width="3.26" stroke-linecap="round"></path>
                    <path d="M192.300109,69.6664785 C193.124738,68.5354863 197.455113,56.2461336 201.656864,52.098209 C205.542768,48.2619863 206.358822,46.787836 215.343994,41.6519017 C221.087815,38.3675918 234.451954,41.2572698 232.375375,49.8791193 C230.929058,55.8772385 224.440641,60.2081809 220.506144,64.2889037 C216.531632,68.4096616 210.664902,77.155906 209.543006,82.9710075" id="Path" stroke="#1F1F1E" stroke-width="3.26" stroke-linecap="round"></path>
                    <path d="M0,219.761012 C3.00696693,219.974056 6.0596672,217.14443 8.74221327,215.937657 C16.6726598,212.338786 24.9561105,207.291501 32.0176237,202.145558 C34.0413238,200.677127 36.5609449,198.255002 38.2788034,196.503465 C38.6503867,196.13457 40.9177606,190.995937 41.3279315,190.995937" id="Path" stroke="#1F1F1E" stroke-width="3.26" stroke-linecap="round" stroke-linejoin="round"></path>
                    <path d="M41.4086787,191.727847 C41.4944287,191.709259 41.2943453,181.603251 41.3329328,181.378768 C42.0189329,177.907151 43.2222913,173.597656 44.5385539,170.251864 C48.1743543,160.982303 54.7885382,149.416442 64.6183474,146.080659 C68.1869769,144.865307 70.8109271,147.374651 73.4934732,149.193389 C81.9870114,154.961307 83.466199,165.855149 84.4108783,175.444991 C84.80247,179.462801 81.1366572,186.095763 76.4032568,184.491499 C73.7978857,183.606437 71.6612813,180.425074 70.1535104,178.110186 C68.5113977,175.610851 62.5474847,170.758022 59.8363553,169.784311" id="Path" stroke="#1F1F1E" stroke-width="3.26" stroke-linecap="round"></path>
                    <path d="M72.0530335,146.562161 C72.9691294,145.618476 75.1927525,144.379166 76.4046859,143.551297 C81.3567489,140.187302 89.5644537,138.60124 94.7466125,142.365971 C104.680751,149.602319 107.467626,164.591183 105.806934,176.485904 C104.909418,182.818603 96.6931377,189.656029 90.5191372,184.939034 C88.658362,183.509208 85.7571534,180.610951 84.5923825,178.752178" id="Path" stroke="#1F1F1E" stroke-width="3.26" stroke-linecap="round"></path>
                    <path d="M94.7366084,142.345954 C96.5788044,140.828908 97.5134794,139.903811 100.271771,139.107398 C104.09908,137.987845 108.412305,137.385888 112.201027,139.107398 C115.912573,140.780294 118.699448,146.197904 119.921386,149.932609 C122.81259,158.774652 124.711953,170.221837 121.37199,179.296942 C120.790319,180.892627 120.217223,182.555515 119.339715,184.043963 C115.86541,189.939135 107.457622,188.25623 103.478822,184.189805" id="Path" stroke="#1F1F1E" stroke-width="3.26" stroke-linecap="round"></path>
                    <path d="M117.269693,142.119971 C119.426185,141.681015 122.192332,140.419978 124.426119,141.179216 C136.8613,145.41007 140.945858,163.054121 139.99975,174.55135 C139.695337,178.296064 139.017912,183.110287 136.804133,186.271632 C132.728149,192.078154 124.501865,192.302637 120.064302,186.86501" id="Path" stroke="#1F1F1E" stroke-width="3.26" stroke-linecap="round"></path>
                    <path d="M125.76239,141.343646 C131.010291,140.760277 136.977552,135.885178 140.966356,132.50078 C144.010481,129.914225 148.656213,126.53065 152.950859,128.718284 C164.994448,134.856526 158.704685,152.860892 148.731959,157.938204 C146.060846,159.309407 143.779896,160.554785 140.019758,161.079531" id="Path" stroke="#1F1F1E" stroke-width="3.26" stroke-linecap="round"></path>
                    <path d="M41.4086787,191.727847 C45.4360707,195.365324 48.8549275,198.796563 53.2539029,201.996514 C54.934603,203.221874 62.4298662,208.991198 63.764708,210.353822" id="Path" stroke="#1F1F1E" stroke-width="3.26" stroke-linecap="round" stroke-linejoin="round"></path>
                    <path d="M224.635007,39.7001895 C226.930249,38.276083 231.041962,37.2537575 233.668771,38.1588373 C236.398479,39.105382 239.525496,40.1520144 241.33625,42.6484903 C247.217272,50.7827692 243.218463,66.3492827 235.769646,72.1457964 C232.609758,74.6008073 226.662995,73.5041309 224.384903,70.0939964 C223.115803,68.1837492 222.849978,65.3269572 223.091507,62.7890164" id="Path" stroke="#1F1F1E" stroke-width="3.26" stroke-linecap="round"></path>
                    <path d="M237.877667,39.2312066 C238.725163,38.5763464 241.747851,38.1073635 242.942634,38.2832321 C245.545147,38.6692851 248.453501,40.1691723 250.481489,41.7519895 C259.732485,48.9397238 256.112406,62.2685598 251.846343,71.1163219 C250.795905,73.3025255 249.212389,76.1006946 247.144384,77.53338 C243.307071,80.1885665 239.598384,79.8797242 236.011175,77.3989764 C235.283729,76.8971076 234.160404,75.3714834 234.160404,74.4506756" id="Path" stroke="#1F1F1E" stroke-width="3.26" stroke-linecap="round"></path>
                    <path d="M255.733677,49.0912853 C256.37966,48.9911975 257.204289,49.1327503 257.414377,49.1913731 C258.90071,49.5774261 261.501794,51.3947347 262.350719,52.7187534 C265.31624,57.3185029 267.448557,63.2322624 265.57349,69.063092 C263.861348,74.4077809 263.133902,80.759067 258.529127,84.5867107 C256.79126,86.0193961 253.778577,87.2090112 250.981697,86.5055369 C249.180947,86.053712 248.106214,85.0228076 247.201551,83.615859 C246.522697,82.5606475 246.133963,80.4745317 245.835268,79.2849166" id="Path" stroke="#1F1F1E" stroke-width="3.26" stroke-linecap="round"></path>
                    <path d="M254.884752,87.6036431 C253.341252,94.6827106 249.576826,102.037735 247.265864,109.209741 C246.555568,111.421681 244.180292,114.838965 244.180292,116.900774" id="Path" stroke="#1F1F1E" stroke-width="3.26" stroke-linecap="round"></path>
                    <path d="M136.984208,186.826404 C137.041375,189.218503 137.232883,207.670405 137.767391,217.055781 C138.501983,230.11867 140.887262,244.485559 143.588388,256.614772 C145.612088,265.699885 146.834025,269.152914 149.219305,272.565908" id="Path" stroke="#1F1F1E" stroke-width="3.26"></path>
                    <path d="M64.3510932,174.697192 C64.083839,176.058386 64.3310849,196.104544 64.2067473,200.81296 C63.8537431,214.663683 63.4149889,224.04048 64.2167515,236.908912 C65.8960225,263.743883 68.291306,322.45396 99.2785004,333.339224 C109.165476,336.800832 118.595119,329.505861 123.279928,321.228599 C130.838791,307.894044 133.424153,296.532648 143.769892,279.394756 C146.58535,274.726375 156.32941,266.574938 163.419506,273.645427 C174.336911,284.539269 174.61417,304.625462 175.004332,318.223105 C175.673182,341.178959 176.532111,363.811671 183.727966,378.810544 C193.184763,398.546429 218.19804,418.689815 241.120446,405.880006 C271.048628,389.159623 282.720633,342.287074 306.273302,337.043902 C321.008012,333.766742 327.259187,361.798476 328.899871,377.234876 C332.555679,411.627905 324.796733,462.88859 351.546448,493.303844 C374.325937,519.205139 414.426928,497.699129 428.082617,480.921553 C433.293359,474.521653 439.27728,466.516058 440.747893,454.484074" id="Path" stroke="#1F1F1E" stroke-width="3.26" stroke-linecap="round"></path>
                    <path d="M103.897568,334.388716 C114.500556,334.573163 163.076506,333.853961 175.548845,334.135637" id="Path" stroke="#1F1F1E" stroke-width="3.26"></path>
                    <path d="M155.211801,271.020266 C157.731422,270.611336 162.580585,270.319652 164.651448,270.08659 C171.894465,269.26873 224.191966,266.915237 233.591596,270.066573 C236.855813,271.166109 239.441175,273.685462 241.674963,277.098456 C243.993072,280.648713 245.873855,286.83557 246.847118,290.881977 C247.926139,295.307287 248.097639,299.586756 248.583555,304.052102 C250.225668,319.049545 249.595405,335.887173 256.113835,349.95237 C259.139381,356.508121 268.882011,370.164387 273.129495,370.990826" id="Path" stroke="#1F1F1E" stroke-width="3.26"></path>
                    <path d="M308.725752,336.770806 C312.495894,336.770806 365.117646,335.605498 375.490539,335.605498" id="Path" stroke="#1F1F1E" stroke-width="3.26"></path>
                    <path d="M375.2992,335.605498 C378.496246,335.91577 385.463434,337.39421 388.411805,341.353397 C396.933927,352.781995 399.033373,378.557465 399.777969,385.386313 C401.362915,399.897615 402.689181,415.597102 406.000561,429.846746 C407.679832,437.044489 409.540607,443.813284 412.327482,448.940639 C415.944703,455.573601 417.958399,460.515079 424.103817,464.725916 C428.36988,467.654199 432.664526,468.830946 435.89873,468.160358" id="Path" stroke="#1F1F1E" stroke-width="3.26"></path>
                    <path d="M440.966556,453.570415 C444.039264,453.414564 445.28121,453.53038 447.027652,453.53038 C451.875386,453.53038 457.276207,453.900705 461.513687,453.977916 C466.12275,454.075144 471.037654,454.163793 475.638142,454.163793 C484.236009,454.163793 492.500881,454.230995 501.098748,454.230995 C505.164728,454.230995 508.781949,454.2696 513.448179,454.220986 C514.727283,454.212407 517.008233,454.017951 518.152996,454.60132 C518.648917,454.854399 518.477417,458.305998 518.42025,458.78356 C518.010079,462.139361 517.981496,465.222066 517.379817,468.559279 C516.569479,473.120423 516.100712,478.031875 514.660112,482.438598 C511.930404,490.784491 503.981378,499.071762 496.699773,503.525669 C485.457947,510.403131 472.745508,508.700208 460.034499,508.866068 C450.166102,509.001902 439.936126,508.574384 430.059155,508.574384 C418.788745,508.574384 407.575503,508.884656 396.36226,508.068225 C387.840138,507.45483 376.835554,506.132241 368.723603,504.060424" id="Path" stroke="#1F1F1E" stroke-width="3.26" stroke-linecap="round"></path>
                    <path d="M329.940304,408.944122 C322.077028,408.846894 248.813651,409.789149 229.115445,409.789149" id="Path" stroke="#1F1F1E" stroke-width="3.26"></path>
                    <path d="M77.6351228,217.171597 C77.6109027,217.205913 83.4390449,213.20955 84.4480366,212.424575 C87.4878744,210.032477 91.2594456,207.578896 93.5303916,204.367507 C93.8705333,203.882796 95.9399668,199.772047 94.262125,199.210125 C92.5585582,198.633906 90.6534788,199.967933 89.4801329,200.918767 C86.3145285,203.472436 85.342695,208.965827 89.5315829,211.506627 C94.7666209,214.670832 103.495972,208.759932 107.367584,205.634333 C108.162201,204.990911 113.031372,199.50181 110.268793,198.476625 C107.884943,197.585843 105.323876,200.080889 104.567847,201.362013 C102.00678,205.667219 103.924722,210.983311 109.549922,211.691075 C110.987664,211.874093 112.678368,211.746838 114.091814,211.506627 C116.74006,211.063381 119.199656,210.128275 121.734998,209.487713" id="Path" stroke="#1F1F1E" stroke-width="3.26" stroke-linecap="round"></path>
                    <path d="M78.3297736,229.974257 C79.4402362,229.934222 85.2669492,229.819836 87.159166,229.758354 C93.6818833,229.549599 99.2827879,229.332265 106.194239,229.152107" id="Path" stroke="#1F1F1E" stroke-width="3.26"></path>
                    <path d="M112.526877,227.613615 C113.725948,227.586448 122.416711,227.433457 125.330782,227.433457" id="Path" stroke="#1F1F1E" stroke-width="3.26"></path>
                    <path d="M78.9857611,242.728303 C81.8112239,242.643944 85.0025533,242.556724 87.7651328,242.556724" id="Path" stroke="#1F1F1E" stroke-width="3.26"></path>
                    <path d="M94.7408959,241.188381 C97.2633753,241.124039 105.020893,240.965328 108.515205,240.908135" id="Path" stroke="#1F1F1E" stroke-width="3.26"></path>
                    <path d="M116.209839,239.381081 C118.83379,239.332467 122.455298,239.289572 125.330782,239.208072" id="Path" stroke="#1F1F1E" stroke-width="3.26"></path>
                    <path d="M80.1090862,254.045375 C87.4249911,253.913831 94.1735167,253.732243 100.883455,253.554944" id="Path" stroke="#1F1F1E" stroke-width="3.26"></path>
                    <path d="M108.49091,251.510293 C110.773289,251.467399 121.899352,251.192872 126.831407,251.151407" id="Path" stroke="#1F1F1E" stroke-width="3.26"></path>
                    <path d="M93.1016416,273.589663 C92.5456957,273.654006 84.6366866,274.35319 84.5995283,274.955147 C84.51092,276.262008 85.4941867,281.615276 86.1001534,284.627918 C87.4621494,291.545416 91.5995873,300.008555 96.1286168,304.579708 C96.5702294,305.025813 101.047809,304.466751 101.57803,304.3924 C106.750184,303.65604 109.058289,303.464444 113.347218,302.690908 C115.793952,302.249092 121.862194,301.288249 122.643948,300.500415 C122.996953,300.150107 117.181673,295.330165 114.659193,292.226013 C110.181614,286.716894 107.393309,278.308088 107.393309,272.168417 C102.574159,272.686013 98.9169212,272.926224 93.1016416,273.589663 Z" id="Path" stroke="#1F1F1E" stroke-width="3.26"></path>
                    <path d="M98.1256549,295.695662 C98.3956549,295.155662 98.6056549,294.675662 98.8756549,294.135662 C99.2056549,294.195662 99.5056549,294.225662 99.8656549,294.225662 C100.975655,294.225662 101.905655,293.805662 102.445655,293.235662 C103.015655,292.665662 103.345655,292.065662 103.345655,291.495662 C103.345655,290.895662 102.475655,290.295662 101.545655,289.665662 C100.585655,289.155662 99.6256549,288.525662 99.6256549,287.745662 C99.6256549,285.585662 102.895655,283.605662 103.405655,283.995662 C103.573655,284.115662 103.376855,284.600462 103.137815,285.127502 L103.016268,285.393049 C102.995922,285.437396 102.975655,285.481662 102.955655,285.525662 C102.505655,286.335662 102.265655,287.085662 102.265655,287.565662 C102.265655,288.165662 102.595655,288.675662 103.165655,289.005662 C103.705655,289.335662 104.005655,289.365662 104.275655,288.765662 C105.415655,286.395662 105.955655,285.315662 105.565655,284.295662 C105.415655,283.905662 105.085655,283.425662 104.755655,283.095662 C105.985655,280.755662 105.925655,279.615662 105.715655,279.255662 C105.355655,278.595662 104.995655,278.625662 104.575655,279.315662 L104.605655,279.315662 C104.065655,280.215662 103.465655,281.145662 102.865655,282.195662 C102.385655,282.135662 101.875655,282.225662 101.455655,282.405662 C99.4156549,283.245662 96.9256549,285.315662 96.9256549,287.895662 C96.9256549,289.365662 98.5756549,290.325662 99.9256549,291.075662 C100.285655,291.255662 100.615655,291.465662 101.005655,291.795662 C101.215655,291.975662 101.335655,292.215662 101.095655,292.455662 C100.915655,292.635662 100.555655,292.785662 100.195655,292.755662 C99.1756549,292.665662 98.9056549,292.275662 97.6756549,291.255662 C96.9856549,290.685662 96.4756549,290.535662 95.5156549,290.745662 C95.0056549,290.835662 94.9156549,291.195662 95.1256549,291.465662 C95.7256549,292.305662 96.4756549,292.965662 97.1356549,293.415662 L96.6856549,294.525662 C96.1756549,295.815662 96.2656549,296.385662 96.5956549,296.835662 C97.0156549,297.345662 97.2856549,297.405662 98.1256549,295.695662 Z" id="$" stroke="#108117" fill="#108117" fill-rule="nonzero" transform="translate(100.426953, 287.964473) rotate(130.000000) translate(-100.426953, -287.964473) "></path>
                    <path d="M187.833962,290.042669 C187.342329,291.059275 189.814788,304.112155 190.382167,309.474001 C190.975271,315.176147 191.455471,326.483209 191.707004,333.332075 C191.745592,334.294347 214.123486,333.673803 215.686994,332.252556 C216.418727,331.584827 216.481611,325.010488 216.267236,322.522592 C215.548365,314.32683 214.690865,306.086744 213.113065,298.32279 C212.671452,296.148025 211.66246,290.468757 210.780664,289.686642 C209.934598,288.934554 188.502812,289.738116 187.833962,290.042669 L187.833962,290.042669 Z" id="Path" stroke="#1F1F1E" stroke-width="3.26"></path>
                    <path d="M199.955742,319.671431 C200.279742,319.023431 200.531742,318.447431 200.855742,317.799431 C201.251742,317.871431 201.611742,317.907431 202.043742,317.907431 C203.375742,317.907431 204.491742,317.403431 205.139742,316.719431 C205.823742,316.035431 206.219742,315.315431 206.219742,314.631431 C206.219742,313.911431 205.175742,313.191431 204.059742,312.435431 C202.907742,311.823431 201.755742,311.067431 201.755742,310.131431 C201.755742,307.539431 205.679742,305.163431 206.291742,305.631431 C206.512242,305.788931 206.209054,306.470118 205.88864,307.168532 L205.751742,307.467431 L205.751742,307.467431 C205.211742,308.439431 204.923742,309.339431 204.923742,309.915431 C204.923742,310.635431 205.319742,311.247431 206.003742,311.643431 C206.651742,312.039431 207.011742,312.075431 207.335742,311.355431 C208.703742,308.511431 209.351742,307.215431 208.883742,305.991431 C208.703742,305.523431 208.307742,304.947431 207.911742,304.551431 C209.387742,301.743431 209.315742,300.375431 209.063742,299.943431 C208.631742,299.151431 208.199742,299.187431 207.695742,300.015431 L207.731742,300.015431 C207.083742,301.095431 206.363742,302.211431 205.643742,303.471431 C205.067742,303.399431 204.455742,303.507431 203.951742,303.723431 C201.503742,304.731431 198.515742,307.215431 198.515742,310.311431 C198.515742,312.075431 200.495742,313.227431 202.115742,314.127431 C202.547742,314.343431 202.943742,314.595431 203.411742,314.991431 C203.663742,315.207431 203.807742,315.495431 203.519742,315.783431 C203.303742,315.999431 202.871742,316.179431 202.439742,316.143431 C201.215742,316.035431 200.891742,315.567431 199.415742,314.343431 C198.587742,313.659431 197.975742,313.479431 196.823742,313.731431 C196.211742,313.839431 196.103742,314.271431 196.355742,314.595431 C197.075742,315.603431 197.975742,316.395431 198.767742,316.935431 L198.227742,318.267431 C197.615742,319.815431 197.723742,320.499431 198.119742,321.039431 C198.623742,321.651431 198.947742,321.723431 199.955742,319.671431 Z" id="$" stroke="#108117" fill="#108117" fill-rule="nonzero" transform="translate(202.717299, 310.394004) rotate(143.000000) translate(-202.717299, -310.394004) "></path>
                    <path d="M194.002246,348.209412 C195.314221,348.160798 203.148914,348.073579 206.403127,348.073579" id="Path" stroke="#1F1F1E" stroke-width="3.26"></path>
                    <path d="M213.164515,347.142762 C216.204352,347.128464 218.33524,347.064122 220.127415,347.064122 C226.685862,347.064122 233.585879,346.974042 239.957105,346.974042" id="Path" stroke="#1F1F1E" stroke-width="3.26"></path>
                    <path d="M195.705813,359.053211 C197.535147,359.050351 218.689673,358.818719 224.327736,358.818719" id="Path" stroke="#1F1F1E" stroke-width="3.26"></path>
                    <path d="M232.867008,357.91221 C237.080192,357.822131 240.070009,357.880754 243.198455,357.880754" id="Path" stroke="#1F1F1E" stroke-width="3.26"></path>
                    <path d="M202.934539,383.291618 C203.943531,382.952749 207.765123,381.145449 208.736956,380.709352 C211.991169,379.25236 214.816631,377.679551 216.747436,374.552522 C217.189048,373.841899 218.639653,371.464099 217.516328,370.704861 C216.167194,369.801211 213.85909,371.108072 212.748627,371.858731 C208.977056,374.393812 208.080968,381.246967 213.707598,382.056248 C218.62679,382.766872 227.141766,379.505439 230.357391,375.796471 C231.227754,374.795593 232.376804,372.35631 231.153437,370.853563 C230.25735,369.748308 228.326545,370.284492 226.661566,371.858731 C224.593562,373.83475 222.764228,380.770835 226.661566,382.249275 C231.619345,384.125206 239.504059,380.616414 243.401397,375.860813 C244.120267,374.987189 247.80323,370.042852 245.356497,369.164939 C242.771134,368.241271 240.22293,371.135239 239.74273,372.000283 C238.304988,374.518207 238.696579,377.016112 240.588796,378.214306 C241.900771,379.045035 244.170288,379.16514 246.113955,378.977833 C248.484943,378.750491 248.610709,378.816263 253.215485,377.070446" id="Path" stroke="#1F1F1E" stroke-width="3.26"></path>
                    <path d="M341.31933,365.593234 C342.642739,365.0499 344.717889,364.031864 345.376735,363.664399 C348.841035,361.762731 352.848419,359.515045 355.193681,356.263621 C355.79679,355.427173 358.059161,352.041345 356.29414,351.360748 C351.287769,349.441922 346.271393,359.79958 350.680373,363.042425 C355.629577,366.681331 363.299915,360.760423 367.127224,358.006578 C368.650716,356.912762 372.03927,354.073128 370.953104,351.648143 C370.214224,349.986685 367.268712,350.987564 365.329332,353.281004 C363.842999,355.03683 362.459565,359.437834 363.698653,361.506792 C366.07107,365.447392 375.692221,362.121617 379.016463,361.431011" id="Path" stroke="#1F1F1E" stroke-width="3.26"></path>
                    <path d="M343.558835,378.453087 C344.832222,378.453087 347.20321,378.423061 348.490889,378.413052 C352.905585,378.381596 356.627136,378.282938 360.777436,378.240043" id="Path" stroke="#1F1F1E" stroke-width="3.26"></path>
                    <path d="M367.967574,377.343542 C371.726283,377.310656 375.296341,377.227727 377.857408,377.219148" id="Path" stroke="#1F1F1E" stroke-width="3.26"></path>
                    <path d="M344.416335,389.612878 C347.68341,389.551395 349.411273,389.548535 353.410081,389.482763" id="Path" stroke="#1F1F1E" stroke-width="3.26"></path>
                    <path d="M361.810724,388.36464 C363.804411,388.346052 366.138241,388.291719 367.538824,388.274561 C373.062554,388.205929 376.872712,388.134438 382.183496,388.074385" id="Path" stroke="#1F1F1E" stroke-width="3.26"></path>
                    <path d="M346.321414,401.621984 C348.465164,401.621984 353.535848,401.539055 356.55139,401.483291" id="Path" stroke="#1F1F1E" stroke-width="3.26"></path>
                    <path d="M364.549007,400.389475 C366.326891,400.389475 376.115254,400.199308 377.894567,400.199308" id="Path" stroke="#1F1F1E" stroke-width="3.26"></path>
                    <path d="M348.289377,413.739758 C351.695081,413.598205 356.135502,413.508126 358.645119,413.442354 C366.605578,413.23217 382.499342,412.73602 390.672747,412.638792" id="Path" stroke="#1F1F1E" stroke-width="3.26"></path>
                    <path d="M221.38794,289.04894 C221.489411,289.974037 221.792395,292.198846 221.86814,292.593478 C222.10824,293.813119 222.902857,297.510649 223.180116,297.786605 C223.444511,298.062562 228.869629,297.622175 229.499891,297.58214 C232.652633,297.386254 237.547529,297.560693 237.863375,296.878666 C238.052025,296.471166 236.627146,289.400677 235.781079,288.55136 C235.516683,288.278264 231.152008,288.291132 228.225074,288.396939 C227.783462,288.412667 221.57802,289.021773 221.38794,289.04894 L221.38794,289.04894 Z" id="Path" stroke="#1F1F1E" stroke-width="3.26"></path>
                    <path d="M224.957999,306.351262 C226.194228,306.309797 228.402291,306.275481 229.738562,306.242595 C232.82985,306.166814 236.374183,306.12249 239.528354,306.12249" id="Path" stroke="#1F1F1E" stroke-width="3.26"></path>
                    <path d="M225.323866,312.902724 C225.846941,312.875557 226.512933,312.828373 226.975983,312.815504" id="Path" stroke="#1F1F1E" stroke-width="3.26"></path>
                    <path d="M233.725937,312.242144 C234.606304,312.233565 237.170229,312.160644 238.207804,312.160644" id="Path" stroke="#1F1F1E" stroke-width="3.26"></path>
                    <path d="M226.319995,319.575721 C227.330416,319.544264 230.004387,319.49708 231.11342,319.474203 C234.166121,319.41415 236.878679,319.345519 239.944242,319.345519" id="Path" stroke="#1F1F1E" stroke-width="3.26"></path>
                    <path d="M349.63851,436.498295 C349.335527,439.044815 350.433127,445.141592 350.761835,447.359252 C351.858006,454.567004 352.602602,458.177314 355.289436,464.804557 C355.832519,466.114277 358.316411,470.911342 359.36399,471.440378 C360.46159,471.990861 371.423299,469.512973 375.372087,468.849534 C378.247571,468.367682 387.557163,467.125164 387.695793,466.74912 C388.011638,465.888364 382.839484,456.711743 381.023013,448.129928 C379.91255,442.948239 379.180817,437.600691 378.461946,433.893153 C378.411925,433.624345 367.601707,434.440776 349.63851,436.498295 L349.63851,436.498295 Z" id="Path" stroke="#1F1F1E" stroke-width="3.26"></path>
                    <path d="M365.549502,461.300975 C365.873502,460.652975 366.125502,460.076975 366.449502,459.428975 C366.845502,459.500975 367.205502,459.536975 367.637502,459.536975 C368.969502,459.536975 370.085502,459.032975 370.733502,458.348975 C371.417502,457.664975 371.813502,456.944975 371.813502,456.260975 C371.813502,455.540975 370.769502,454.820975 369.653502,454.064975 C368.501502,453.452975 367.349502,452.696975 367.349502,451.760975 C367.349502,449.168975 371.273502,446.792975 371.885502,447.260975 C372.106002,447.418475 371.802815,448.099663 371.482401,448.798077 L371.345502,449.096975 L371.345502,449.096975 C370.805502,450.068975 370.517502,450.968975 370.517502,451.544975 C370.517502,452.264975 370.913502,452.876975 371.597502,453.272975 C372.245502,453.668975 372.605502,453.704975 372.929502,452.984975 C374.297502,450.140975 374.945502,448.844975 374.477502,447.620975 C374.297502,447.152975 373.901502,446.576975 373.505502,446.180975 C374.981502,443.372975 374.909502,442.004975 374.657502,441.572975 C374.225502,440.780975 373.793502,440.816975 373.289502,441.644975 L373.325502,441.644975 C372.677502,442.724975 371.957502,443.840975 371.237502,445.100975 C370.661502,445.028975 370.049502,445.136975 369.545502,445.352975 C367.097502,446.360975 364.109502,448.844975 364.109502,451.940975 C364.109502,453.704975 366.089502,454.856975 367.709502,455.756975 C368.141502,455.972975 368.537502,456.224975 369.005502,456.620975 C369.257502,456.836975 369.401502,457.124975 369.113502,457.412975 C368.897502,457.628975 368.465502,457.808975 368.033502,457.772975 C366.809502,457.664975 366.485502,457.196975 365.009502,455.972975 C364.181502,455.288975 363.569502,455.108975 362.417502,455.360975 C361.805502,455.468975 361.697502,455.900975 361.949502,456.224975 C362.669502,457.232975 363.569502,458.024975 364.361502,458.564975 L363.821502,459.896975 C363.209502,461.444975 363.317502,462.128975 363.713502,462.668975 C364.217502,463.280975 364.541502,463.352975 365.549502,461.300975 Z" id="$" stroke="#108117" fill="#108117" fill-rule="nonzero" transform="translate(368.311060, 452.023548) rotate(143.000000) translate(-368.311060, -452.023548) "></path>
                    <path d="M368.067616,489.785043 C372.406566,490.54571 378.058921,486.52933 381.110192,483.888441 C382.372146,482.796055 384.920351,480.53264 383.634101,478.586647 C381.135917,474.810477 377.112812,479.611832 377.755938,482.827511 C378.349042,485.843013 381.400313,486.220487 383.848476,486.220487 C387.973051,486.220487 395.150327,482.412861 398.102985,479.434534 C398.796131,478.733919 399.36351,477.74448 399.79226,476.866567 C400.902723,474.637469 399.60361,470.892755 396.297948,473.114704 C394.104176,474.588854 393.749743,482.111168 397.295506,482.827511 C402.682036,483.915608 410.097982,479.88207 413.063503,475.406715 C414.514107,473.196204 416.809349,469.134069 413.693766,467.56269 C412.609028,467.015067 411.258466,468.898148 410.80542,469.584464 C409.65637,471.327422 408.837457,475.087864 410.80542,476.580602 C414.47552,479.357323 420.227916,476.953786 423.141987,474.982057" id="Path" stroke="#1F1F1E" stroke-width="3.26"></path>
                    <path d="M365.415082,322.100793 C364.468974,318.822202 360.447299,307.087622 360.487019,305.3847 C360.483028,305.29605 376.934167,318.662062 377.095662,318.506211 C378.853538,316.826166 391.964714,303.238531 392.02331,304.651199 C392.153364,308.01129 392.03903,320.107616 392.081905,320.40216 C392.157651,321.05416 416.320574,319.793054 416.792199,320.187686 C417.362437,320.673827 406.873782,332.504205 403.99544,335.934358" id="Path" stroke="#1F1F1E" stroke-width="3.26"></path>
                </g>
            </g>
        </g>
    </g>
</svg>