<?xml version="1.0" encoding="UTF-8"?>
<svg width="252px" height="14px" viewBox="0 0 252 14" version="1.1" xmlns="http://www.w3.org/2000/svg" xmlns:xlink="http://www.w3.org/1999/xlink">
    <title>the-huffington-post</title>
    <g id="Page-1" stroke="none" stroke-width="1" fill="none" fill-rule="evenodd">
        <g id="Artboard" transform="translate(-88.000000, -789.000000)" fill="#327365" fill-rule="nonzero">
            <g id="Group-10" transform="translate(88.000000, 730.000000)">
                <g id="the-huffington-post" transform="translate(0.000000, 59.000000)">
                    <path d="M6.99932878,10.7206503 C6.99932878,12.7943061 7.03799109,13.0901909 8.16258117,13.1896398 L8.78311132,13.2487183 C8.89958154,13.3279819 8.86043595,13.6834376 8.744449,13.7425162 C7.63919009,13.7031305 6.97999762,13.6834376 6.20481821,13.6834376 C5.42963881,13.6834376 4.75063191,13.7031305 3.51005489,13.7425162 C3.39358466,13.6834376 3.35492235,13.3476748 3.51005489,13.2487183 L4.20790967,13.1896398 C5.31316858,13.0911756 5.40982437,12.7943061 5.40982437,10.7206503 L5.40982437,1.89284381 C5.40982437,1.2808889 5.40982437,1.26168838 4.82795654,1.26168838 L3.76135993,1.26168838 C2.92722049,1.26168838 1.86110717,1.30058173 1.3763784,1.75548627 C0.910980788,2.19020565 0.717669215,2.6244327 0.504059927,3.11823059 C0.348927389,3.23687993 0.0778079081,3.13792343 0,2.98038073 C0.310265075,2.09124914 0.601198992,0.827461324 0.736033814,0.0372862389 C0.794510565,-0.00209943507 1.04678217,-0.0217922721 1.10477564,0.0372862389 C1.22124586,0.669426307 1.86014061,0.649241149 2.7527568,0.649241149 L10.6045896,0.649241149 C11.6508885,0.649241149 11.8253522,0.609855475 12.1167694,0.09636475 C12.2134252,0.056979076 12.4270345,0.076671913 12.4656968,0.155443261 C12.2525708,0.965803504 12.1167694,2.56535419 12.1742796,3.15761626 C12.0974382,3.31565128 11.7673587,3.31565128 11.6702197,3.19749426 C11.6127095,2.70369637 11.4769081,1.97309212 11.1854909,1.75548627 C10.7399077,1.41873876 10.0033906,1.26168838 8.9372773,1.26168838 L7.56041562,1.26168838 C6.97854779,1.26168838 6.99836222,1.2808889 6.99836222,1.9327218 L6.99836222,10.7206503 L6.99932878,10.7206503 Z M19.3688531,7.30443542 C18.4375746,7.30443542 18.3993955,7.34382109 18.3993955,7.93608316 L18.3993955,10.7206503 C18.3993955,12.7943061 18.4960513,13.0704981 19.5814958,13.1896398 L20.1440325,13.2487183 C20.2605027,13.3279819 20.2218404,13.6834376 20.1053701,13.7425162 C19.0581047,13.7031305 18.3998788,13.6834376 17.643064,13.6834376 C16.8094078,13.6834376 16.1502154,13.7228233 15.3943671,13.7425162 C15.2783802,13.6834376 15.2397179,13.3673676 15.3552215,13.2487183 L15.685301,13.1896398 C16.7712288,12.9922191 16.8098911,12.7943061 16.8098911,10.7206503 L16.8098911,3.61104384 C16.8098911,1.5373881 16.6740897,1.20162523 15.6659699,1.12236156 L15.1619099,1.08297588 C15.0454397,1.00420454 15.084102,0.648256507 15.2005723,0.589177996 C16.1506986,0.608870833 16.8098911,0.648256507 17.6435473,0.648256507 C18.3993955,0.648256507 19.058588,0.62856367 19.8922441,0.589177996 C20.0082311,0.648256507 20.0468934,1.00420454 19.9309065,1.08297588 L19.5621646,1.12236156 C18.4375746,1.2410109 18.3993955,1.5373881 18.3993955,3.61104384 L18.3993955,5.88212026 C18.3993955,6.49456749 18.4375746,6.51426033 19.3688531,6.51426033 L24.9135122,6.51426033 C25.8443075,6.51426033 25.8829698,6.49456749 25.8829698,5.88212026 L25.8829698,3.61104384 C25.8829698,1.5373881 25.8443075,1.24199554 24.7003862,1.12236156 L24.3321277,1.08297588 C24.2156575,1.00420454 24.2543198,0.648256507 24.37079,0.589177996 C25.2624396,0.62856367 25.9216321,0.648256507 26.7166259,0.648256507 C27.4719909,0.648256507 28.1316667,0.62856367 29.0035019,0.589177996 C29.1199721,0.648256507 29.1586344,1.00420454 29.0426474,1.08297588 L28.6352433,1.12236156 C27.5106532,1.2410109 27.4719909,1.5373881 27.4719909,3.61104384 L27.4719909,10.7206503 C27.4719909,12.7943061 27.5106532,13.0503129 28.6352433,13.1896398 L29.1006409,13.2487183 C29.2171111,13.3279819 29.1784488,13.6834376 29.0619786,13.7425162 C28.1311834,13.7031305 27.4719909,13.6834376 26.7161427,13.6834376 C25.9206655,13.6834376 25.2228108,13.7031305 24.3703067,13.7425162 C24.2538365,13.6834376 24.2151742,13.3673676 24.3316444,13.2487183 L24.699903,13.1896398 C25.8824865,12.9922191 25.8824865,12.7943061 25.8824865,10.7206503 L25.8824865,7.93608316 C25.8824865,7.34382109 25.8438242,7.30443542 24.913029,7.30443542 L19.3688531,7.30443542 Z M33.950345,3.61104384 C33.950345,1.55708094 33.9116827,1.26168838 32.7677615,1.12236156 L32.4574964,1.08297588 C32.3410262,1.00420454 32.3796885,0.648256507 32.4961587,0.589177996 C33.3298149,0.62856367 33.9890073,0.648256507 34.7835179,0.648256507 L38.4284076,0.648256507 C39.6689846,0.648256507 40.8133891,0.648256507 41.0458463,0.589177996 C41.1623165,0.925433188 41.2783035,2.34627138 41.3565946,3.21620245 C41.2787867,3.33435948 40.9685217,3.37374515 40.8718659,3.25558813 C40.5804487,2.32657854 40.405985,1.63585228 39.3978651,1.37886076 C38.9909443,1.28039658 38.3704141,1.26119606 37.5174268,1.26119606 L36.1217173,1.26119606 C35.5398494,1.26119606 35.5398494,1.30008941 35.5398494,2.05087882 L35.5398494,6.00076961 C35.5398494,6.55364601 35.5978429,6.55364601 36.1797107,6.55364601 L37.3038175,6.55364601 C38.1186258,6.55364601 38.7193415,6.51426033 38.9517987,6.43499666 C39.1842558,6.35622531 39.3205405,6.23806829 39.4171963,5.7442704 L39.5723288,4.93391016 C39.6694679,4.81575314 39.9990641,4.81575314 40.0763888,4.953603 C40.0763888,5.42770805 39.9990641,6.19720566 39.9990641,6.94848739 C39.9990641,7.65890648 40.0763888,8.41018821 40.0763888,8.84490759 C39.9990641,8.98275745 39.6694679,8.98275745 39.5723288,8.86460043 L39.3978651,8.09510282 C39.3205405,7.73866247 39.1852224,7.44326992 38.7971494,7.34480573 C38.5255467,7.26603438 38.0606323,7.24634155 37.3038175,7.24634155 L36.1797107,7.24634155 C35.5978429,7.24634155 35.5398494,7.26603438 35.5398494,7.77952511 L35.5398494,10.5640923 C35.5398494,11.6107665 35.5978429,12.2818 35.908108,12.6180552 C36.1405651,12.8548615 36.5479693,13.0724674 38.2539439,13.0724674 C39.7467925,13.0724674 40.3088459,12.9932037 40.7355812,12.7755979 C41.0845086,12.5786695 41.6078997,11.8864663 42.1119596,10.8594848 C42.247761,10.7610206 42.5188805,10.8205915 42.5966884,10.9973347 C42.460887,11.6885533 41.9761582,13.2093326 41.7243699,13.7425162 C39.979733,13.7031305 38.2539439,13.6834376 36.5286381,13.6834376 L34.7840012,13.6834376 C33.950345,13.6834376 33.2911525,13.7031305 32.1472313,13.7425162 C32.0317276,13.6834376 31.9925821,13.3673676 32.108569,13.2487183 L32.7484303,13.1896398 C33.8536892,13.0911756 33.950345,12.7943061 33.950345,10.7206503 L33.950345,3.61104384 L33.950345,3.61104384 Z M55.5843264,7.30443542 C54.6535312,7.30443542 54.6148689,7.34382109 54.6148689,7.93608316 L54.6148689,10.7206503 C54.6148689,12.7943061 54.7120079,13.0704981 55.7974524,13.1896398 L56.3599891,13.2487183 C56.4764593,13.3279819 56.4373137,13.6834376 56.3213268,13.7425162 C55.2740613,13.7031305 54.6153522,13.6834376 53.8590206,13.6834376 C53.0248812,13.6834376 52.3656887,13.7228233 51.6103238,13.7425162 C51.4938535,13.6834376 51.4551912,13.3673676 51.5711782,13.2487183 L51.9007744,13.1896398 C52.9867022,12.9922191 53.0253645,12.7943061 53.0253645,10.7206503 L53.0253645,3.61104384 C53.0253645,1.5373881 52.8895631,1.20162523 51.8814432,1.12236156 L51.3773833,1.08297588 C51.2613964,1.00420454 51.2995754,0.648256507 51.4160456,0.589177996 C52.366172,0.608870833 53.0253645,0.648256507 53.8595039,0.648256507 C54.6148689,0.648256507 55.2745446,0.62856367 56.1077175,0.589177996 C56.2241877,0.648256507 56.26285,1.00420454 56.1463798,1.08297588 L55.7781213,1.12236156 C54.6535312,1.2410109 54.6148689,1.5373881 54.6148689,3.61104384 L54.6148689,5.88212026 C54.6148689,6.49456749 54.6535312,6.51426033 55.5843264,6.51426033 L61.1294689,6.51426033 C62.0602641,6.51426033 62.0989264,6.49456749 62.0989264,5.88212026 L62.0989264,3.61104384 C62.0989264,1.5373881 62.0602641,1.24199554 60.9163429,1.12236156 L60.5480843,1.08297588 C60.4316141,1.00420454 60.4702764,0.648256507 60.5867467,0.589177996 C61.4783963,0.62856367 62.1375887,0.648256507 62.9325826,0.648256507 C63.6884308,0.648256507 64.3476233,0.62856367 65.2199418,0.589177996 C65.3359287,0.648256507 65.374591,1.00420454 65.2590874,1.08297588 L64.8512,1.12236156 C63.7270932,1.2410109 63.6884308,1.5373881 63.6884308,3.61104384 L63.6884308,10.7206503 C63.6884308,12.7943061 63.7270932,13.0503129 64.8512,13.1896398 L65.3170808,13.2487183 C65.4330678,13.3279819 65.3944055,13.6834376 65.2784185,13.7425162 C64.34714,13.7031305 63.6884308,13.6834376 62.9325826,13.6834376 C62.1375887,13.6834376 61.439734,13.7031305 60.5867467,13.7425162 C60.4702764,13.6834376 60.4316141,13.3673676 60.5480843,13.2487183 L60.9163429,13.1896398 C62.0989264,12.9922191 62.0989264,12.7943061 62.0989264,10.7206503 L62.0989264,7.93608316 C62.0989264,7.34382109 62.0602641,7.30443542 61.1294689,7.30443542 L55.5843264,7.30443542 L55.5843264,7.30443542 Z M79.3611666,5.60592822 C79.3611666,4.3820184 79.322021,2.10995733 78.9929081,1.51769526 C78.8571067,1.2808889 78.5081793,1.1420544 78.0234505,1.10266872 L77.5382385,1.06328305 C77.4222515,0.925433188 77.4609139,0.668441665 77.5769008,0.589177996 C78.3134179,0.62856367 79.0315704,0.648256507 79.7869354,0.648256507 C80.6017436,0.648256507 81.1251347,0.62856367 81.8225062,0.589177996 C81.9776388,0.688134502 81.9583076,0.945126025 81.8616518,1.06328305 L81.3962542,1.10266872 C80.9115254,1.1420544 80.5432669,1.31928993 80.4267967,1.57677377 C80.1551939,2.22860668 80.1551939,4.50017543 80.1551939,5.60592822 L80.1551939,7.83761898 C80.1551939,9.55581901 79.8835911,11.3729755 78.7981467,12.557992 C77.9644905,13.486017 76.5301186,14 75.0952635,14 C73.7575474,14 72.4198313,13.7435008 71.4701882,12.91394 C70.4427372,12.0445013 69.9580084,10.6034779 69.9580084,8.25264552 L69.9580084,3.591351 C69.9580084,1.5373881 69.9188628,1.20162523 68.794756,1.10266872 L68.3100273,1.06328305 C68.1940403,0.984511699 68.2327026,0.648256507 68.3491729,0.589177996 C69.3186304,0.62856367 69.9778229,0.648256507 70.7530023,0.648256507 C71.5484794,0.648256507 72.1883407,0.62856367 73.1379838,0.589177996 C73.254454,0.648256507 73.2931163,0.984511699 73.1771294,1.06328305 L72.7117318,1.10266872 C71.5871417,1.20162523 71.5484794,1.5373881 71.5484794,3.591351 L71.5484794,7.85731182 C71.5484794,11.0372127 72.5174537,13.1305612 75.4838197,13.1305612 C78.2950533,13.1305612 79.3611666,10.8791777 79.3611666,7.87700465 L79.3611666,5.60592822 L79.3611666,5.60592822 Z M87.8122653,6.21788313 C87.8122653,6.75155902 87.8702588,6.75155902 88.4516433,6.75155902 L89.7705115,6.75155902 C90.5655054,6.75155902 91.1855523,6.71168102 91.4184927,6.63290967 C91.6311354,6.55463065 91.7867513,6.45567414 91.9032215,5.94218342 L92.0772019,5.15250065 C92.174341,5.03434363 92.5044205,5.03434363 92.5817451,5.15250065 C92.5817451,5.6266057 92.5044205,6.41628847 92.5044205,7.14738504 C92.5044205,7.85829646 92.5817451,8.60957819 92.5817451,9.0639904 C92.5044205,9.18214743 92.2130033,9.18214743 92.0772019,9.0639904 L91.8838903,8.29400048 C91.7867513,7.93805245 91.632102,7.66235273 91.2633602,7.54419571 C90.9917574,7.46493204 90.5079952,7.4452392 89.7705115,7.4452392 L88.4516433,7.4452392 C87.8702588,7.4452392 87.8122653,7.46493204 87.8122653,7.97842276 L87.8122653,10.7236042 C87.8122653,12.79726 87.8509276,13.0931449 88.9943656,13.1925937 L89.653558,13.2516722 C89.7700283,13.3309359 89.7308827,13.6863916 89.6144125,13.7454701 C88.4704912,13.7060844 87.8122653,13.6863916 87.0361193,13.6863916 C86.183132,13.6863916 85.5239396,13.7060844 84.6124755,13.7454701 C84.4960053,13.6863916 84.457343,13.3703215 84.5738132,13.2516722 L85.058542,13.1925937 C86.183132,13.0542515 86.2217943,12.79726 86.2217943,10.7236042 L86.2217943,3.61104384 C86.2217943,1.5373881 86.183132,1.26168838 85.058542,1.12236156 L84.7482769,1.08297588 C84.6318067,1.00420454 84.6709523,0.648256507 84.7864559,0.589177996 C85.6012642,0.62856367 86.2604567,0.648256507 87.0356361,0.648256507 L90.6027179,0.648256507 C91.8432949,0.648256507 92.9683682,0.648256507 93.2201566,0.589177996 C93.2201566,1.49800242 93.239971,2.44572021 93.2786333,3.19650962 C93.2201566,3.31466664 92.9490371,3.37374515 92.8132357,3.25558813 C92.6581032,2.36596422 92.425646,1.63585228 91.4561885,1.37886076 C91.0299364,1.26119606 90.3900751,1.26119606 89.5752669,1.26119606 L88.3931666,1.26119606 C87.8112988,1.26119606 87.8112988,1.30008941 87.8112988,2.05087882 L87.8112988,6.21788313 L87.8122653,6.21788313 Z M99.4525217,6.21788313 C99.4525217,6.75155902 99.5105152,6.75155902 100.092383,6.75155902 L101.410768,6.75155902 C102.205762,6.75155902 102.825809,6.71168102 103.058749,6.63290967 C103.271392,6.55463065 103.427008,6.45567414 103.543478,5.94218342 L103.717942,5.15250065 C103.814597,5.03434363 104.144677,5.03434363 104.222001,5.15250065 C104.222001,5.6266057 104.144677,6.41628847 104.144677,7.14738504 C104.144677,7.85829646 104.222001,8.60957819 104.222001,9.0639904 C104.144677,9.18214743 103.85326,9.18214743 103.717942,9.0639904 L103.524147,8.29400048 C103.427008,7.93805245 103.272358,7.66235273 102.903617,7.54419571 C102.632014,7.46493204 102.148252,7.4452392 101.410768,7.4452392 L100.092383,7.4452392 C99.5105152,7.4452392 99.4525217,7.46493204 99.4525217,7.97842276 L99.4525217,10.7236042 C99.4525217,12.79726 99.491184,13.0931449 100.634622,13.1925937 L101.293814,13.2516722 C101.410285,13.3309359 101.371139,13.6863916 101.254669,13.7454701 C100.110748,13.7060844 99.4525217,13.6863916 98.6763757,13.6863916 C97.8233884,13.6863916 97.1641959,13.7060844 96.2527319,13.7454701 C96.1362616,13.6863916 96.0975993,13.3703215 96.2140696,13.2516722 L96.6987983,13.1925937 C97.8233884,13.0542515 97.8620507,12.79726 97.8620507,10.7236042 L97.8620507,3.61104384 C97.8620507,1.5373881 97.8233884,1.26168838 96.6987983,1.12236156 L96.3885332,1.08297588 C96.272063,1.00420454 96.3112086,0.648256507 96.4271956,0.589177996 C97.2415206,0.62856367 97.900713,0.648256507 98.6758924,0.648256507 L102.242974,0.648256507 C103.483551,0.648256507 104.608625,0.648256507 104.860413,0.589177996 C104.860413,1.49800242 104.880227,2.44572021 104.91889,3.19650962 C104.860413,3.31466664 104.589293,3.37374515 104.453492,3.25558813 C104.29836,2.36596422 104.065902,1.63585228 103.096445,1.37886076 C102.670193,1.26119606 102.030332,1.26119606 101.215523,1.26119606 L100.033423,1.26119606 C99.4515551,1.26119606 99.4515551,1.30008941 99.4515551,2.05087882 L99.4515551,6.21788313 L99.4525217,6.21788313 Z M109.604279,3.65042951 C109.604279,1.55708094 109.565617,1.22131806 108.421695,1.12236156 L107.93745,1.08297588 C107.82098,1.00420454 107.859642,0.648256507 107.976112,0.589177996 C108.94557,0.62856367 109.604762,0.648256507 110.419087,0.648256507 C111.194267,0.648256507 111.853942,0.62856367 112.8234,0.589177996 C112.939387,0.648256507 112.978049,1.00420454 112.862062,1.08297588 L112.377333,1.12236156 C111.233412,1.22131806 111.19475,1.55708094 111.19475,3.65042951 L111.19475,10.6812646 C111.19475,12.7746132 111.233412,13.0503129 112.377333,13.1896398 L112.862062,13.2487183 C112.978049,13.3279819 112.939387,13.6834376 112.8234,13.7425162 C111.853942,13.7031305 111.19475,13.6834376 110.419087,13.6834376 C109.604762,13.6834376 108.94557,13.7031305 107.976112,13.7425162 C107.859642,13.6834376 107.82098,13.3673676 107.93745,13.2487183 L108.421695,13.1896398 C109.565617,13.0512976 109.604279,12.7746132 109.604279,10.6812646 L109.604279,3.65042951 Z M128.174272,10.3258089 C128.174272,10.918071 128.174272,13.2689034 128.232749,13.7823942 C128.194086,13.9010435 128.077616,13.9995077 127.86449,13.9995077 C127.63155,13.6632525 127.069013,12.9720339 125.38237,11.0165352 L120.884492,5.80285659 C120.361101,5.19040936 119.042716,3.57116584 118.635796,3.13644646 L118.597133,3.13644646 C118.519809,3.37325283 118.500478,3.82766504 118.500478,4.41992712 L118.500478,8.72478129 C118.500478,9.65379087 118.519809,12.2212445 118.849405,12.8139989 C118.965875,13.0301278 119.353465,13.1497618 119.838194,13.1891474 L120.439393,13.2482259 C120.555863,13.406261 120.536532,13.6435597 120.400247,13.7420238 C119.644782,13.7046255 118.888573,13.6849275 118.132219,13.6829453 C117.317894,13.6829453 116.794503,13.7026382 116.115979,13.7420238 C115.980178,13.6435597 115.96133,13.3668753 116.077317,13.2482259 L116.600708,13.1891474 C117.046291,13.1300689 117.356556,13.0114196 117.454179,12.7938137 C117.725781,12.0833946 117.705967,9.67348371 117.705967,8.72478129 L117.705967,3.01878176 C117.705967,2.46590536 117.686636,2.05087882 117.279232,1.59646661 C117.007629,1.31978225 116.542715,1.18193239 116.077317,1.12236156 L115.747721,1.08297588 C115.631251,0.964818862 115.631251,0.668441665 115.786383,0.589177996 C116.600708,0.648256507 117.628159,0.648256507 117.977086,0.648256507 C118.287352,0.648256507 118.616464,0.62856367 118.868736,0.589177996 C119.256326,1.59646661 121.544168,4.20379823 122.183546,4.93391016 L124.064468,7.08682957 C125.402184,8.60760891 126.351344,9.7133617 127.263291,10.6615718 L127.301953,10.6615718 C127.378795,10.5631076 127.378795,10.2465453 127.378795,9.83151873 L127.378795,5.60494358 C127.378795,4.67642632 127.359464,2.10897269 126.991205,1.51671062 C126.874735,1.33898277 126.56447,1.22033342 125.789774,1.12137692 L125.459694,1.08199124 C125.323893,0.96383422 125.343224,0.647271865 125.49884,0.588193354 C126.390489,0.627579028 127.049682,0.647271865 127.786199,0.647271865 C128.620338,0.647271865 129.124398,0.627579028 129.783107,0.588193354 C129.937757,0.68714986 129.937757,0.96383422 129.82177,1.08199124 L129.550167,1.12137692 C128.929637,1.22033342 128.542047,1.37787612 128.464239,1.53640346 C128.134643,2.24731487 128.173305,4.69611915 128.173305,5.60494358 L128.173305,10.3258089 L128.174272,10.3258089 L128.174272,10.3258089 Z M143.893402,11.6688604 C143.893402,12.4585432 144.009389,12.9326482 144.3588,13.0714827 C144.416794,13.1305612 144.416794,13.2487183 144.339469,13.3082891 C144.107012,13.3082891 143.758084,13.3870604 143.389343,13.4850323 C142.361892,13.7617167 140.965215,13.998523 139.918433,13.998523 C137.612226,13.998523 135.498364,13.3476748 134.006482,11.8072026 C132.842746,10.6221861 132.2227,9.06202112 132.2227,7.32412825 C132.2227,5.6453139 132.765422,3.94680671 133.967336,2.6431409 C135.26639,1.26070374 137.185491,0.332678794 140.113195,0.332678794 C141.21797,0.332678794 142.245905,0.549792322 142.575501,0.629548312 C142.943759,0.708811981 143.544958,0.846169519 143.776932,0.806783845 C143.776932,1.45861675 143.893402,2.4855982 144.068349,3.67012235 C144.010356,3.82815736 143.660945,3.8478502 143.544958,3.72969318 C143.002236,1.59646661 141.547567,0.925433188 139.569989,0.925433188 C135.809596,0.925433188 134.161615,3.65042951 134.161615,6.61321684 C134.161615,10.4050726 136.081199,13.3880451 139.977877,13.3880451 C141.179308,13.3880451 141.896977,13.1315459 142.110103,12.7952907 C142.207242,12.6574408 142.303415,12.3019851 142.303415,11.6698451 L142.303415,10.8801623 C142.303415,9.2215331 142.245905,9.10337608 141.043507,8.96404926 L140.190519,8.86558507 C140.035387,8.78681372 140.055201,8.43086569 140.190519,8.37178718 C140.752573,8.41117286 141.819169,8.43086569 142.962607,8.43086569 C143.718456,8.43086569 144.378131,8.41117286 145.017509,8.37178718 C145.152827,8.45055853 145.172159,8.74693573 145.036357,8.86558507 L144.726575,8.90497074 C143.911767,9.00343493 143.892436,9.55680365 143.892436,10.5640923 L143.893402,11.6688604 L143.893402,11.6688604 Z M154.137466,10.7206503 C154.137466,12.7943061 154.176128,13.0901909 155.300718,13.1896398 L155.921249,13.2487183 C156.037235,13.3279819 155.998573,13.6834376 155.882586,13.7425162 C154.777327,13.7031305 154.118135,13.6834376 153.342472,13.6834376 C152.566809,13.6834376 151.888286,13.7031305 150.647709,13.7425162 C150.531722,13.6834376 150.49306,13.3476748 150.647709,13.2487183 L151.345564,13.1896398 C152.450339,13.0911756 152.546995,12.7943061 152.546995,10.7206503 L152.546995,1.89284381 C152.546995,1.2808889 152.546995,1.26168838 151.966094,1.26168838 L150.899497,1.26168838 C150.065358,1.26168838 148.998761,1.30058173 148.514516,1.75548627 C148.049118,2.19020565 147.855323,2.6244327 147.641714,3.11823059 C147.487065,3.23687993 147.215462,3.13792343 147.137654,2.98038073 C147.448402,2.09124914 147.738853,0.827461324 147.873688,0.0372862389 C147.932165,-0.00209943507 148.184919,-0.0217922721 148.24243,0.0372862389 C148.358417,0.669426307 148.997795,0.649241149 149.890411,0.649241149 L157.74176,0.649241149 C158.788542,0.649241149 158.962523,0.609855475 159.254423,0.09636475 C159.350596,0.056979076 159.564688,0.076671913 159.603351,0.155443261 C159.390225,0.965803504 159.254423,2.56535419 159.311934,3.15761626 C159.235092,3.31565128 158.905013,3.31565128 158.807874,3.19749426 C158.750363,2.70369637 158.615045,1.97309212 158.323145,1.75548627 C157.877078,1.41873876 157.141528,1.26168838 156.074931,1.26168838 L154.69807,1.26168838 C154.116202,1.26168838 154.135533,1.2808889 154.135533,1.9327218 L154.135533,10.7211426 L154.137466,10.7211426 L154.137466,10.7206503 Z M161.617657,7.30443542 C161.617657,3.35503695 164.52603,0.332678794 168.51888,0.332678794 C172.99791,0.332678794 175.24709,3.63073667 175.24709,7.10750705 C175.24709,11.0972758 172.259943,14 168.51888,14 C164.215765,13.9995077 161.617657,10.8594848 161.617657,7.30443542 Z M173.307691,7.71896964 C173.307691,4.46128207 171.891684,0.945126025 168.188801,0.945126025 C166.172561,0.945126025 163.555606,2.34725602 163.555606,6.67229535 C163.555606,9.595697 164.951315,13.3880451 168.770186,13.3880451 C171.097657,13.3875528 173.307691,11.6097819 173.307691,7.71896964 L173.307691,7.71896964 Z M189.93442,10.3258089 C189.93442,10.918071 189.93442,13.2689034 189.992897,13.7823942 C189.954234,13.9010435 189.838247,13.9995077 189.624638,13.9995077 C189.391698,13.6632525 188.829161,12.9720339 187.142517,11.0165352 L182.64464,5.80285659 C182.120766,5.19040936 180.802381,3.57116584 180.39546,3.13644646 L180.357281,3.13644646 C180.279957,3.37325283 180.260142,3.82766504 180.260142,4.41992712 L180.260142,8.72478129 C180.260142,9.65379087 180.279957,12.2212445 180.609553,12.8139989 C180.72554,13.0301278 181.113613,13.1497618 181.597858,13.1891474 L182.199057,13.2482259 C182.315044,13.406261 182.296196,13.6435597 182.160395,13.7420238 C181.40493,13.7046255 180.648721,13.6849275 179.892367,13.6829453 C179.077559,13.6829453 178.554651,13.7026382 177.876127,13.7420238 C177.740809,13.6435597 177.721961,13.3668753 177.837465,13.2482259 L178.360373,13.1891474 C178.807406,13.1300689 179.116221,13.0114196 179.214327,12.7938137 C179.485929,12.0833946 179.466115,9.67348371 179.466115,8.72478129 L179.466115,3.01878176 C179.466115,2.46590536 179.447267,2.05087882 179.03938,1.59646661 C178.76826,1.31978225 178.303829,1.18193239 177.837948,1.12236156 L177.508352,1.08297588 C177.391398,0.964818862 177.391398,0.668441665 177.547014,0.589177996 C178.360856,0.648256507 179.38879,0.648256507 179.737718,0.648256507 C180.047499,0.648256507 180.377579,0.62856367 180.629851,0.589177996 C181.016957,1.59646661 183.304799,4.20379823 183.944661,4.93391016 L185.825099,7.08682957 C187.162815,8.60760891 188.112942,9.7133617 189.023922,10.6615718 L189.062585,10.6615718 C189.139909,10.5631076 189.139909,10.2465453 189.139909,9.83151873 L189.139909,5.60494358 C189.139909,4.67642632 189.121061,2.10897269 188.751353,1.51671062 C188.635849,1.33898277 188.325584,1.22033342 187.550405,1.12137692 L187.220325,1.08199124 C187.085007,0.96383422 187.104822,0.647271865 187.258988,0.588193354 C188.151604,0.627579028 188.80983,0.647271865 189.545864,0.647271865 C190.380486,0.647271865 190.884546,0.627579028 191.543255,0.588193354 C191.697905,0.68714986 191.697905,0.96383422 191.581918,1.08199124 L191.310315,1.12137692 C190.689785,1.22033342 190.302195,1.37787612 190.223904,1.53640346 C189.894308,2.24731487 189.93297,4.69611915 189.93297,5.60494358 L189.93297,10.3258089 L189.93442,10.3258089 L189.93442,10.3258089 Z M204.026833,10.7206503 C204.026833,12.7943061 204.065496,13.0503129 205.306073,13.1896398 L205.828981,13.2487183 C205.944968,13.3476748 205.906305,13.6834376 205.790318,13.7425162 C204.685543,13.7031305 204.045681,13.6834376 203.270019,13.6834376 C202.45521,13.6834376 201.757839,13.7031305 200.904368,13.7425162 C200.788381,13.6834376 200.749719,13.3673676 200.865706,13.2487183 L201.272627,13.1896398 C202.3977,13.0316047 202.436363,12.7943061 202.436363,10.7206503 L202.436363,3.43331598 C202.436363,1.75548627 202.3977,1.41873876 201.524415,1.32027457 L200.827044,1.24199554 C200.691242,1.1233462 200.711057,0.826476682 200.865706,0.748197655 C201.89364,0.609855475 203.095072,0.590162638 204.703907,0.590162638 C206.313226,0.590162638 207.514658,0.806783845 208.425638,1.3798454 C209.318255,1.95290696 209.97648,2.97988841 209.97648,4.34312505 C209.97648,6.15929694 208.872188,7.06861369 208.038532,7.48314791 C207.185061,7.89817445 206.157127,8.07590231 205.362616,8.07590231 C205.226815,8.0168238 205.226815,7.71946196 205.343769,7.68007628 C207.437333,7.2852349 208.193181,6.0805256 208.193181,4.36281789 C208.193181,2.44670485 207.087922,1.20310219 205.071683,1.20310219 C204.043748,1.20310219 204.0249,1.28138122 204.0249,1.91302896 L204.0249,10.721635 L204.026833,10.721635 L204.026833,10.7206503 Z M212.750985,7.30443542 C212.750985,3.35503695 215.659841,0.332678794 219.652691,0.332678794 C224.130754,0.332678794 226.379934,3.63073667 226.379934,7.10750705 C226.379934,11.0972758 223.394237,14 219.652691,14 C215.348609,13.9995077 212.750985,10.8594848 212.750985,7.30443542 Z M224.441502,7.71896964 C224.441502,4.46128207 223.025978,0.945126025 219.323578,0.945126025 C217.306855,0.945126025 214.689417,2.34725602 214.689417,6.67229535 C214.689417,9.595697 216.086093,13.3880451 219.90448,13.3880451 C222.231951,13.3875528 224.441502,11.6097819 224.441502,7.71896964 Z M232.766465,13.9995077 C231.138298,13.9995077 230.110364,13.4855246 229.742105,13.2689034 C229.509165,12.8346764 229.256893,11.4325464 229.218231,10.5040291 C229.31537,10.3661793 229.606304,10.3267936 229.683629,10.4449506 C229.974563,11.4522392 230.769073,13.3885374 233.01777,13.3885374 C234.645937,13.3885374 235.441414,12.3024774 235.441414,11.117461 C235.441414,10.2480222 235.267917,9.28110393 233.85191,8.35258667 L232.00965,7.12867685 C231.040193,6.47684394 229.916086,5.35139831 229.916086,3.73215478 C229.916086,1.85542742 231.351424,0.335140399 233.871724,0.335140399 C234.471956,0.335140399 235.170778,0.453789742 235.673871,0.591639601 C235.925659,0.67090327 236.196779,0.710288944 236.352395,0.710288944 C236.526858,1.18439399 236.700839,2.29014679 236.700839,3.11970755 C236.623514,3.23835689 236.313732,3.29743541 236.216593,3.17878606 C235.964805,2.23106828 235.441414,0.94758763 233.580307,0.94758763 C231.680054,0.94758763 231.273133,2.23106828 231.273133,3.13940039 C231.273133,4.28503118 232.203928,5.11459194 232.921114,5.56900416 L234.471956,6.55709225 C235.692719,7.32658986 236.896084,8.47271297 236.896084,10.3484557 C236.896084,12.518114 235.286765,13.9995077 232.766465,13.9995077 L232.766465,13.9995077 Z M246.534599,10.7206503 C246.534599,12.7943061 246.573261,13.0901909 247.697368,13.1896398 L248.317898,13.2487183 C248.433885,13.3279819 248.395222,13.6834376 248.279235,13.7425162 C247.17446,13.7031305 246.515751,13.6834376 245.739121,13.6834376 C244.963459,13.6834376 244.285418,13.7031305 243.044841,13.7425162 C242.928854,13.6834376 242.890192,13.3476748 243.044841,13.2487183 L243.74173,13.1896398 C244.846989,13.0911756 244.944128,12.7943061 244.944128,10.7206503 L244.944128,1.89284381 C244.944128,1.2808889 244.944128,1.26168838 244.362743,1.26168838 L243.296146,1.26168838 C242.462007,1.26168838 241.39541,1.30058173 240.911165,1.75548627 C240.445767,2.19020565 240.251972,2.6244327 240.038846,3.11823059 C239.883231,3.23687993 239.612111,3.13792343 239.534786,2.98038073 C239.844568,2.09124914 240.135019,0.827461324 240.27082,0.0372862389 C240.329297,-0.00209943507 240.581569,-0.0217922721 240.639079,0.0372862389 C240.755066,0.669426307 241.394927,0.649241149 242.28706,0.649241149 L250.13841,0.649241149 C251.185192,0.649241149 251.359172,0.609855475 251.650589,0.09636475 C251.747728,0.056979076 251.961338,0.076671913 252,0.155443261 C251.787357,0.965803504 251.650589,2.56535419 251.709066,3.15761626 C251.631741,3.31565128 251.302145,3.31565128 251.205006,3.19749426 C251.146529,2.70369637 251.011695,1.97309212 250.720761,1.75548627 C250.274211,1.41873876 249.538177,1.26168838 248.471581,1.26168838 L247.095202,1.26168838 C246.513818,1.26168838 246.532665,1.2808889 246.532665,1.9327218 L246.532665,10.7211426 L246.534599,10.7211426 L246.534599,10.7206503 Z" id="Shape"></path>
                </g>
            </g>
        </g>
    </g>
</svg>